<?xml version="1.0" standalone="no"?>
<!DOCTYPE svg PUBLIC "-//W3C//DTD SVG 1.1//EN" "http://www.w3.org/Graphics/SVG/1.1/DTD/svg11.dtd" >
<svg xmlns="http://www.w3.org/2000/svg" xmlns:xlink="http://www.w3.org/1999/xlink" version="1.1">
<metadata>
Created by FontForge 20170731 at Wed Feb 10 15:19:24 2021
 By Aleksey,,,
JoannaVu
</metadata>
<defs>
<font id="treasuremap" horiz-adv-x="500" >
  <font-face 
    font-family="treasuremap"
    font-weight="500"
    font-stretch="normal"
    units-per-em="1000"
    panose-1="2 0 6 3 0 0 0 0 0 0"
    ascent="782"
    descent="-218"
    x-height="517"
    cap-height="683"
    bbox="-34 -338 1270.77 754"
    underline-thickness="50"
    underline-position="-200"
    unicode-range="U+0020-F8FE"
  />
<missing-glyph 
d="M100 50h300v421h-300v-421zM50 0v521h400v-521h-400z" />
    <glyph glyph-name=".notdef" 
d="M100 50h300v421h-300v-421zM50 0v521h400v-521h-400z" />
    <glyph glyph-name=".null" horiz-adv-x="0" 
 />
    <glyph glyph-name="nonmarkingreturn" horiz-adv-x="333" 
 />
    <glyph glyph-name="space" unicode=" " horiz-adv-x="300" 
 />
    <glyph glyph-name="exclam" unicode="!" horiz-adv-x="236" 
d="M121 675q2 4 25.5 2t31.5 -7q23 -15 24 -126q0 -55 4 -97q4 -44 4 -63t4 -55q3 -31 0 -66q-4 -36 -10 -41q-16 -14 -47 -5q-25 6 -30 9.5t-7 17.5q-4 16 -4 33q0 22 -5 59q-11 101 -9 121q2 18 -1 19q-4 4 -2 67q1 66 -3 74q-9 16 1 40q6 15 14 15q9 0 10 3zM197 111
q1 1 3 0.5t3 -1.5q6 -2 9 -2q8 0 0 -22q-4 -8 -3 -9.5t6 -2.5q18 -5 16 -42q-2 -19 -5 -24q-2 -9 0 -17q3 -13 -3.5 -17t-27.5 -4q-23 0 -43 4t-39 4q-17 0 -23 3.5t-7 16.5q-1 7 -6 23q-6 12 -3 25q2 12 2 23q-1 13 10 23q9 9 33 13q17 4 50 4q26 0 28 2z" />
    <glyph glyph-name="quotedbl" unicode="&#x22;" horiz-adv-x="393" 
d="M151 557q-1 1 -5 3.5t-5 3.5q1 1 0 1h-1v1l-2 1q-5 5 -10 20h-2v2l-1 1l1 2q0 1 1 2.5t1 2.5t1 1l1 2q0 1 -2 2.5t-2 2.5l-4 4v7q-1 -1 -1 0l1 2l-1 1l1 2v4v1q0 3 -2 7l-2 4l-1 2q0 1 -1 1h-1q1 2 0 2q-1 3 -4 9q0 1 -1 2q-2 1 -2 2t-2 2.5t-3 2.5l-1 1l1 1h-1l-1 2
q0 1 -0.5 1.5t-0.5 1.5v1q0 10 1 11l1 1v1q0 2 2 4v1l2 2q1 1 3 5q4 6 6 7h16l18 -6q4 0 10 -2q4 -1 11.5 -5t9.5 -5h1l1 -1l3 -1q13 -8 27 -24q1 -1 4 -17l2 -1q3 -1 5 -2q4 -4 4 -7q1 -1 -1 -2t-1 -3l2 -1q0 -1 0.5 -4t0.5 -5q0 -4 -1 -3l-4 -1q7 -1 4 -7q-2 -7 0 -18
q0 -1 -1 -3l1 -1q1 -1 1 -2q-2 -2 -3 -4q-2 -5 0 -9v-3l3 -3l1 -2q2 -6 -9 -13q-8 -6 -9 -6q-3 0 -4 -1q-1 0 -3 0.5t-4.5 1.5t-3.5 1h-4h-4q-7 3 -19.5 8.5t-17.5 7.5zM292 547q-1 1 -3 4.5t-3 4.5q1 0 1 1q-1 0 -1 1l-1 1l1 1q-2 4 1 26l-2 1q0 1 1 3l-1 2l2 2
q0 1 0.5 2.5t1.5 2.5q2 2 2 3t-3 7q0 1 -2 3t-2 3v5h-2l2 1q0 1 -2 1l2 1q0 1 0.5 1t0.5 1q1 1 1 7v3l1 2q0 1 0.5 4t0.5 5v3l-1 2q0 1 -1.5 4t-0.5 5l-1 1l1 1q-1 0 -1 1v2q-1 1 1 5q-1 1 0 1q0 2 2.5 7.5t3.5 5.5l1 1q0 1 1 2l3 3l1 2q1 0 1 1l2 1q14 11 16 11q9 0 19 -5
q2 -1 4.5 -2.5t4.5 -3t4.5 -3.5t4.5 -4q1 -2 4.5 -4t4.5 -3q3 -4 8 -12t7 -10q1 -1 1 -3l2 -1q1 0 1 -1q7 -13 7 -37q0 -5 -7 -17q0 -1 2 -2q1 -2 2 -3q2 -5 -1 -8q-1 -2 -3 -2t-2 -1l1 -1q-1 -3 -4 -9q0 -3 -3 -2l-3 1q4 -3 0 -7q-5 -5 -9 -13q0 -1 -2 -3v-3q0 -1 -1 -1
l-2 -1q-4 -3 -4 -7v-1q-1 -1 -1 -2l1 -2l1 -2q-1 -4 -12 -8q-7 -2 -8 -2h-3l-8 5q0 1 -1 1h-2h-2z" />
    <glyph glyph-name="quotesingle" unicode="'" horiz-adv-x="190" 
d="M111 341q-2 0 -11 3v1h-2v1h-2v1q-8 6 -10 28l-2 1v3v1l-1 2l1 2v2q0 2 1 4t1 4l2 4q0 2 -1.5 6t-1.5 5q-3 9 -3 11t0.5 5.5t0.5 5.5q0 1 -1 2l-1 1l2 2q0 1 -1 2v2q2 0 2 1v6h-2l2 2q1 2 1 19v6l-1 1l2 1q1 5 4 11l3 6l3 6q-3 3 -6 17l-1 1v2l-1 1q-1 0 0 1t1 2
q1 1 2 2.5t1 2.5v1q1 1 1 2q1 1 -2 6q-3 6 -3 7t0.5 3.5t0.5 3.5l-2 1l2 2l-1 2q1 0 1 1q1 1 1 3h-2l2 1q2 4 -1 12v3l-1 1l1 1l2 4l1 1v2l1 1q-1 0 -2 1h2l1 1v5l1 2h-2l2 1l4 4l1 1l-1 1h-1h-1v1h-2v1q-5 2 -8 11h-1v1l-2 1q2 0 2 1h1l1 1l2 1q0 1 -1 1l-2 1l-2 1v2l1 1
h-2l2 1v1v1q2 1 -1 6l1 2h-2l2 1l3 6q1 0 1 2t1 2t2 2t3 3v1h2v1h3q1 0 2 0.5l3 1.5h2q2 1 11 2t10 0q2 -1 5 -1h6h4h1q1 -1 2 -1l22 -3q3 -3 3 -7q1 -1 -0.5 -3.5t-1.5 -3.5v-1l1 -1q1 -1 1 -2.5v-2.5v-1h2q1 -1 1.5 -3t0.5 -3l-1 -1q-1 0 -3 -1l4 -1l1 -1h1q-1 -1 -2 -1
v-1q-1 -1 -2 -1h-3l2 -1q-2 -1 0 -3v-1q1 0 1 -1q-1 0 -2 -1l2 -2l1 -1q1 0 3 -1h2q1 -2 -4 -5q-4 -2 -5 -2q-2 -1 -4 -1q7 -2 10 -4q1 -4 1 -5t-2 -5v-2v-1v-2l2 -2q1 -1 1 -2l1 -1h1l-1 -2h-1q-3 -1 -1 -3l1 -1q-1 0 -2 -1l2 -2l1 -1h5q2 -1 0.5 -2l-4.5 -3q-2 -1 -3 -2
v-6.5t1 -6.5l-4 -8q1 0 4 -2l1 -2l1 -1l-2 -1q-2 0 -2 -1h2v-4q-1 -1 -2 -1h-3q5 -1 2 -4q-2 -3 0 -7q-1 -1 0 -1v-1l1 -1q-1 -1 -2 -1q-1 -1 0 -3l1 -1l2 -2l2 -1h3q2 -2 -3 -5l-1 -1q-3 -3 -5 -3l-4 -2h-3l2 -2q2 -4 2 -10l-3 -12q0 -1 0.5 -3t0.5 -3v-8t1 -7l-1 -1l2 -2
q1 -3 1.5 -11t0.5 -10q1 -2 -4 -11l5 -2q2 -4 2 -5t-2 -1.5t-2 -1.5h2v-6q0 -2 -2 -2h-3q7 -1 4 -4l-1 -1q-2 -4 0 -10v-2l2 -2q0 -1 -2 -3q0 -3 2 -5l2 -2q2 -2 5 -2q1 -2 -3 -10l-5 -5l-3 -2q-1 0 -3 -0.5t-4.5 -1t-4.5 -0.5t-3 -1h-1l-2 -1q-34 -2 -41 -2z" />
    <glyph glyph-name="parenleft" unicode="(" horiz-adv-x="481" 
d="M459 -334q-6 -3 -13.5 -3.5t-12.5 0t-10 -0.5q-6 0 -10 2v-1q-1 0 -5 0.5t-5 0.5h-1v-1l-4 1q-4 1 -5 1q-95 23 -212 120l-5 2q-14 16 -20 22q-3 3 -8.5 9t-8.5 10q-5 7 -15 25q-20 35 -32 62q-3 7 -6.5 18t-5.5 15q-25 70 -29 87q-14 59 -16 92q-3 36 1 105v11v11
q1 5 2.5 11.5t1.5 8.5q3 17 3 32q1 3 2.5 5.5t1.5 4.5q3 21 11 51l-2 1l6 15q43 120 60 154q4 9 14 25.5t11 18.5l2 5q2 4 5.5 7.5t3.5 4.5q24 33 61 72q16 18 35 33q38 31 50 35q2 0 7 5h1v-1q5 5 8 5q1 1 4 1q12 5 13 5t3 1h2q1 0 3.5 -1.5t4.5 -3.5t1 -3q-2 -2 -3 -5
q-2 -5 -5 -8q-1 -1 0 -1l1 -1q0 -1 -3 -3t-4 -3q-3 -5 -9.5 -18t-11.5 -19q-39 -43 -52 -63q-37 -51 -54 -85q-9 -17 -20 -46q-28 -76 -36 -120q0 -2 -2 -6.5t-2 -6.5v-8t-1 -7q-13 -126 -11 -184q1 -16 2.5 -46t3.5 -44q0 -3 4.5 -11.5t4.5 -9.5q4 -9 11 -37q1 -7 0.5 -11
t1.5 -10l3 -4q2 -7 7 -20.5t8 -22.5l4 -12q-4 2 -4 -1q7 -5 19 -32q18 -37 44 -68q1 -1 10 -13q8 -6 10 -8q8 -10 15 -16l35 -30l15 -10q4 -2 9 -4t6 -3q11 -7 31.5 -21t27.5 -17q8 -4 14.5 -6t12.5 -4t8 -3q4 -2 13 -3q4 -1 4 -6l2 -1q1 0 3.5 -0.5t3.5 -0.5t3.5 -0.5
t4 -0.5h2.5q-3 -3 -6 -8t-5.5 -8t-6.5 -4z" />
    <glyph glyph-name="parenright" unicode=")" horiz-adv-x="294" 
d="M90 705q6 1 15.5 -5.5t10.5 -6.5l2 -3q2 -2 3 -2h1h1l2 -2l3 -3q0 1 1 1t3 -3l2 -3q49 -44 103 -150l3 -3q1 -3 3.5 -10t4.5 -11q7 -15 8 -17q2 -5 4 -21q9 -41 11 -51q1 -5 2 -15t1 -11q1 -10 5 -32l6 -33q5 -55 5 -67q-1 -23 -7 -74q-1 -3 0 -7t0 -7q-1 -4 -2.5 -8.5
t-1.5 -6.5q-2 -6 -2.5 -13.5t-0.5 -8.5q0 -2 -1.5 -4t-1.5 -3q-6 -24 -9 -35l2 -1l-5 -10q-5 -13 -13.5 -37t-15.5 -42t-12 -30q-2 -7 -8.5 -19t-7.5 -14l-1 -4q-1 -2 -3.5 -4.5t-2.5 -3.5q-21 -33 -40 -56q-15 -20 -23 -28q-31 -31 -33 -32q-3 -4 -4 -5l-1 1l-5 -5h-2
t-2 -1q-3 -1 -4.5 -2.5t-2.5 -2t-3 -0.5l-3 -1q-2 -1 -8 2.5t-5 5.5v5q-1 4 1 9l-2 1q3 6 3 7q1 4 1 11.5t1 13.5t4 10q5 8 15.5 25.5t15.5 26.5q32 58 35 65q3 5 12 34q20 61 24 83q2 8 2 10q1 2 1 5v5q12 114 12 128t1 34.5t1 29.5q0 2 -1.5 5.5t-2.5 6.5l-2 3q-2 5 -5 29
q0 5 1.5 7.5t0.5 8.5l-3 3q-1 8 -6 34v4q-1 6 0 5q3 -1 4 1q-7 5 -10 27q-6 33 -19 60q-1 2 -2.5 6t-2.5 6t-2.5 4t-2.5 4q-1 3 -2.5 8.5t-2.5 7.5q-6 16 -15 27q-5 8 -7 11q-2 2 -6 4.5t-5 3.5q-6 8 -11.5 17.5t-9.5 19t-5 11.5q-3 5 -6 11t-5 9t-3 6q-1 6 -4 10q-1 3 6 10
l-2 7q-1 2 -2 4.5t0 2.5q4 2 10.5 6.5t12 7.5t12.5 3z" />
    <glyph glyph-name="comma" unicode="," horiz-adv-x="261" 
d="M232 93q22 -39 25 -91.5t-16 -91.5q-12 -26 -39 -48.5t-55 -33.5q-34 -10 -39 -8q-2 1 1 10t7 14q5 6 15.5 15t15.5 14q6 7 9.5 16.5t6 22t4.5 18.5l3.5 10.5t3.5 12.5q0 2 -1.5 6.5t-1.5 6.5q-5 45 -8 51q-5 11 -10 19q-3 3 -7.5 7t-6.5 6q-1 1 -4 5.5t-5 6.5t-7 4.5
t-6 3.5q-14 10 -20 23q-4 7 -6 18q-1 5 0 13t2 9q4 4 16 8q29 8 57 0q14 -4 38 -23q23 -18 27 -23z" />
    <glyph glyph-name="hyphen" unicode="-" horiz-adv-x="454" 
d="M199 284q60 1 141 -21q57 -14 85 -31q2 -1 8.5 -4.5t11 -6.5t4.5 -5q1 -2 -4 -7.5t-9 -7.5q-6 -2 -34 -2q-8 0 -27.5 -5.5t-30.5 -6.5q-5 -1 -14.5 0t-12.5 1t-8 -2t-7 -2q-13 -1 -38 0.5t-33 1.5h-35h-19.5t-18.5 1q-5 1 -15 4t-15 4q-3 1 -9.5 2t-11.5 2t-9 2
q-6 3 -15 12t-10 14q-2 10 -1 18q0 16 6 22q2 2 13 5q11 4 44 9q6 1 18.5 0.5t16.5 -0.5t13 2t15 1h1z" />
    <glyph glyph-name="period" unicode="." horiz-adv-x="233" 
d="M136 40h1q0 1 -1 1v-1zM108 -18h-6t-6 -1q1 1 0 1h-1h-2q-7 1 -9 7h-2q1 1 0 1l-1 1l1 1l1 1q1 1 1 2l2 1l-3 3l-3 3v2l1 2l-1 1l1 1l-1 1q2 0 2 1v2h-1q1 0 1 1h-2l1 1q-4 4 -8 10q-1 3 -1.5 10t-0.5 9v9q2 7 6 11l-2 1q-3 4 -3 15q1 5 13 17q5 5 8 6q9 4 20 4h2
q0 1 1 1q2 0 8 1t8 2q2 0 4 -0.5t3 -0.5q0 1 1 2l3 1q1 0 1 -1h1h4q1 0 1 -1v-1q1 3 3 1q2 -1 6 -1h1l1 1l1 -1h3q1 0 1 1q2 0 2 2q1 1 4 -2h1h1q2 -1 3 -1q0 1 1 2t2 1v-2l1 1h2h1h1q3 -1 5 0h1q1 0 1 -1h1q1 1 2 1l1 1q1 2 2 2q1 1 2 -1l1 -1v-2q1 0 1 0.5t1 0.5v-1h1
q1 0 0 -1h1l1 -1l1 -1h2v1l2 2l1 -1v-2v-3v-2l-1 -2q-1 -3 -1 -4l-1 -2v-2q-1 -2 -3 -7t-3 -7q6 -2 8 -3q1 0 3 -2q0 -1 2 -1t2 -1q11 -12 11 -33q0 -2 -7 -11q2 -1 4 -3v-5q0 -1 -2 -1t-2 -1l2 -1l-2 -5q0 -1 -2 -1l-3 1q5 -3 2 -4v-5l1 -1q0 -1 0.5 -1t0.5 -1q-1 -2 -1 -6
v-6l3 -1q3 -3 -4 -6l-1 -1q-1 -1 -1 -2h-1v-1h-1q-5 -3 -19 -3v-1h-3q-1 -1 -2 0q-1 0 -2 1q-3 0 -5 1h-1l-1 1q-5 0 -7 -1h-7q-1 0 -3 0.5t-4 0.5h-1l-1 1h-1l-2 -1q0 1 -1 1q0 1 -1 1h-2v-1l-1 1q-2 0 -4 2h-8q-1 0 -3 1l-1 -1q0 1 -1 1q-4 2 -6 4z" />
    <glyph glyph-name="zero" unicode="0" horiz-adv-x="501" 
d="M250 679q15 3 42 0.5t38 -7.5q37 -16 49 -38q7 -11 16 -18t9 -13q0 -5 3 -8q8 -16 10 -21q10 -22 22 -33q15 -17 15 -23t3 -6t3 -7q0 -9 5 -22l7 -21v-7q1 -7 1 -12q0 -15 6 -17t6 -4q0 -6 -16 -14q-12 -5 -3 -10q4 -2 11 -3q14 -2 18 -10q2 -10 1 -14q-3 -6 -3 -42
q-3 -66 -9 -72q-3 -2 -2.5 -15.5t4.5 -16.5q4 -4 -6 -13q-11 -9 -9 -14q2 -4 -7 -17q-8 -12 -8 -26q0 -12 -9 -14q-6 -3 -6 -5q4 -4 -11 -32q-15 -27 -20 -30q-6 -3 -6 -6q0 -1 -4 -7q-2 -4 -9 -11q-8 -12 -38.5 -23t-61.5 -14q-24 -2 -24 -5l-3 -4q-4 -5 -7 -8
q-8 -9 -19 -8t-28.5 9.5t-23.5 15.5q-5 5 -25 19q-13 8 -32 26.5t-19 22.5q0 1 -22 16q-22 14 -27 26q-7 18 3 29q3 4 3.5 5t-0.5 2q-3 0 -9 10q-6 11 -14 18q-13 10 -28 48q-17 42 -3 59q6 8 5.5 11.5t-8.5 9.5q-9 7 -14.5 22.5t-1.5 25.5q3 7 3 29q0 20 5 32q5 13 5 20
q0 5 6 13t6 17q0 10 7 15q6 6 6 14q0 11 10.5 31t20.5 25q12 7 16 5q6 -2 10 4q4 5 10 20.5t5 20.5q0 3 2 6.5t5 5t4 0.5q2 -2 -2 -8q-2 -4 -3 -8t0.5 -5.5t4.5 -1.5q4 4 4 6q0 5 5 10q4 3 6 13q0 9 11 12q8 4 24 4q13 1 15 8q5 18 70 28zM270 631q-17 14 -56 -7
q-10 -6 -10 -13q0 -6 -7 -15q-6 -8 -12 -25q-7 -16 -9 -18q-4 -2 -7 -9.5t-1 -9.5q2 -4 -2.5 -6.5t-11.5 -2.5t-5 -7t-1 -10q-4 -4 -4 -18q-2 -17 -4 -19q-4 -5 1 -10t-2 -5q-15 0 -21 -93q-2 -18 -4 -20q-2 -3 5 -8q6 -4 6 -10q1 -2 1 -10q0 -2 -2 -20q-2 -16 6 -32
q8 -18 8 -21q0 -5 3 -5t5 -11q1 -6 3.5 -11.5t5.5 -8t5 -1.5q3 2 3 -3q1 -12 -8 -23l-8 -9q4 0 8 1q9 1 11 -7q14 -33 24 -43q7 -7 7 -4q0 1 7 -2q6 -3 6 -14t4 -11q5 0 15 -15q10 -12 16.5 -14t40.5 -3q22 0 28 2t-2 12l-6 6q-11 11 -12.5 14.5t1.5 10.5q8 15 19 28
q22 27 24 45q1 4 3 13t3 12q2 7 2 45q-1 33 4 42q5 10 1 30q-4 13 -6 40q0 4 -0.5 9t-0.5 9v3q0 7 8 25q7 23 6 27q-2 5 2 7q4 6 -3 28t-19 40q-5 7 -9 26q-6 21 -16 34q-16 24 -23 38q-15 24 -20 27z" />
    <glyph glyph-name="one" unicode="1" horiz-adv-x="357" 
d="M351 -1q-1 -3 -6 -5h-1v-1h-2v-1h-2q-7 -3 -40 -5v-1h-5h-5q-3 0 -5 1h-11q-2 1 -6 1q-2 0 -7 -0.5t-8 -0.5q-2 0 -6.5 -0.5t-7.5 -0.5h-16q-1 0 -2 -0.5t-2 -0.5t-3 1h-4l-1 -1l-1 1q-6 0 -8 -1h-3q-1 1 -5 1v-1h-1l-1 -1h-1q-1 0 -2 -1q-2 0 -4 -2q-1 0 -1 -1l-1 -3
q-1 -1 -9 -1q-4 0 -5 1t-2 1q-2 0 -2 4q-1 0 -1 0.5t-1 0.5h-14h-8h-10h-2v1l-1 -1q-1 0 -1 2q-1 1 -2 1h-1l-1 1l-1 3q-1 2 -1.5 3.5t0.5 2.5v2q0 1 1 2v2v1q1 1 1 2q1 1 1.5 3t1 3.5t1.5 3t2 1.5q6 2 9 2q-7 5 -6 8q0 3 4 9q2 1 5 4t5 4q1 1 3 5q1 2 4.5 5t4.5 5q0 1 1 1
v2q2 3 6.5 8.5t5.5 6.5q1 2 4 3.5t4 1.5q-1 1 -1 4q0 2 1 3q0 3 -1 4l-2 1v8l-3 6q0 1 0.5 3.5t0.5 4.5q1 7 1 18q2 6 2 9q0 4 -2 12t-2 11q-3 21 -3 23q-1 5 0 14t1 12q0 1 -1 2.5t-1 2.5t1 3l1 2q1 2 0 5l-1 3l1 1l1 1q1 4 1 13h-2l2 3q2 7 2 39q2 8 2 12l-2 1q0 1 1 2
l1 1q1 5 7 21q0 1 1 4.5t2 4.5q-1 10 -1 28q0 1 -1 3t-1 4v3.5v2.5l1 2q0 4 -1 8l-1 4q0 1 1 2l1 2q0 14 -1 20h-1l1 6v64q0 4 0.5 11t0.5 9l-2 2l3 6q1 18 7 37v1v1q-1 1 -1 3t-1 3v-1q-2 -2 -2 -3h-1l-1 -1h-1v-2l-1 -2l-2.5 -5l-2.5 -5t-4 -5t-4 -5v-1q0 -1 -1 -2t-3 -1
q-1 -2 -1 -4h-2q-1 -2 -4 -5l1 -1l-2 -1q-5 -3 -13 -17q0 -1 -2 -2.5t-2 -2.5v-1h-1l-1 -1q-2 -2 -10 -8q-1 -1 -3 -2t-3 -2q-1 0 -4 -2.5t-5 -1.5v-1l-1 1l-1 -1h-1q-1 1 -2 1q-3 0 -4 1h-1q-12 6 -12 9l-3 3l-2 4l-2 2l-1 2q-1 2 -5.5 8t-4.5 8q1 2 6 10q2 3 5.5 6t4.5 5
l3 6v2q1 6 9 14q0 1 5 6q2 3 6.5 9t6.5 9q1 1 11 9q-1 3 -1 4q2 4 4 6h2q1 0 2 1l-1 1q3 3 6 5q0 3 2 1l2 -1q-3 5 2 5q7 6 10 10l2 2q1 0 1 1v1l1 1q1 1 2 1l5 5v1l1 2v4q1 3 11 6l4 2q0 3 4 15q0 6 1 8q5 11 6 11q-1 1 0 2h2q-1 1 0 1q0 1 3 1q4 3 5 3l2 1q2 1 12.5 2
t11.5 0t5 -1l7 -1h4q1 0 3 -2q3 -1 9.5 -1.5t10.5 -1.5t5 -3t4 -15q1 -4 -0.5 -10.5t-1.5 -8.5t1 -5t1 -5t0.5 -10.5t1.5 -11.5v-2q0 -1 2 -3q1 -6 2 -18.5t1 -14.5q1 -4 -1.5 -9.5t-2.5 -7.5q3 -2 5 -4t2 -8q0 -1 -2 -1.5t-2 -2.5l2 -1v-9q0 -3 -2 -2h-4q4 -1 5 -2.5
t0 -3.5l-1 -2q-3 -7 -1 -16v-4l2 -2q0 -1 -1 -3l-1 -1q-1 -5 1 -9q1 0 1 -1t1 -2l5 -3q4 -6 -4 -14q-3 -7 -6 -8l-3 -2q-1 -1 -5 -1q0 -20 1 -27v-5l2 -6q2 -13 3.5 -41t2.5 -35q1 -6 -2 -39q0 -1 3 -5l3 -4q3 -7 3 -18q0 -3 -2 -4.5t-1 -4.5l1 -2q0 -3 0.5 -10t0.5 -12
q0 -6 -2 -5h-3q4 -3 5 -6t0 -7t-1 -5q-3 -20 -1 -37v-6q0 -1 1 -2t1 -2t-1 -4.5t-1 -5.5q-1 -12 1 -23q0 -2 1 -5t1 -5q1 -3 3 -6t2 -4q7 -23 -1 -31q0 -1 -1.5 -0.5l-3 1t-4 1.5t-5.5 1q-2 0 -5 0.5t-4 0.5q0 -3 3 -9q0 -1 1 -1l1 -2q1 0 3 -0.5t3 -1.5l2 -2v-1q20 0 25 -1
q3 -2 3 -3q1 -1 -1 -2l-1 -2l2 -1v-2.5t1 -1.5h2q-1 -1 -1 -2q-2 -1 -5 -3l2 2h-2l-2 -2l-1 -1q-2 0 -2 -1l-2 -2l-1 -1l-1 -1l-3 -3l-1 -2v-1v-2l2 -3l2 -2l1 -1q1 -1 1 -5l1 -1l1 -1v-1q1 -1 1 -2h2h8q1 1 3 1l3 2q5 2 14 -1q1 0 3.5 -0.5t3.5 -1.5t2 -1q1 -1 1 -6
q1 0 2 -1l1 -1q0 -15 -1 -19zM313 57q-1 0 -1 -1z" />
    <glyph glyph-name="two" unicode="2" horiz-adv-x="560" 
d="M265 683q30 5 58 -1q24 -6 30 -4q7 0 13 -10q4 -9 17 -12q11 -3 18 -8q4 -4 7 -3q2 2 9 -5q23 -23 31 -21q1 1 2.5 -1.5t2.5 -7.5q1 -12 26 -50q29 -44 18 -75q-3 -8 -5 -21q0 -10 -12 -34q-11 -27 -20 -43q-8 -19 -14 -25q-5 -3 -5 -15q0 -13 -5 -16q-9 -13 -10 -16
q-6 -9 -20 -27q-16 -16 -14 -20q0 -4 -10 -4q-9 0 -18 -10q-7 -8 -2 -17q4 -6 3.5 -9t-7.5 -11q-2 -3 -9 -11t-10 -11q-10 -8 -10 -13q0 -4 -7 -5.5t-12 1.5q-13 7 -13 -3q0 -6 -7 -13q-9 -7 -7 -12q2 -6 -25 -47l-19 -28h80q78 0 90 -2q9 -3 42 14q32 16 38 20q5 4 11 0
t11 2q5 5 5 9q0 9 23 -15q19 -18 15 -24q-3 -5 -15.5 -17t-15.5 -12t-8.5 -11t-5.5 -16q2 -8 -5 -11l-7 -1q0 3 -3 -2q-2 -5 1 -8q3 -5 -3 -6q-7 -2 -10 -7q-5 -3 -19 -5t-28 5q-18 10 -67 15.5t-97 3.5q-42 -2 -55 1q-6 3 -32 0q-33 -6 -40 -18q-4 -6 -7 -6l1 5l2 1
q6 7 -1 7t-14 -7q-18 -13 -28 -1q-4 6 -14 3q-11 -2 -19 5.5t-9 22.5l-2 17l21 16q24 20 29 25q29 30 29 37q0 6 6 12q5 7 4 8q-2 2 4.5 9.5t15.5 14t14 6.5q15 2 9 13q-4 6 -2 14t7 8q4 0 4 4q0 5 11 14q11 11 11 14q0 4 8 14t8 12q0 4 12.5 16.5t16.5 12.5q11 0 25 43
q4 13 17 34q8 11 21 35q9 17 24 31t22 12l8 -2l-7 13q-6 17 -5 27q0 16 -5 24q-3 5 -6 17q-6 31 -27 59q-22 29 -48 25q-14 -2 -23 1q-10 3 -34 -6q-46 -16 -67.5 -37t-31.5 -62q-6 -21 -11 -28t-19 -11q-19 -6 -46 10q-10 6 -10 20q0 27 16 47q6 9 4 14q-1 6 10 22
q10 13 16 25q13 32 109 61q26 7 37 13q7 2 35 9z" />
    <glyph glyph-name="three" unicode="3" horiz-adv-x="473" 
d="M193 679q43 7 52 -2q7 -7 15 -5q6 2 16.5 -0.5t12.5 -6.5q0 -3 26 -9q20 -5 35 -12q10 -7 14 -7t18 -12q11 -10 19 -15q6 -2 6 -4t8 -4q9 0 12 -9q3 -10 -7 -24q-5 -7 3 -10q7 -2 10 -12t-1 -18q-3 -4 -5 -21q-6 -40 -14 -40q-3 0 -1 -4q1 -4 -8 -15q-22 -22 -22 -40
q0 -3 -6 -9q-7 -4 -7 -7q0 -6 -8 -12q-8 -10 -5 -12q1 -1 4 1q4 2 14 -5q12 -6 14 -5q3 0 4.5 -3t0.5 -8.5t-4 -9.5q-4 -8 -1 -8t11 3q9 3 16 -2t5 -8q0 -2 5 -2t1 -3t3 -12q4 -5 9 -10q2 -2 4 -10q3 -9 9 -9t4 -7q-1 -4 -6 -14q-5 -7 1 -19q7 -10 7 -19q0 -7 3 -7
q4 0 2 -21q0 -22 4 -27q4 -6 -4 -13q-9 -7 -17 -6q-6 1 -9 -1t-9 -13q-8 -15 -5 -22q5 -8 2 -13t-16 -14q-17 -12 -17 -18q0 -5 -23 -25t-39 -29q-11 -6 -39 -14.5t-38 -8.5q-9 0 -17 -5q-8 -4 -48 -6q-28 -2 -34.5 -1t-14.5 7q-9 8 -22 8q-20 0 -44.5 19.5t-24.5 35.5
q0 11 15 26q12 11 31.5 26t22.5 15q4 0 18 -16q21 -22 26 -31q14 -21 70 -6q30 8 41.5 14t18.5 19q8 14 11 14t3 3q0 4 7 11q7 8 6 12q-2 5 2 5t2 7q-4 12 -5 41.5t3 34.5q3 4 -1 10q-5 7 -8 20q-11 36 -24 39q-6 2 -10 6q-7 4 -13 6q-13 4 -49 21q-18 9 -22 9q-3 0 -8 10
t-5 17q0 8 13 14q18 7 29 8q33 3 58 15q8 4 8 14q0 3 5 23q6 15 8 38q2 8 5 26t3 19q5 21 0 23q-4 2 -4 7t-10 13q-9 9 -9 11q0 3 -11 13.5t-15 11.5q-5 3 -5 10t-5 10t-22 5q-37 4 -58 -25l-9 -14l8 2q8 2 7.5 -2.5t-9.5 -13.5q-7 -7 -7.5 -9.5t2.5 -8.5q6 -8 1 -13
q-3 -4 2 -4q15 0 -5 -7q-5 -1 -12 -3q-47 -9 -76 0q-9 3 -6 7l-1 2q0 1 -2.5 2.5t-4.5 2.5q-18 10 -10 16q2 2 2 13q1 12 12 20q10 10 9 13q0 6 1 8q2 6 2 13q-1 6 17 19q52 35 103 42zM302 354q-6 2 -9 0q-1 -1 1 -3.5t5.5 -4.5t5.5 -2q5 0 1 7q-2 2 -4 3z" />
    <glyph glyph-name="four" unicode="4" horiz-adv-x="558" 
d="M326 674q7 8 29 6t38 -9l15 -7l1 -24q0 -17 2 -81q2 -57 -2 -91q-4 -35 1 -37q4 -2 5 -72q0 -69 2 -71t2 -8q0 -5 3 -5q2 0 32 -7q24 -4 51 -9q31 -4 42.5 -18.5t-1.5 -33.5q-8 -10 -19 -10q-9 0 -16 -7q-9 -9 -37 -3q-5 1 -28 4q-13 0 -22 3q-8 2 -10 -7q-4 -5 -4 -17
q0 -27 -2 -50l-2 -41l8 -8q8 -8 8 -12q0 -3 3 -3t19 -20q4 -5 8 -9.5t6 -7t3 -1.5q2 0 2 -1q0 -3 -4 -7q-3 -3 3 -4q1 -1 3 -1q11 0 12 -1q5 0 7 -1q4 0 5 -5.5t-1 -10.5q-3 -6 -25.5 -8t-36.5 3q-14 4 -15 2h-3q-2 0 -6.5 -0.5t-9.5 -1t-12 -0.5h-13q-44 0 -52 4
q-14 7 -34 -3q-16 -8 -28 -6.5t-12 11.5q0 15 4 22t16 15q15 10 25 18q8 7 19 23t9 19q-1 2 -3 58q-1 59 -8 59q-1 0 -3 -1q-4 -2 -16 2t-12 8t-4 4q-5 0 -5 -6q0 -8 -16.5 -11.5t-23.5 2.5q-4 4 -4 1q0 -5 -21 -11t-38 -6q-21 0 -49 -20q-17 -14 -39 -14q-6 0 -22 -2
q-8 0 -10.5 0.5t-5 2.5t-5.5 7q-7 11 -6 19t10 25q12 20 10 23q-2 5 7 17q10 10 10 17q0 6 9 11q10 8 10 9q0 3 9 14q9 9 9 15q0 4 8 6q9 2 4 9t3 22q7 13 23 29t22 16t4 4q-2 3 8.5 22.5t17.5 27.5q7 7 7 11t3 4q8 0 62 103q16 31 38 64q22 35 22 38q0 5 7 10zM306 440
q0 44 -1 44t-8 -16t-8 -21q-2 -8 -13 -23q-8 -12 -12 -20q0 -3 -5 -8q-3 -2 -17 -26q-12 -24 -22 -39q-12 -18 -12 -23q-2 -7 -4 -8t-6 -7.5t-7 -13t-2 -6.5q1 -1 37 3q10 1 30.5 4t26.5 3l22 2v39q0 13 0.5 33t0.5 22v61z" />
    <glyph glyph-name="five" unicode="5" horiz-adv-x="510" 
d="M455 675q3 3 10 3q9 0 14.5 -16t-1.5 -20q-2 -2 6 -6q2 -1 6 -2l15 -5l-1 -15q0 -12 -4 -20q-3 -3 0 -8q5 -5 -5 -5q-7 0 -8.5 -1.5t-1.5 -8.5q0 -10 -4 -14q-3 -3 -3 -13t-6 -13q-6 -4 -4 -7q2 -6 -5.5 -14.5t-15.5 -10.5q-33 -5 -44 11q-5 7 -8.5 22.5t0.5 20.5
q2 4 0 9q-1 5 -30 5q-25 0 -65 4q-51 5 -60 6l-24 3l-3 -14q-3 -11 -10 -18q-5 -5 -7 -15q-2 -8 -10 -23q-9 -16 -12 -26l-4 -11l35 -2q36 -2 53 -10q21 -9 30 -11q11 -2 14 -9t18 -11q16 -6 22 -11q5 -3 5 -2q0 2 13 -9t19 -11t6 -8q0 -7 5 -7q6 0 9 -7q6 -9 11 -14
q6 -8 6 -12q0 -15 8 -15q4 0 4.5 -1.5t-2.5 -8.5q-4 -6 1 -12q6 -12 12 -36q10 -37 9 -82q-1 -9 9 -13q9 -3 9 -11t-11.5 -37t-18.5 -39q-8 -10 -6 -10q1 0 0 -1.5l-3 -4.5t-5 -6q-23 -27 -23 -32q0 -1 -23 -24q-37 -36 -44 -30q-3 1 -5 -3q-4 -11 -32.5 -20t-58.5 -10
q-61 0 -169 35q-15 4 -26.5 14.5t-11.5 18.5q0 5 -7 12q-16 16 -16 61q1 30 62 30q21 1 25.5 -2t5.5 -16q2 -14 6 -20q5 -11 7 -20q3 -17 31 -21q24 -3 56 -13q13 -4 19 -2q6 1 10 -3q4 -5 10 -4.5t31 7.5q31 8 37 16q5 8 11 6q4 -1 10 9q5 11 9 11q2 0 -1 6q-4 7 -3.5 22
t4.5 21q5 5 5 17q-2 43 10 59q5 8 1 33q-2 7 -4.5 21.5t-3.5 18.5q-4 17 -11 28t-30 34q-38 38 -75 52.5t-87 10.5q-29 -3 -36 -10q-9 -7 -13 -7q-2 0 -9 -5q-5 -6 -11 -2q-6 5 -6 0q0 -8 -14 3q-5 4 -9 9q-11 17 -9.5 40.5t15.5 39.5q8 8 8 12t15 31t21 35q7 7 7 12
q0 6 5 9q4 4 -4 9l-8 6l12 23q16 31 26 44q7 9 7 16q0 6 11 5q10 -1 13 4q1 6 25 4q30 -2 46 -5q26 -4 30 -3q8 0 11 -3t13 -3h39q37 0 80.5 5.5t48.5 10.5z" />
    <glyph glyph-name="six" unicode="6" 
d="M386 690q24 3 28 1.5t4 -12.5q0 -12 -11 -18q-51 -32 -107 -83q-54 -51 -57 -57q-4 -6 -12.5 -10.5t-14.5 -3.5q-4 0 -4 -5q2 -5 -7 -20q-8 -16 -8 -27q0 -15 -6 -25q-6 -14 -6 -17q0 -5 -4 -13q-1 -2 -9 -23q-3 -13 -14 -26l-8 -10q2 0 6 4t19.5 9t21.5 5q5 0 10 9
q4 8 11 9t57 2q17 0 20 -3q2 -4 19 -6q31 -4 52 -17q13 -8 23 -7q9 1 17 -8q8 -10 14 -10q4 0 10 -8q4 -7 7 -7q4 4 16 -15q4 -6 7 -5q3 0 3 -9q0 -11 9 -20q24 -27 24 -88q0 -69 -36 -125q-8 -11 -10 -18q0 -7 -7 -9q-9 -6 -22 -19q-50 -47 -112 -60t-127 11
q-32 12 -66.5 36.5t-50.5 46.5q-14 17 -25 47q-10 25 -14 73q-3 47 2 64q4 21 1 32q-6 28 6 40q13 15 13 42q-1 5 2 14q6 12 8 19q5 12 13 20q7 9 9 23t6 18q5 3 5 8q0 4 17.5 38t23.5 41q10 7 12 8t11 14q4 10 15 23q8 8 14 18q5 9 9 9t4 3q0 2 19 15q18 10 25 19q5 7 8 7
q2 0 8 6q7 7 25.5 16.5t22.5 7.5t12 2q29 20 69 24zM272 322q0 2 -3 2q-31 -3 -50 -15q-26 -16 -29.5 -17.5t-10.5 1.5q-6 3 -11 -2q-4 -6 -1 -16q4 -9 -1 -15q-6 -6 -9 -16t-11 -12q-7 -1 -6 -20q0 -20 -3 -21q-3 -2 -2 -41.5t4 -49.5q2 -6 17 -7t17 -10q1 -3 2 -9t2 -9
q1 -5 1 -5.5t-3 3.5q-5 6 -8 -3l-4 -7l13 1q10 2 12.5 0.5t5.5 -8.5q3 -9 12 -18q5 -6 11 -7t34 -2q40 -2 42 -4q5 -4 28.5 8t28.5 21q10 15 11 17q8 9 17.5 24.5t9.5 17.5q0 3 2 3t6.5 28.5t3.5 40.5v19q0 19 -15 49q-4 5 -7 19q-4 15 -24 26q-29 15 -51 21q-31 9 -31 13z
" />
    <glyph glyph-name="seven" unicode="7" horiz-adv-x="494" 
d="M116 676q11 2 100 0q119 -2 152 -6q26 -2 68 -2q42 -1 49 -8q5 -6 4 -16q-2 -10 -4 -12q-3 -2 -3 -8t-5 -13t-1 -14q3 -6 -7 -29q-2 -5 -9.5 -21t-10.5 -22q-2 -4 -4.5 -10.5t-4.5 -10.5l-3 -6q-19 -35 -16 -39q2 -4 -3 -9q-10 -11 -21 -50q-4 -21 -16 -47
q-10 -22 -10 -28q-3 -16 -12 -31q-10 -25 -8 -27q2 -4 -5 -30q-8 -28 -8 -32q0 -17 -19 -63q-5 -12 -16.5 -49.5t-11.5 -41.5q0 -7 -3 -9t-3 -12q0 -19 -15 -56q-5 -12 -10 -12q-6 0 -7 -4q-2 -4 -17 1t-19 11q-4 7 -4 43v37q0 1 2 11q0 6 4 28q5 23 6 40q5 27 8 35
q5 13 5 20q0 4 2 8q4 4 12 30t11 43q1 9 8 35q5 13 5 21q0 14 25 69q5 9 7 34q0 20 7 35q7 12 7 18q0 2 14 16q14 12 15 28q1 4 5 22q4 5 7 19q6 17 7 17q5 6 -7 8q-7 0 -23 1q-127 8 -130 10q-4 2 -26.5 -2.5t-26.5 -8.5q-18 -23 -39 -56q-6 -9 -17 -20q-14 -16 -12 -19
q1 -4 -9 -11q-9 -5 -13.5 -4.5t-20.5 10.5q-18 11 -7 35q7 14 10 50q2 17 7 27q4 10 4 14q0 7 11 26.5t16 21.5q4 2 13 8q5 5 16 7z" />
    <glyph glyph-name="eight" unicode="8" horiz-adv-x="524" 
d="M259 690q48 9 66 4q7 -2 20 -5q17 -3 46 -31q4 -4 13 -6q6 -2 12 -9q4 -9 13 -9q18 0 26 -50q12 -61 -4 -89q-7 -11 -7 -17q0 -7 -15 -22q-32 -37 -32 -48q0 -10 -26 -16q-16 -3 -32 -19q-8 -13 -3 -14q8 0 34 -12.5t33 -19.5q7 -5 7 -11q0 -3 2 -3q9 1 14 -12
q3 -10 9.5 -19.5t11.5 -9.5q11 0 30 -35q23 -40 33 -43q6 -3 7 -5q2 -4 2 -16t-3 -18q-4 -8 -4 -29q0 -22 -8 -37q-9 -17 -11 -25q-2 -9 -17 -24q-14 -15 -13 -26q0 -11 -10 -18q-51 -38 -143 -38q-60 1 -84 16q-14 7 -20 7q-13 0 -63 23q-4 2 -13.5 6.5t-12.5 5.5
q-50 18 -76 97q-10 29 -9 59q1 29 10 43q8 11 8 17q0 4 31.5 35t49.5 47q10 8 10 13q0 4 12.5 10t20.5 7q8 0 11 5q5 5 0 6q-16 8 -34 37q-16 23 -19 26q-20 26 -28 61q-12 43 -3 71q3 7 10 30q9 26 18 38q8 13 27.5 27t34.5 19q16 7 16 8q0 10 52 18zM293 635
q-14 10 -21.5 11t-20.5 -7q-11 -8 -19 -8q-6 0 -16 -24t-8 -48q1 -21 6.5 -51.5t9.5 -35.5q3 -5 9 -24q5 -19 8 -19q4 2 19 -12l16 -13l14 9q14 10 14 12q0 3 12 10q12 9 14 17t13 30l10 22l-3 36q-2 37 -1 38q1 3 -2 3q-4 0 -19 15t-16 21q-2 7 -19 18zM261 309q-2 5 -9 9
q-7 3 -14 -4q-6 -8 -10 -8t-21 -14q-35 -26 -47 -52q-3 -6 -13 -18q-12 -15 -7 -34q5 -12 5 -30q0 -19 7 -40q7 -22 28 -41q20 -20 22 -20q3 0 15 -12q13 -11 20 -13q9 -2 15 -6q10 -6 75 6q38 6 61 17q14 9 17 47q2 22 4 27q4 4 3.5 12.5t-4.5 11.5q-4 4 -2 6q0 6 -7 16
q-8 16 -8 19q0 6 -12.5 19t-19.5 14q-7 0 -15.5 10t-6.5 15q2 8 -59 48q-15 9 -17 15z" />
    <glyph glyph-name="nine" unicode="9" horiz-adv-x="464" 
d="M202 678q31 3 59 0q62 -10 122 -54q42 -29 60 -75q12 -27 15 -69q3 -45 -1 -64q-4 -20 -2 -24q3 -9 3 -19q2 -13 -5 -22q-12 -13 -13 -41q-2 -11 -3 -12q-2 -2 -2 -8q0 -12 -16 -29q-8 -8 -8 -21q-2 -15 -6 -18q-5 -8 -5 -9q0 -4 -12 -29t-20 -37q-10 -14 -16 -17
q-7 -4 -9 -10q-2 -8 -5 -8t-3 -4t-8 -14q-2 -3 -8 -10t-8 -9q-16 -16 -26 -22q-2 -2 -15.5 -12t-19.5 -15q-31 -26 -46 -26q-7 0 -25 -9q-27 -14 -62 -18l-23 -2v13q0 8 3 11.5t15 10.5q22 12 39.5 26.5t70.5 63.5q34 32 36 38t11.5 11t14.5 3q6 -3 3 3q-2 6 6 20q7 14 7 26
q0 21 10 31q2 2 2 10q0 9 6 15q5 5 3 9q-2 3 2.5 13.5t11.5 18.5l6 8l-13 -6q-16 -7 -23 -8q-10 -2 -14 -9t-9 -9q-8 -2 -40.5 -2t-35.5 2q-3 4 -27 8q-21 3 -38 13q-13 9 -21 7q-7 -1 -18 7q-15 13 -19 15q-10 8 -19 17q-10 10 -14 10t-2 9q2 8 -7 17q-21 21 -24 77
q-1 29 7 60q9 40 27 67q9 13 7 17q-2 2 6 6t26 22q52 47 112 56zM218 608q-9 0 -13 2q-3 2 -25 -9q-22 -9 -30 -23q-6 -13 -9 -13q-2 0 -5 -6q0 -5 -12 -21q-14 -19 -18 -71q-2 -32 13 -66q10 -23 11 -30q1 -8 27 -21q31 -15 49 -19q23 -6 23 -9t16 -1q15 1 40 17
q28 18 33 11q1 -3 8 2q5 7 2 13q-3 8 5 25q9 17 14 20q7 2 8 77q0 33 -3.5 42t-16.5 9q-12 0 -14 4q0 1 -1.5 6.5t-2.5 8.5q-5 13 -1 13q1 0 3 -3q2 -5 6 4q2 5 1.5 5.5t-8.5 -1.5q-18 -4 -18 2t-8 17l-8 13l-28 1q-33 0 -38 1z" />
    <glyph glyph-name="question" unicode="?" horiz-adv-x="479" 
d="M238 720q25 4 28 3q2 -1 31 -3q27 -2 36 -11q26 -22 44 -22q7 0 11 -10t19 -23q11 -10 19 -23q4 -9 6 -9q3 0 7.5 -11.5t4.5 -18.5t9 -14q10 -6 11 -23q5 -39 9 -45q3 -3 1 -12q-9 -35 -20 -50q-4 -8 -2 -10q2 -3 -3 -8t-10 -5q-4 0 -15 -24q-10 -22 -16 -25q-4 -2 -2 -5
q0 -5 -6 -9q-21 -25 -20 -32q0 -7 -7 -8q-8 -3 -13 -24q-6 -21 -9 -24q-2 -2 -2 -7q2 -3 -4 -16q-16 -32 -9 -43q4 -5 -5 -13q-8 -8 -16 -5q-8 1 -13 -5q-12 -17 -58 -17h-25l-5 12q-8 19 3.5 77.5t27.5 80.5q5 7 5 12t31 36q54 57 54 63q0 1 6 9q18 15 14 34q-1 7 3 10
q12 6 -6 41q-8 20 -8 21t-8 21q-8 17 -38 45q-28 27 -33 22q-3 -5 -35 -10q-26 -5 -35.5 -9t-11.5 -14q-3 -12 -14 -33t-17 -27q-8 -6 -14 -5t-6 -4q0 -3 3 -4q3 -2 5 -13q0 -7 7 -30q10 -26 2 -40q-4 -10 -17.5 -21t-20.5 -11q-11 0 -43 33q-17 17 -27 37t-8 31q2 8 -1 16
q-5 16 21 41l11 10l-8 5q-9 3 -7 13q3 16 31 35q15 11 20 17q31 33 138 51zM312 114q2 2 9.5 -2.5t7.5 -7.5q0 -5 -5 -15q-3 -7 -2.5 -9.5t6.5 -5.5q18 -9 15 -41q-2 -19 -5 -24t0 -17q2 -12 -5 -16q-19 -13 -73 0q-22 4 -38 4q-27 -1 -27 9q1 1 2 3q5 4 0 6q-3 3 -3 8
t-4 15q-5 9 -4 34.5t7 33.5q12 19 82 22q36 2 37 3z" />
    <glyph glyph-name="A" unicode="A" horiz-adv-x="838" 
d="M477 711q12 11 19.5 10.5t16.5 -12.5q9 -13 9 -25q-2 -13 5 -18q5 -5 3 -11q-1 -5 3 -5q5 0 5 -5t5 -5q4 0 4 -6q0 -5 6 -15q6 -8 4 -18q0 -11 5 -13q5 -3 -2 -7q-6 -4 -3 -8q3 -5 -12 -20l-17 -16l13 7q13 6 25 0q13 -6 13 -9t4 -5q10 -4 -4 -18l-10 -10q6 -1 12 -1
q12 0 12 -4t4 -6q4 -4 2 -7q-3 -3 3 -3q12 0 -3 -11l-2 -2l-11 -6h12q14 0 19 -14q3 -6 -3 -3q-4 1 -9 -1q-4 -4 2 -10q6 -8 9 -5q3 2 3 1q1 -4 -5 -9q-5 -3 2 -9q6 -6 4 -7q1 -2 4 -2q4 0 1 -7q-3 -5 -1.5 -7.5t12.5 -7.5q5 -3 5 -8q0 -6 5 -3q4 1 4 0q1 -2 -5 -9
q-6 -6 1 -10q8 -5 9 -7l8 -4q4 -1 -3 -9l-6 -8h8q7 0 9.5 -4t6.5 -18t7 -23q7 -19 8 -30q1 -12 1.5 -14.5t4.5 -2.5q5 0 4 -6q-2 -6 2 -10q4 -2 6 -11q1 -7 8 -16q6 -8 8 -15q3 -8 5 -8q3 0 5 -11q4 -23 12 -23q6 0 3 -5q-7 -14 2 -33q3 -6 6 -4q2 1 2 -3q1 -3 1 -8
q0 -13 9 -21q7 -7 11 -7q1 0 17 -10q13 -10 24 -12q7 -1 8 -4t1 -16q0 -18 -4.5 -23t-21.5 -3q-7 1 -30 4q-14 3 -27 -1q-15 -5 -99.5 -5.5t-87.5 4.5q-1 2 -11 5q-17 0 -17 25q0 8 3 10.5t18 8.5q6 2 16.5 6t13.5 5q8 4 6 11t2 7q11 0 14 19l2 11q1 5 1 11q3 21 -18 44
q-3 4 -13 19q-5 12 -11 12q-14 0 2 14q7 8 7 18t-7 10t-7 -10q-1 -10 -10 -13q-9 -4 -35.5 -5t-43.5 2t-30 3q-19 0 -19 19q0 5 -1 7t-3.5 0t-4.5 -7q-3 -8 -12.5 -10.5t-35.5 -2.5q-54 0 -112 -15l-21 -4l-11 -23q-12 -21 -12 -26q0 -3 -3 -5q-2 0 -4 -18l-2 -18l16 -21
q28 -33 48 -33q5 0 2 -4q-4 -4 5 -8t12 -12.5t-1 -17.5q-6 -14 -26 -20q-13 -3 -48.5 -1.5t-45.5 5.5q-6 3 -82 3q-54 1 -65 2t-14 5q-6 6 -3 20q2 14 3 15q2 2 24 4q26 4 31.5 6t5.5 7t-6 17q-11 18 5 23q11 4 26 25.5t13 29.5q0 5 6 7q5 3 16.5 26.5t11.5 30.5t8 21
q7 15 6 16v2q1 2 4.5 7.5t4.5 7.5q10 18 9 29q0 10 1.5 12.5t9.5 5.5q10 3 10 9q0 5 3 7t5 12q7 36 14 36q3 0 3 6.5t-3 8.5q-6 2 4 6q7 4 12 18q8 34 15 44q12 16 6 19q-7 6 9 10q8 2 11 6t9 23q8 23 13 31q5 5 3 9q0 4 5 11q8 8 14 21.5t4 19.5q-2 9 6 11q8 3 16 3
q7 0 7 3t38 31.5t42 28.5q5 0 5 3q0 4 17 11q16 7 28 19zM397 504q-4 4 -6.5 5.5t-4 2t-2 -0.5t-1.5 -4q-6 -22 -33 -64q-6 -10 -6 -16q-2 -9 -7 -14q-5 -7 -4 -10q2 -2 -2 -17q-11 -30 -5 -30q3 0 1 -2q-1 -1 -2 -1q-7 -3 -14 -2q-4 1 -5.5 -0.5t-3.5 -8.5q-2 -10 -6 -14
q-5 -3 -5 -11q0 -6 -5 -13q-9 -13 -2 -13q1 0 3 1q6 2 45 2q31 1 40.5 -1.5t9.5 -11.5q0 -5 15.5 -6t19.5 4t33 5q28 0 30 5q1 4 18 3q13 -2 12 1q-4 2 -2 7q3 3 -4 8q-8 5 -6 11q2 5 -1 8q-1 0 -0.5 3.5t2.5 6.5q7 13 -5 13q-5 0 -10 5.5t-5 10.5q0 4 -6 10t-15 22
q-9 17 -5 27t1.5 14t-10.5 2q-5 -1 -11 0.5t-9.5 4t-2.5 4.5q2 4 -6 12q-8 9 -9 21q0 11 -9 21z" />
    <glyph glyph-name="B" unicode="B" horiz-adv-x="792" 
d="M105 673q124 8 192 -1q22 -4 43 -2q22 2 26 -2q7 -2 60 -4q64 -1 90 -8q78 -21 97 -30q11 -5 33 -12q19 -5 38 -26q24 -26 38 -63q14 -39 14 -71q0 -17 -12 -39t-27 -33t-15 -14q0 -2 -12 -8l-12 -5l17 -6q58 -19 88 -51q21 -22 24 -90q1 -44 -3 -60q-4 -13 -4 -35
q2 -15 -1 -18q-3 -2 -2 -6q1 -3 -6 -8q-9 -5 -8 -11q0 -2 3 -2t3 -3q0 -4 -11 -2q-11 1 -12 -6q-4 -7 -7 -7q-4 0 -4 -4q0 -7 -13 -15.5t-23 -8.5q-8 0 -8 -7q0 -13 -31 -18q-4 -1 -10 -2t-9.5 -2t-5.5 -1q-33 -6 -229 -8q-22 0 -28 3q-7 2 -13 -2q-5 -5 -28 -2
q-24 2 -30 -3q-21 -16 -50 4q-10 7 -16 8.5t-29 0.5q-34 0 -57 -5q-30 -4 -45 -3q-18 1 -30 -2q-9 -4 -34 -3.5t-26 4.5q-2 3 -5 3q-4 0 -6.5 10.5t-0.5 17.5q4 11 59 33q70 28 79 42q9 20 9 89q2 50 4 54q2 6 2 37q-1 32 5 52q12 33 4 67q-2 5 -4 13.5t-3 11.5q-1 6 1 24
q4 14 -3 26q-7 21 -12 42q0 1 -0.5 4t-1.5 8t-1 8q-1 10 -8 31q-6 16 -6 25q0 8 -2.5 10.5t-15.5 6.5q-20 8 -48 9q-62 3 -70 11q-5 4 -4.5 14.5t7.5 20.5q7 9 17.5 11t88.5 8zM450 594q-26 6 -67 7.5t-57 -3.5q-4 -1 -1 -6q4 -4 -1 -9t-8 -5q-4 0 -1 -20q2 -20 2 -43
q2 -25 3 -27q2 -5 1 -11q-6 -25 -6 -43q-1 -18 5 -24q8 -7 0 -15q-4 -6 -3 -7q5 -4 77.5 -5t124.5 3q10 1 13.5 1.5t7 2t5 3t4.5 6.5q10 17 17.5 43t3.5 31q-3 3 -7 18q-3 15 -12 22q-11 9 -23 26.5t-12 23.5q0 8 -20 16q-24 9 -46 15zM450 320q-12 7 -16 3q-2 -2 -61 -2
h-60l2 -53q0 -52 3 -55q2 -3 -2 -16q-2 -13 -1 -13q2 0 -2 -4q-4 -5 -2 -21t7 -20t2 -12q-5 -8 0 -17q13 -21 32 -24q39 -6 47 -11q7 -3 11 1t5 -3q1 -6 5 -6q5 2 43 -2q71 -5 86 1q11 6 23 11t15 8q6 6 11 8q9 4 15 13q5 8 5 10.5t-5 9.5q-6 9 -1 14q4 4 0 9q-5 5 -4 23
t6 26q6 8 12 10t2 6q-6 3 -7 25q-1 12 -1 26q-2 3 -7 3q-15 0 -25 10q-2 2 -12 8q-13 6 -19 14q-6 7 -13 8.5t-40 4.5q-37 1 -54 7z" />
    <glyph glyph-name="C" unicode="C" horiz-adv-x="702" 
d="M378 701q3 3 8 0.5t7 -7.5q2 -6 7 -6q95 -4 122 -18q16 -8 25 -8q15 0 34 -3.5t23 -7.5q17 -15 48 3q26 15 37 -3q16 -31 6 -43q-5 -5 -1 -9q3 -4 3 -14t-3 -10t-1 -8q1 -8 -6 -13q-16 -9 -27 -52q-3 -13 -8 -18q-4 -4 -2 -8q0 -6 -5 -14q-12 -22 -6 -30q4 -5 -2.5 -9.5
t-14.5 -2.5q-9 2 -11 -2q-1 -3 -15 -3t-24 3l-11 4l-3 38q-2 42 -2 45q0 9 -9 16q-7 9 -7 13q2 2 -8 16q-10 16 -10 18q0 4 -2 4q-3 0 -6 10l-3 10h-43q-42 1 -46.5 1.5t-5.5 7.5q-1 5 -6 6t-33 0q-36 0 -41 -7q-4 -6 -11 -6q-29 0 -66 -24q-21 -14 -21 -17q0 -4 -19 -23
q-19 -21 -19 -24q0 -4 -4 -8q-5 -5 -4 -31q0 -27 -2 -27q-3 0 1 -4t2 -4q-1 0 -3 1q-3 1 -4 -1.5t-1 -11.5q0 -15 -8 -33q-15 -29 -8 -59q2 -14 -2 -29q-5 -18 0 -27t3 -17q-1 -7 6 -25q8 -14 10 -26q2 -8 6 -19q5 -10 5 -21t11 -16q10 -4 39 -34q5 -5 23 -16t22 -11
q3 0 24 -15q18 -14 39 -22q21 -7 60 -6q50 2 89 24q8 4 24 20t16 20q0 12 22 30q13 9 13 13q0 14 12 22q5 4 6 19t-3 22q-4 8 2 17q10 18 45 15q22 -2 29 -15.5t6 -51.5v-23q0 -51 -10 -84q-7 -21 -3 -28l1 -7q-3 0 -3 -11q0 -17 -15 -17q-7 0 -13 -6q-4 -6 -18 -6
q-13 0 -31 -7q-17 -5 -49 -11.5t-34 -5.5q-1 1 -22 -3q-24 -6 -65 -6q-47 -1 -93 8q-15 3 -22 -3q-11 -10 -31 -1q-12 7 -23 7q-9 0 -11 3q-2 2 -24 9q-21 7 -25 11q-3 5 -9 5q-5 0 -19 14q-12 14 -21 14q-7 0 -7 8t-4 8t-34.5 18t-38.5 25q-10 10 -11 15q-3 7 -7 7
q-6 0 -24 42q-7 14 -13 16q-7 2 -6 11.5t8 16.5l8 7l-8 25q-8 25 -10 51q-2 25 -4 32q-4 4 0 31q7 62 1 72q-5 7 2 21q6 13 11 15q4 2 2 7q0 6 7 25q8 20 8 25q0 6 5 8q5 3 5 6t7 7q9 5 10 14q2 9 5 9q2 0 18 23q19 25 25 30q10 8 17 15q15 12 34 19q26 12 33 19
q6 7 29.5 16.5t41.5 11.5q24 4 28 5q7 2 12 -3q4 -4 29 0q24 3 29 6q2 0 8.5 1.5t10.5 1.5q14 2 15 3z" />
    <glyph glyph-name="D" unicode="D" horiz-adv-x="864" 
d="M280 684q25 3 56 1q42 -2 102 -2q62 0 70 -4q7 -3 27 -7q2 0 17.5 -3t21.5 -4q15 -3 24 -3q5 0 11 -6q4 -6 12 -6q10 0 58 -23q16 -9 27 -20q13 -13 20 -13q6 0 6 -6q0 -5 28 -23q32 -18 59 -48q5 -5 11 -19q2 -4 6 -13t6 -12q5 -13 12 -15q6 -1 5 -10q-4 -11 -10 -15
l-7 -7l6 -18q4 -15 8 -58t2 -53q-4 -14 -5 -38t1 -30q7 -15 -7 -29q-7 -9 -7 -10q2 -3 -7 -22q-7 -18 -7 -23t-15 -18q-14 -16 -14 -19q0 -5 -4 -6t-17 -20q-13 -20 -23 -27q-15 -13 -17 -14q-6 -6 -14 -9l-7 -3.5t-13.5 -6t-14.5 -6.5q-27 -14 -39 -12q-10 0 -58 -11
q-45 -12 -60 -12q-12 0 -17 -9l-6 -9l-96 1h-48.5t-41 0.5t-16.5 0.5q-11 0 -18 7q-4 5 -13.5 6t-52.5 1q-60 0 -68 -2q-11 -2 -58 -4q-44 -2 -55.5 1t-10.5 13q2 9 -3 11q-4 2 -4 8t5.5 15.5t8.5 9.5q1 0 4.5 0.5t9.5 1.5t11 1q25 4 54.5 21t30.5 29q1 1 1.5 5.5t0.5 6.5
q0 7 3 7t1 6t5 13q8 5 4 11q-3 6 2 14t1 19q-5 12 -2 40q3 49 -2 61q-3 8 0 25q4 18 -3 33q-7 17 -7 37q0 22 -4 22l1 4q4 5 -1 23q-4 17 -6 19q0 10 3 21q4 19 0 23q-3 4 2 7q4 3 0 7q-2 2 -3 6.5t-0.5 8t2.5 3.5q2 1 2 5t-2.5 10.5t-5.5 9.5q-6 6 -8 15q-1 6 -6 11
q-3 2 4 9q12 13 2 27q-5 7 -16 11.5t-46 12.5q-44 10 -52 19t8 31l10 16l67 -1q66 -1 95 -6t47 0q21 6 37 8zM411 622q-2 3 -37 -2t-39.5 -9.5t-4.5 -31.5q0 -29 -2 -41q-2 -11 2 -17q2 -6 -1 -8q-7 -5 -4 -40q2 -9 -2 -21t2 -16q9 -11 -7 -23q-5 -5 -5.5 -8.5t2.5 -21.5
q5 -25 2 -33q-4 -9 3 -14q7 -6 0 -46q-2 -12 -1 -13l1 -7v-12q1 -16 8 -20q12 -8 -1 -24q-6 -9 -5 -16q3 -7 3 -16.5t-3 -11.5q-3 -3 2 -5q4 -3 3 -9q-2 -6 3 -13q5 -8 3 -10q-4 -4 16 -27t25 -21q3 2 8 -3q7 -5 34 -5q30 -1 33 -7l2 -4t1 -3l20 2q21 2 43.5 5t27.5 4
q8 2 23 13q16 12 46 43.5t34 39.5q5 11 8 60t-1 66q-2 11 4 27q7 18 2 27q-5 8 -3 16q2 6 -5 18q-7 15 -10 25q-3 13 -8 20q-5 10 -8 23q-3 16 2 25q4 5 3.5 8t-7.5 10q-10 10 -10 14q0 3 -12 10q-24 20 -25 21q-12 10 -22 18q-9 5 -16 16q-16 21 -68 32q-57 13 -59 16z
M759 313q-1 9 -4 11q-3 1 -4 -4q-1 -3 -1 -6q0 -11 6 -11q4 0 3 10z" />
    <glyph glyph-name="E" unicode="E" horiz-adv-x="780" 
d="M487 688q11 1 24 1q24 0 25 -5q0 -6 35 -8q55 -2 86 2q43 5 43 -4q0 -2 6 -2q4 0 3 -16q-1 -13 1 -20t18 -39q13 -26 13 -32t5 -6q4 0 6 -11q4 -13 13 -22q11 -12 10.5 -20.5t-14.5 -22.5q-28 -27 -42 -22q-5 2 -22 15q-13 14 -21 16q-7 2 -7 5q0 2 -20 22q-21 21 -26 31
t-17 16q-10 5 -15 10q-4 5 -42 5q-37 0 -52 5q-17 5 -78 3q-37 -1 -51 -8q-14 -6 -17 -6q-2 0 -3 -4t0 -10t4 -9q6 -9 -5 -57q-4 -18 -7 -54.5t-3.5 -61.5t2.5 -27q4 2 24 2q20 -1 26 -7q7 -7 10 1q6 11 60 10q36 -2 45 3q32 15 51 57q8 18 13 22t15 2q7 -1 15.5 -9t8.5 -13
q0 -4 -11 -35q-10 -28 -14 -53q-5 -24 1 -48q2 -7 -2 -13q-3 -6 0 -10q4 -4 4 -10q0 -5 8 -17q9 -9 6 -18q-3 -15 -3 -16q-2 -15 -18 -21q-14 -4 -34.5 20t-27.5 52q-4 14 -11 14q-5 0 -15 4q-7 5 -43 1q-30 -3 -75 -3q-40 0 -37 -3q3 -6 3 -55q0 -43 3 -64q3 -11 3 -22
q0 -10 8 -20q8 -9 25 -9l17 1v-13q0 -10 2 -12t7 3t27 2q19 -3 26 -1q3 0 10 -5q12 -12 18 -3q1 3 16 1q12 -2 20 2q7 3 10 -3q5 -6 10 2q12 13 64 18q21 3 29 9q10 8 12 8q5 0 11.5 7.5t6.5 13.5q0 7 3 7q4 0 11.5 17.5t6.5 22.5q-3 7 2.5 10.5t16.5 1.5q6 -1 13 -3
t13.5 -4t11.5 -4.5t8.5 -4t2.5 -2.5q-2 -2 5 -6q8 -4 9 -5q-2 -5 -6 -9q-6 -9 -4 -19q1 -11 -8 -21q-10 -12 -15 -24q-5 -13 -15 -29q-10 -20 -7 -34q2 -7 -4 -17.5t-12 -10.5q-16 0 -16 -7q0 -3 -5 -6q-6 -2 -25 -2t-23 3q-6 3 -8 0t-19 -4.5t-35 0.5q-22 3 -24 0
q-1 -4 -19.5 -4.5t-23.5 3.5q-5 5 -11 5q-7 2 -11 5q-6 1 -6 -5q0 -10 -21 -10q-13 0 -24 3.5t-11 8.5q0 9 -19 1q-9 -4 -151 -2q-52 2 -57 3q-8 3 -18 -2q-7 -4 -27.5 -3.5t-29.5 4.5q-11 3 -30 5q-24 1 -31 8q-6 6 -14 6q-20 0 -20 17q0 12 8.5 17.5t30.5 7.5q31 2 35 3
q10 2 10 -3t11 -3q15 3 15 16q0 7 9 10q9 4 9 6q0 4 9 9q7 4 8 9t3 32q3 56 22 83q11 16 11 18t-14 6l-14 3l1 27q2 14 4 82q1 53 8 86q7 31 5 41t-2 28q-2 44 -10 54q-3 3 -5 9q-2 13 -28.5 29t-45.5 16q-30 0 -30 10q0 4 -17 13q-12 5 -14.5 8t-2.5 10q0 10 8 21l10 11
l16 -4q15 -3 45 -3q19 0 23 1.5t6 6.5q1 5 4 6t14 -1q11 -1 25 -4q6 -3 13 -1q4 2 4 -2q0 -7 42 3q21 4 41 7q15 2 17 -4q1 -6 4 -6q2 0 3 3q2 5 17 -1q16 -4 27 0q7 3 25 5q10 0 12 -1t2 -6q1 -7 14 -5q14 2 16 6q7 7 48 10z" />
    <glyph glyph-name="F" unicode="F" horiz-adv-x="739" 
d="M516 689q1 1 2.5 0.5t2.5 -3t1 -5.5q0 -5 2.5 -7t5.5 0q3 3 38 0q36 -4 71 -2q37 0 38 -5q2 -5 7 -5q4 0 3 -22t10 -45q10 -22 10 -27q0 -6 3 -6q5 -2 5 -8q4 -23 11 -23q3 0 3 -5q0 -4 3 -4q2 0 2.5 -5t-0.5 -11.5t-4 -11.5q-4 -9 -15 -18.5t-18 -11.5q-8 -2 -20 8
q-9 8 -16 19q-4 9 -9 9t-20.5 13t-17.5 19t-9 13q-8 6 -7 13q2 8 -5 9q-2 1 -7 4t-6 3q-6 6 -50 7q-44 2 -50 6q-9 4 -71 2q-76 -3 -72 -27q1 -5 5 -10q7 -9 -4 -55q-9 -37 -11 -114v-26l22 1q21 2 28 -5q9 -11 12 0q3 12 61 8q33 -1 43 5q34 17 48 53q8 18 14.5 23t17.5 1
q10 -5 16 -11q7 -8 -11 -56q-10 -31 -10 -67q-1 -58 14 -73q6 -5 3 -13q-4 -8 -4 -17q-1 -10 -9 -16q-9 -7 -19 -2q-15 7 -29.5 27t-20.5 42q-3 13 -7 13q-4 -1 -15 4q-9 4 -43 2q-95 -6 -104 -4t-9 0q-1 -1 1 -4q2 -4 2 -53q2 -58 4 -67q1 -4 2 -10t2 -9.5t1 -5.5
q1 -7 7.5 -14.5t11.5 -7.5q6 0 9 -7t11 -6q4 1 5.5 -1t2.5 -8q2 -8 13 -20t15 -11q3 2 6 -1q2 -4 16 -2q16 0 18 -2q8 -3 24 -4q17 -1 20.5 -5t3.5 -21q0 -12 -5 -15.5t-22 -3.5q-15 0 -20 -6q-4 -4 -24 -3q-20 2 -24 6q-5 4 -21 0q-13 -4 -68 -2q-54 2 -58 1q-28 0 -56 -1
q-27 -1 -56 -1q-10 -1 -55.5 3t-48.5 6q-4 4 -4 9t-5 8q-5 1 -4.5 11.5t5.5 17.5q5 6 40 11q34 3 35 0t3.5 -4t4.5 0.5t2 3.5q0 4 8 6q8 3 7 7q0 4 10 11l11 8l2 40q2 36 6.5 53t16.5 33q11 14 11 17q-2 2 -14 4l-12 3v32q4 127 10 155q6 34 2 78q-2 44 -21 72
q-6 8 -27 17.5t-40 12.5q-20 1 -27 10q-8 8 -20 13q-22 10 -12 29q6 13 12 16t18 0q14 -3 43 -3.5t29 2.5q0 4 4 8q3 5 21 3q18 -4 26 -4q9 -2 10 -3q7 -7 41 2q11 3 24.5 5t23 1.5t9.5 -3.5t11 -2q12 2 16 -1q12 -5 30 1q16 4 18 3l5 1q5 4 8 1.5t3 -9.5q0 -5 2 -5.5t9 0.5
q3 1 5.5 1.5t4 0.5t1.5 -1q0 -3 4 3q8 11 70 14q37 2 38 3z" />
    <glyph glyph-name="G" unicode="G" horiz-adv-x="755" 
d="M400 710q3 3 7.5 0.5t6.5 -7.5q3 -9 47 -9q18 0 46 -5.5t39 -11.5q12 -6 42 -9q29 -3 37 -8t23.5 -6t20.5 3q13 11 30 11q14 0 21 -29q6 -19 0 -22q-5 -4 -1 -10q3 -6 2.5 -16t-3.5 -10q-2 0 0 -7t-9 -16q-8 -8 -16 -25t-8 -25q0 -2 -6 -14q-7 -10 -5 -13q2 -4 -3 -10
q-6 -8 -8.5 -19.5t0.5 -15.5t-1 -7q-7 -6 -33.5 -8t-37.5 3q-6 2 -7.5 8.5t-3.5 41.5q-2 46 -8 51q-7 5 -7 11q-2 13 -15 28q-6 6 -6 10t-3 4q-1 0 -5 10l-3 10h-45q-46 0 -49 3q-4 2 -4 9q0 4 -5 5t-31 0q-35 -1 -43 -8q-6 -6 -28 -9q-39 -7 -65 -33q-10 -10 -27 -29.5
t-17 -21.5q0 -4 -5 -9q-6 -6 -6 -34q0 -29 3 -31q3 -3 -2 -3t-5 -13q0 -11 -10 -33q-9 -17 -9 -54v-50q0 -40 7 -50q8 -16 10 -32q2 -8 7 -17q4 -10 4 -16q0 -22 11 -22q5 0 22 -15.5t17 -19.5q0 -3 13 -9q11 -6 21 -13q8 -6 13 -6t25 -16q20 -14 45 -23q27 -8 58 -7
q32 2 45 7q71 30 87 66q6 14 12 20q5 4 -1 7t-3 7q2 2 2.5 9.5t-0.5 14t-2 6.5q-7 0 -11 31q-1 10 -4.5 13.5t-19.5 11.5l-22 11l-52 -1l-53 -1l-5 8q-4 8 -1 20q4 13 8 17q6 5 55 8.5t95 2.5q140 -2 160 8q7 3 15 -3q6 -4 7 -7t0 -14q-2 -17 -6 -23.5t-14 -8.5
q-11 -3 -11 -8q0 -7 6 -11q6 -3 -4 -7q-19 -8 -20 -14q-1 -4 2 -4q2 0 9 1l9 -1q-4 -3 -4 -7.5t3 -5.5q8 -6 -7 -11q-2 -1 -5 -1q-7 -1 -8 -3q-1 -1 1 -3q4 -4 8 -4q5 0 1 -9q-2 -3 -4 -4q-4 -4 -7 -38q-7 -44 -11 -54q-7 -18 -1 -24q4 -5 2 -7q-4 -2 -2 -9q2 -6 -3 -13
q-5 -3 -5 -8q0 -4 -7 -16.5t-12 -18.5q-12 -14 -45 3q-16 8 -44 8q-26 1 -40 -5q-19 -10 -84 -17q-15 -1 -58.5 3t-54.5 8q-7 4 -15 -4q-12 -12 -30 -2q-12 7 -20 7q-9 0 -26 7q-16 8 -22 8q-3 0 -15 8q-11 8 -13 6t-17 14q-18 16 -24 15q-4 -1 -5 1t-2 7q-2 9 -5 9
q-4 0 -33.5 17.5t-37.5 25.5q-11 8 -14 16q-2 6 -6 6q-5 0 -12 15q-17 40 -27 45q-7 2 -5 12q2 9 10 15q7 7 4 17q-4 12 -6 15q-4 8 -7.5 33t-2.5 34q2 10 -2 16q-4 4 -1 31q8 68 1 74q-8 8 5 29q9 13 11 22q2 13 10 33t11 21q3 2 3 6t3 4q4 0 10 7.5t6 11.5q0 5 4 7
q6 3 19 24q17 24 26 31q7 5 18 16q6 6 33 17q28 14 32 19q6 6 25 14.5t27 8.5q5 0 8 3t18 3q18 2 21 4q6 3 12 -2t26 -1q67 9 71 13z" />
    <glyph glyph-name="H" unicode="H" horiz-adv-x="892" 
d="M181 684q10 9 18 8q14 -3 53 -6q60 -8 66 -8q26 -4 57 -6t33 0q3 3 15 3q9 0 12 -4t3 -15q0 -6 -4.5 -9.5t-22.5 -10.5q-49 -21 -64 -32.5t-30 -39.5l-12 -25l1 -60q0 -63 3 -84l2 -25h11q9 0 39 4q39 5 94 3t77 -9q12 -4 26 -4q11 0 39 -7q31 -9 33 1q1 9 -3 11
q-9 5 -3 8q2 1 4 1q8 0 9 15t-7 20q-3 1 -3 31q-2 91 -6 96q-2 4 -2 21q-1 15 -5.5 22t-20.5 18q-22 14 -27 26q-2 6 -18 9q-15 2 -16 9t8 13.5t18 6.5q10 0 15 7q4 5 6 5.5t10 -3.5q10 -5 41 -6t36 4q5 6 104 -7q21 -3 39 1q13 5 33 7q19 1 20 -5q1 -5 10 -5q11 0 14 -3.5
t1 -17.5q-2 -17 -4 -21q-1 -2 -25 -14q-23 -10 -37 -28q-17 -24 -18 -26q-7 -14 -12 -20q-11 -17 -14 -31.5t-2 -47.5q0 -39 4 -59q4 -19 2 -62q0 -45 3 -49q2 -6 2 -85q0 -59 1 -71t7 -19q7 -10 6 -22q-3 -22 6 -22q4 0 4 -4q0 -2 1 -3.5t3 -0.5q4 0 4 -7q0 -4 1.5 -6
t5.5 -1q5 1 6.5 -2t-3.5 -4q-2 -1 5 -5q4 -3 10 -5q29 -14 34.5 -17.5t6.5 -8.5q1 -7 -4.5 -15t-12.5 -8t-7 -3q0 -1 -99 -3q-101 0 -112 -5q-12 -5 -61 -2q-46 4 -56.5 6.5t-11.5 10.5q-2 21 11 21q5 0 9 6q2 6 23 15q40 18 48 47q4 16 2 18q-4 2 0 8q4 7 5 37t-3 34
q-3 4 0 6t5 24q2 21 4 32t-1 14q-4 5 2.5 12t12.5 5q8 0 12 5q0 2 -14 0q-11 -2 -32 0q-19 3 -60 5q-48 4 -97 15q-60 13 -107 4q-19 -4 -21 -11q-2 -6 -3 -48.5t1 -70.5q2 -24 8 -32t8 -26q2 -16 5 -19t3 -10t23 -31t28 -22q6 2 7 -6t-2 -18l-3 -13l-57 3q-52 2 -107.5 1.5
t-59.5 -4.5q-3 -3 -38 -3q-31 1 -47 -4q-29 -11 -43 3q-6 6 -2 17.5t15 19.5q14 10 16 11l6 4q6 4 11 6q13 6 35 25t24 25l3 7q4 7 6 12q8 13 7 33q-4 101 5 128q6 19 -2 35q-5 9 -3 48q1 8 1.5 19.5t1.5 18.5t1 9q1 6 -1 11q-4 4 2 11q4 8 -1 9q-7 3 -9 24q-2 24 -2 33
q0 12 -3 12q-2 0 0 16q1 17 -4 20q-5 4 -4.5 5.5t6.5 6.5q8 6 10 13q1 4 -0.5 5.5t-9.5 3.5q-16 1 -16 18q0 10 -8 22t-19 19q-15 9 -37 8q-23 -2 -29 4q-4 5 1 15q5 9 9 9t6 6q3 12 34 6q20 -2 45 1q28 3 33 1q2 -2 11 8z" />
    <glyph glyph-name="I" unicode="I" horiz-adv-x="539" 
d="M133 682q7 2 24.5 1t19.5 -3q6 -4 55 -6q12 -2 18 1t60 -3q58 -7 68.5 -7.5t12.5 3.5t42 8t71 2q29 -2 30 -10q2 -14 -16 -32q-5 -5 -28.5 -15.5t-38.5 -14.5q-11 -3 -15 -9q0 -4 -15 -10q-13 -4 -20 -9q-23 -19 -30 -41q-2 -8 -6 -12q-19 -25 -8 -131q3 -28 3 -66
q-2 -33 2 -40q5 -6 3 -46q-2 -42 0 -76q2 -37 8 -41q11 -9 23 -42q3 -4 4 -4q3 4 16 -8q4 -4 5 -6q2 -6 4 -6t15 -9q9 -9 24 -13q13 -4 27 -9q16 -4 17 -5q11 0 0 -23q-5 -11 -12 -18q-5 -7 -30 -5q-32 2 -35 14l-2 5q0 -1 -3 -6q-5 -8 -10 -10q-6 -2 -48 2q-34 2 -80 1
t-59 -5q-10 -4 -52 -1q-39 3 -49 -1q-18 -9 -23 -1q-1 3 -27 3q-24 0 -24 6q0 9 6 19q7 13 16 12q5 -1 7 -0.5t1 3.5q-1 4 17.5 14t28.5 11q14 1 30.5 15.5t24.5 33.5q6 14 14 22q7 11 6 15q-2 5 7 18q6 10 6.5 16t-1.5 29q-3 29 -2.5 85t4.5 81q4 26 4 37q0 17 15 18
q6 0 0 1q-1 1 -4 1l-13 2l-4 23q-1 6 -3 23t-3 24q-2 25 -5 31q-7 14 8 19l7 3h-7q-8 0 -9 9q-5 21 -8.5 27.5t-13.5 13.5q-15 9 -29 11l-24 6q-25 8 -36 15q-6 3 -12 3t-9 3q-5 5 -3.5 18t6.5 13q4 0 10 6q13 11 47 17z" />
    <glyph glyph-name="J" unicode="J" horiz-adv-x="601" 
d="M153 681q6 3 19 3t16 -4q2 -5 18 -1q25 8 62 -1q12 -3 32.5 -3.5t25.5 1.5q6 2 67 -5q62 -8 66 -3q7 10 91 10q19 0 27.5 -0.5t14.5 -2.5t4.5 -6t-3.5 -10q-7 -14 -11 -18q-11 -15 -68 -32q-20 -7 -20 -10q0 -2 -9 -2q-26 0 -40 -30q-3 -5 -7.5 -15t-6.5 -13
q-6 -13 -3 -18q4 -6 -1 -6t-5 -12q0 -13 -3 -13t-3 -49q0 -51 -3 -63q-3 -13 0 -19q3 -5 -1 -41q-8 -75 3 -91q5 -8 1 -20q-3 -13 0 -32q4 -19 2 -27q0 -9 2 -10q5 -3 0.5 -32t-15.5 -62q-7 -20 -18 -32t-41 -31q-35 -21 -80 -33q-62 -15 -134 -1.5t-108 47.5
q-46 43 -33 123q6 36 25 67q10 16 14.5 20t17.5 8q20 6 44 11q80 16 107 -31q29 -49 -3 -76q-21 -20 -60 -16l-15 1v-25q0 -24 4 -32q4 -6 4 -11t13 -15.5t23 -14.5q15 -6 39.5 6.5t44.5 36.5q14 16 14 22q0 5 7 12q6 5 4 32q-3 32 -3 69t3 39q4 0 2 22q-2 24 1 41
q3 21 -1 26q-2 7 0 10q2 4 7 46t4 50q-1 9 9 10q8 2 4 3q-15 0 -15 21q0 9 -4 29q-4 18 -4 31q1 13 -4 18q-6 3 1 10q5 7 11 7t11 4q6 3 -4 5q-3 0 -7 1q-17 2 -20 5t-5 20q-1 19 -10 22q-7 5 -18 5t-35 12t-32 22q-7 7 -10 7q-7 0 -7.5 15t5.5 19zM129 147q-13 7 -12 -6
q0 -5 2.5 -7t5.5 -1t5 5q2 6 -1 9z" />
    <glyph glyph-name="K" unicode="K" horiz-adv-x="1182" 
d="M212 679q2 1 50.5 0t56.5 -3q11 -2 54 -2.5t57 1.5q18 3 23 -2t3 -24t-7 -26.5t-18 -7.5t-19 -4q-7 -5 -16 -5q-6 0 -15.5 -6.5t-10.5 -10.5q0 -1 -5 -6q-6 -4 -8.5 -17.5t0.5 -19.5q3 -4 3 -28q-2 -22 1 -27q3 -6 0 -13q-5 -24 4 -69q4 -24 4 -25q0 -3 -12 -3
q-7 0 -9.5 -1t-1.5 -4q2 -4 35 -4t46 4q17 5 34 8q35 6 35 9q0 1 -1 3q-1 6 9 13.5t24 11.5q13 3 15 9q2 4 6 4q5 0 8 10q5 10 8 12q4 4 4 8q0 5 11 16q11 13 11 54v34v31q0 17 8 37t17 25q14 7 128 4q95 -1 107 5q6 4 18 1l20 -4q6 -2 7.5 -4t0.5 -12t-2.5 -13t-9.5 -5
q-48 -12 -75 -27q-14 -8 -18.5 -13t-11.5 -21q-11 -22 -11 -28q0 -5 -4 -13q-4 -6 -4.5 -18t2.5 -15q4 -4 -2 -7q-5 -3 -5.5 -9.5t4.5 -9.5t2 -9t-11 -10q-10 -6 -29 -42q-8 -11 -15 -17q-9 -5 -6 -10q2 -6 -1 -6q-5 0 -8 -4t-1 -7q3 -3 1 -3q0 -1 -2 0q-6 0 -48 -38
q-6 -6 -14 -12l-7 -5h7q6 0 18 -4q8 -4 13 -14t21 -55q16 -46 52 -97q9 -12 61 -64.5t58 -55.5q37 -16 37 -20q0 -1 15 -9q14 -5 19 -10q13 -11 61 -28q61 -18 88 -18q23 0 58 -7t37 -12q4 -6 8 -6q6 0 3 -10q-3 -15 -9 -19.5t-24 -7.5q-46 -9 -170 9q-16 2 -35.5 4.5
t-32 4.5t-15.5 2q-14 2 -38.5 8t-26.5 8q-2 4 -25.5 15t-37.5 16q-51 17 -131 73q-14 10 -17 10q-7 0 -21 11t-22 22q-2 3 -9 13t-10 13q-8 12 -10 27q-3 18 -15 36q-11 15 -19 34q-6 14 -15 19q-8 3 -15 12.5t-5 15.5q1 5 -4 8q-8 2 -9 12q-2 12 -7 15q-25 23 -41 31
q-14 7 -33.5 13t-22.5 4q-2 -2 -1.5 -47t2.5 -49q1 -1 0.5 -7.5t-2.5 -13.5q-9 -45 1 -52q12 -7 3 -16q-3 -3 1.5 -14.5t8.5 -11.5q2 0 2 -5q1 -3 3 -3q3 2 9 -4q15 -15 36.5 -26.5t34.5 -11.5q9 0 21 -10q20 -16 6 -43q-6 -12 -14.5 -14.5t-31.5 1.5q-24 3 -28 0
q-4 -4 -28 -2t-37 -5q-12 -7 -26 -3q-13 4 -23 12q-7 6 -13.5 7t-35.5 -1q-43 -2 -57 -5q-17 -4 -37 -2q-20 1 -36 -4q-15 -6 -20 -4q-6 4 -20 2t-17 3q-2 5 -6 5q-5 0 -5 15q0 11 1.5 15t9.5 9q5 4 39 19q78 30 85 40q6 6 8 19q0 4 3 25q5 38 2 64q-3 23 3 37q5 15 2 30
q-3 18 1 37q4 22 4 26q0 6 3 8q3 3 5 23t0 29q-10 40 -2 65q4 13 -2 31q-5 16 -7 37l-2 20q0 5 -1 12q0 5 -5 30q-4 13 -7 16t-18 11q-24 12 -80 18q-17 2 -21 9.5t3 26.5q6 15 18 18t63 3z" />
    <glyph glyph-name="L" unicode="L" horiz-adv-x="732" 
d="M127 687q46 7 88 -3q12 -3 31 -3q31 0 34 -14q2 -8 6 -8q2 0 5 -0.5t4 -0.5q4 -2 9 7l6 10l30 -2q150 -5 156 -5q8 1 11 -3.5t3 -18.5q0 -11 -3 -15.5t-14 -7.5q-8 -2 -8 -5q0 -2 -23 -7q-50 -11 -93 -38t-39 -45q2 -11 2 -53.5t-3 -52.5q-2 -13 -2 -101t3 -93
q2 -4 2 -40q0 -38 4 -40q5 0 9 -10q5 -11 19 -23q11 -11 17 -13t29 -5q33 -4 38 -7q13 -7 42 -3.5t37 11.5q12 13 22 3q5 -5 12 -2q8 4 23 9q29 9 29 21q0 5 4 5q3 0 12 11.5t9 15.5q0 2 9 13q10 15 19 33q18 37 34 32q6 -2 17 -13q15 -14 5 -33q-2 -4 -4 -20
q-11 -85 -2 -97q4 -4 6 -27v-12t0.5 -10t0.5 -5q0 -3 -2 -13q0 -5 1 -5q4 2 4 -4q0 -9 -9 -28q-14 -30 -25 -22q-4 4 -4 2h-2q-2 0 -6 1.5t-8 3.5q-18 6 -26 6q-12 3 -14 4q-11 7 -67 0q-42 -3 -66 -3q-40 0 -44 -2q-3 -2 -21 1.5t-21 7.5q-4 3 -23 -1q-25 -5 -40 -5
q-14 -1 -17 0t-4 6t-6.5 6t-37.5 0q-45 0 -46 3q-3 4 -65 0q-83 -4 -99 -3.5t-20 7.5q-6 6 -12 6t-18 4q-8 2 -10 4.5t-2 9.5q0 8 6 20q4 7 6.5 7.5t16.5 -0.5q18 -2 21 1q2 3 28 12q19 6 25.5 10t15.5 16q15 18 18 25q4 7 15 14.5t15 5.5q3 -1 4 1.5t1 8.5q0 11 -3 13
t-3 47t-5 52q-6 5 2 21q6 14 3 41q-3 23 -5 69q-2 48 -5 71q-6 57 11 107q8 23 -21 39q-20 12 -49 13q-29 2 -34 -3q-4 -3 -7 0q-6 4 -10 4q-5 0 -15 6q-6 6 -13 6q-5 0 -5 5t7.5 21t14.5 25q4 6 16.5 9t62.5 12z" />
    <glyph glyph-name="M" unicode="M" horiz-adv-x="987" 
d="M99 685q14 2 63 0t71 -5q28 -5 55 -7q42 -3 52 -6.5t10 -15.5q0 -7 6 -7q9 -2 20 -26q4 -10 8 -16q5 -5 0 -13t-8 -8q-4 0 -4 -5q0 -4 6 -4q5 0 9 -9q4 -10 7 -13q9 -18 8 -39q-1 -19 -5.5 -24.5t-18.5 -3.5l-13 1l14 -6q13 -6 14.5 -7.5t2.5 -7.5q0 -6 9 -6q8 -1 8 -9
t3 -9q3 -2 5 -17q2 -16 5 -16q2 0 1 -3q-2 -2 13 -13q14 -10 14 -20t4 -12q6 -2 -6 -9q-5 -2 -9 -2q-8 0 -17 -7l-11 -7l16 -2q18 -2 19 -6q0 -3 5 -3q9 0 12 -23q2 -13 9 -27q10 -24 14 -35q2 -5 2.5 -5t3.5 8q12 37 14 43q22 61 23 65q15 40 17 50q3 13 6 19q2 1 8 20
q6 16 8 16q3 0 3 4q0 7 8 26q27 72 27 96q0 12 11 36t10 27q-1 11 7.5 21.5t19.5 12.5q12 2 45 1.5t41 -2.5q14 -5 50 -8q55 -7 65.5 -7.5t13.5 3.5q4 5 34 6q65 0 73 -6q2 -3 2 -12.5t-3 -16.5q-2 -7 -29 -18q-44 -18 -73.5 -37.5t-29.5 -31.5q0 -5 -5 -15q-4 -10 -3 -24
q2 -12 -2 -19q-5 -9 -6 -21t0 -68q2 -71 -2 -96q-4 -23 0 -28t1 -24q-1 -10 -3 -77l-1 -57l7 -7q22 -20 25 -37q2 -9 5 -9t15 -10q11 -11 37 -24q35 -19 35 -27q0 -4 -8.5 -13.5t-11.5 -8.5q-15 6 -117 6q-12 0 -72 -4q-55 -4 -79 -2q-30 3 -85 -6q-10 -2 -16 -2
q-13 -2 -2 24q6 14 24 23q22 10 24 11q4 1 15.5 17.5t18.5 30.5q15 32 25 32q6 0 5 25q0 23 2 31q2 6 -1 9q-3 2 1 6q4 6 4 44q0 39 2 43q0 6 -2 9q-2 5 0 11q2 3 2 9q0 3 2 15q4 14 4 30q3 24 4 28q3 12 -1 17t0 9.5t13 4.5q8 0 8 2q0 3 -12 5l-7 1l-1 44q0 45 -2 47
q-2 4 1 15q4 21 -7 25q-6 2 -7 1q-7 -20 -14 -43q-7 -26 -24 -72q-11 -26 -23 -63q-13 -38 -36 -103q-28 -78 -36 -102q-9 -29 -26 -76q-18 -45 -20 -53t-5 -11q-5 -5 -10 -20q-7 -18 -13 -18q-7 -2 -7 -5q-1 -1 -6.5 -1t-14.5 2t-14 5q-13 7 -19 41q-5 20 -10 23
q-5 5 -5 10t-6 29q-8 25 -13 47l-9 29q-2 7 -4 19q-7 45 -15 50q-10 5 -1 14q5 5 -7 7q-10 2 -10 4q-1 1 -1 38q0 36 -4 36q-5 -2 -10 3q-7 4 -23 31.5t-19 39.5q-4 16 -7 23t0 22q2 16 2 34q2 20 3 22q2 4 -1 5q-2 2 -4 13q-3 11 -8 13t-14 7q-8 5 -16 1q-7 -6 -6 -7
q2 -4 2 -82q0 -74 2 -118q4 -42 4 -93q0 -54 5 -62q4 -8 4 -9v-5q0 -1 1 -3v-2q1 -1 2 -3.5t1 -3.5t1 -4t1.5 -7.5t1.5 -7.5q2 -14 9 -27q9 -11 11 -19q4 -7 16 -6q13 1 14 -7q2 -9 6 -13q5 -5 5 -7q0 -3 10.5 -11t15.5 -10q7 -3 7 -13t-6.5 -22t-15.5 -14q-19 0 -65 6
q-56 6 -90 3q-14 -1 -52 -5q-18 -1 -57.5 -6t-44.5 -7t-15.5 4.5t-17.5 15.5l-7 10l10 8q13 9 20 10q10 1 10 8q-1 4 3.5 7t17.5 8q23 10 23 14q3 6 18 16q29 24 43 53q3 6 9 15q6 5 12 18t6 20t4 9q4 1 3 70q0 7 -3 181q0 111 -4 119q-2 4 -4 22q0 11 -2 14t-13 10
q-25 17 -86 18h-31l-1 9q-1 13 2.5 18.5t17.5 11.5q28 11 78 17z" />
    <glyph glyph-name="N" unicode="N" horiz-adv-x="976" 
d="M240 692h31q24 -1 30 -4t4 -13q-1 -5 0 -6t6 1q13 3 20 -19q2 -4 16 -28q13 -19 13 -22q0 -4 3 -4q1 0 7 -11q4 -11 6 -11t10 -12t44 -48.5t40 -36.5t8 -8q4 -9 32 -33q32 -28 42 -38q14 -12 16 -12q4 0 6 -8q5 -10 11 -16q39 -42 52 -60q7 -9 12 -9t5 -5q0 -3 14 -14
q14 -9 14 -13q0 -3 4 -3q5 0 5 -2q0 -4 12 -15t15 -11q4 0 6 -7q1 -6 6.5 -12t7.5 -6q4 0 6 10t0 21q-3 12 -3 35q0 15 -2 63q-1 48 4 75q5 32 0 42q-6 12 -9.5 40t-0.5 39q3 4 -6 11q-8 4 -8 9q0 10 -50 43q-49 33 -46 46q3 7 -6 7q-18 0 -15 11q3 10 19.5 12.5t88.5 2.5
q238 -2 256 -10q6 -5 6 -14q-1 -8 -5.5 -10.5t-26.5 -9.5q-31 -9 -44 -16q-42 -27 -51 -84q-2 -16 -2 -124.5t3 -114.5v-48q-2 -96 9 -117q5 -10 2 -28q-7 -32 -15 -32q-4 0 -2 -11q2 -14 2 -15q-1 -2 -3 -38q-2 -35 -6 -41q-9 -14 -44 -8q-13 1 -15.5 3t-3.5 10
q-2 20 -20 5q-12 -8 -16 -8q-13 0 -31 18q-4 5 -27 28q-12 12 -32 37q-10 13 -25 30q-12 12 -12 16q0 1 -6 5q-5 3 4 13q7 8 22 19l13 8l-11 13q-11 13 -13 10q0 -1 -1 -3q-6 -18 -32 -12q-15 5 -21 15l-5 9q0 -1 -1 -1t-3.5 0.5t-5.5 1.5q-9 4 -9 6q0 3 -4 3q-10 0 -16 28
q-2 8 -6 11.5t-16 6.5q-13 4 -20 12q-10 8 -11 8q-4 0 -17 13.5t-16 21.5q-4 9 -2 14q2 4 -1 4q-2 0 -15.5 12.5t-13.5 15.5t-6 3q-5 0 -11 6q-5 6 -10 6q-4 0 -8.5 9.5t-4.5 16.5q0 8 4 11q2 2 1 3t-6 1q-9 0 -14 3q-1 0 -5 2t-5 2q-6 2 -10 11.5t-3 16.5q2 5 1 6.5
t-7 -0.5q-17 -2 -33 27q-5 10 -9 12q-5 2 -5 5t-9 14q-10 12 -10 13q0 3 -17 11q-12 7 -15.5 7.5t-7.5 -3.5q-3 -3 -1 -5t13 -7l17 -7l-2 -12q-2 -14 -5 -27q-3 -12 -3 -35q0 -12 -3 -30q-3 -10 0 -12q3 -3 0 -19q-8 -28 5 -35q5 -3 -1 -13q-5 -11 -4 -58q1 -58 -1 -86
q-3 -23 2 -28q4 -2 6 -15t11.5 -27t16.5 -14t14 -6t7 -11t14 -19q18 -20 20 -23q7 -7 15 -7q18 -1 22 -4q6 -4 -5 -26q-3 -5 -11 -6t-50 0q-128 3 -135 8q-3 3 -42 5q-39 1 -74 -4q-36 -6 -38 -5q-6 3 2 32q2 11 28 27q51 32 73 52q9 9 10.5 13t0.5 15q-3 15 3 23q5 7 3 12
t2 7q3 3 1 9q-1 7 3 10t5.5 30.5t-2.5 39.5q-5 16 -1 94q0 26 -9 91q-4 19 -2 33q0 4 0.5 15.5t0.5 16.5q2 19 5 25q4 10 1 19q-7 22 -14 30.5t-28 22.5q-23 14 -42 30t-19 21q0 6 7 18t11 14q3 1 63 3q59 2 60 3q6 3 42 3q38 2 38 3z" />
    <glyph glyph-name="O" unicode="O" horiz-adv-x="754" 
d="M320 702q3 4 43 2q38 0 56 -4q10 -1 22 -1q8 0 23 -6q16 -6 34 -6q14 0 21 -7q4 -5 42 -26q39 -19 68 -47q29 -29 31 -29q4 0 6 -7q12 -16 14 -18q10 -12 13 -21q6 -12 11 -13q4 -1 5.5 -6.5t-2.5 -8.5q-3 -2 1 -14.5t9 -15.5q3 -1 9 -18t4 -19q-2 -3 1 -3t3 -30
q0 -25 3 -34q3 -3 6 -15.5t2 -18.5q-2 -6 3 -8q4 -4 -4 -6q-8 -4 -11 -24q-3 -19 0 -21q1 0 -0.5 -16.5t-5 -34t-6.5 -21.5q-3 -10 -2 -11q0 -5 -7 -14t-32 -55q-5 -10 -7 -20q0 -8 -3 -11q-3 -1 -5 -8q-3 -5 -10 -7q-8 -1 -23 -18q-43 -51 -54 -54q-4 -1 -32 -17
q-37 -24 -70 -32q-21 -5 -24 -10q-11 -13 -54 -11t-94 17q-25 8 -52 8q-24 0 -36 8q-11 8 -25 11q-9 3 -26 16t-22 21q-1 2 -13 14q-11 11 -14 22q-4 14 -15.5 32t-21.5 26q-12 8 -17 23q-4 15 -7 19q-4 6 -2 17q1 11 -6 26q-16 34 -16 51q0 5 -2 5q-4 0 -1 5q2 3 -4 22
q-5 17 1 38q6 15 10 44q10 74 21 85q4 4 4 7q0 1 10 25q30 62 30 69t9 15.5t16 8.5q9 0 16.5 10.5t7.5 23.5q0 10 1.5 12.5t8.5 6.5q6 3 15 9q4 4 20 8.5t19 2.5q1 -1 2 1t1 5q0 8 9 12q3 1 26 12q18 9 24 9q7 0 7 3q0 4 17 7q15 2 21 8zM349 698q2 5 -5 5q-6 0 -4 -5
q2 -4 4 -4q1 0 5 4zM427 631q-26 9 -59 -2q-5 -1 -30 -7q-15 -3 -25 -13.5t-37 -52.5q-37 -53 -34 -74q2 -6 -1 -6q-2 2 -3 -3q-3 -9 0 -16q4 -6 -5 -25q-7 -13 -8 -22.5t-1 -45.5q0 -142 12 -156q11 -11 14 -33q6 -30 27 -74q14 -27 35.5 -51t37.5 -28q24 -9 26 -10
q9 -5 11 -4t1 9q0 6 12 15q12 8 21 17q6 6 15 12q6 3 8 10q1 10 13 3q7 -2 17 7t14 18q1 2 3 5.5t4.5 7t3.5 5.5q29 41 25 55q-1 5 2 5q3 -1 3.5 1t0.5 10q0 4 -2 13.5t-2 13.5q-4 14 1 19q5 7 2 15q-4 11 1 30q0 2 0.5 8t0.5 9q2 10 9 19q6 7 6.5 9.5t-3.5 6.5q-5 5 -2 8
q4 1 -2 6q-5 3 -5 16q0 12 10 18q10 7 8 21q-2 15 -7 18q-8 7 -14 18.5t-4 18.5q2 9 -5 18q-11 21 -14 43q0 10 -4 18q-4 6 -2 14q2 7 -16 35q-14 22 -25.5 31.5t-33.5 16.5z" />
    <glyph glyph-name="P" unicode="P" horiz-adv-x="783" 
d="M366 687q6 4 18 0q11 -2 66 -4q64 -2 71 -4q23 -3 68 -16t61 -21t30 -10q11 -2 25 -14q13 -12 23 -12q9 0 19 -11q17 -19 25 -55q17 -59 -4 -100q-18 -38 -42 -53q-12 -7 -14 -14q-4 -8 -8 -9q-6 -1 -10 -8q-2 -5 -11 -10q-3 -2 -12 -6t-13 -7q-16 -9 -18 -14
q-1 -5 -20 -16t-34 -16q-14 -4 -19 1q-15 11 -17 4q0 -5 -8 -9.5t-20 -4.5q-18 -3 -25 -6q-11 -5 -51 -6q-38 0 -70 -4q-24 -3 -33 -3q-5 0 -5 -12q0 -11 -4 -21q-4 -8 1 -10q4 -4 1 -13q-10 -56 1 -66q7 -6 3 -13t-1 -15q11 -22 16 -22q4 0 15 -11q12 -11 32.5 -21.5
t30.5 -10.5q13 0 24 -8.5t13 -19.5q2 -10 -3 -23.5t-13 -17.5q-5 -3 -25 -2t-31 5q-6 3 -10 -2q-7 -8 -40 -2q-13 3 -25 -5q-19 -12 -49 6l-16 10l-40 -2q-43 -2 -58 -5q-17 -4 -37 -2q-22 1 -37 -5q-19 -5 -23 -3q-5 3 -17 1q-14 -1 -18 4q-5 5 -8 5t-4 12.5t1 18.5
q1 5 26.5 18t46.5 20q18 6 38 16q22 10 28.5 18.5t8.5 29.5t5 30q2 16 1 25q-5 47 0 62q4 14 3 36q-3 25 6 64q0 6 5 14q3 7 2 42.5t-5 45.5q-3 6 2 20t-2 32q-12 39 -10 65q0 7 -2 15q-2 5 -5 14q-4 7 -2 15q0 9 -5 10q-9 3 -42 5.5t-46 0.5q-17 -2 -47 2q-32 4 -38.5 12.5
t6.5 29.5l9 14h23q62 0 140 12q55 8 142 7q57 0 61 3zM478 609q-44 12 -114 8q-21 -2 -20 -6q7 -4 -5 -16q-8 -7 -6 -22q3 -13 3 -42q0 -24 3 -30q2 -5 -1 -24q-9 -49 0 -58q10 -8 -1 -19q-5 -6 -5.5 -10.5t1.5 -21.5q0 -5 1 -12.5t1.5 -13t0.5 -7.5q0 -8 4.5 -9.5
t35.5 -0.5q24 0 40 4q14 5 38 9q68 10 94 21q9 4 9 9q0 4 15 30q23 34 27 64q2 12 3 13q2 4 -3 10q-5 9 -6 17q-3 18 -14 26q-8 7 -21.5 26t-13.5 24q0 6 -3.5 9t-16.5 7q-23 10 -46 15z" />
    <glyph glyph-name="Q" unicode="Q" horiz-adv-x="1061" 
d="M304 700q9 5 56 4q50 -2 56 -3q6 -2 14 -2q4 0 26 -5q23 -7 32 -5q9 1 15 -6q6 -8 38 -24q50 -24 80 -57q18 -20 21 -18q3 0 5 -7q3 -6 11 -14q8 -10 8 -12q0 -4 3 -4t5 -8t10 -14q7 -6 6 -13q-2 -7 2 -19t8 -12t4 -6q0 -5 4 -17q6 -11 3 -14q-2 -4 1 -4t3 -26
q0 -28 3 -32q11 -26 7 -37q-3 -4 3 -7q6 -4 -3 -5q-8 -2 -11 -23q-3 -20 1 -21q1 0 1 -2t-0.5 -6.5t-1.5 -10.5q-4 -22 -4 -26q0 -10 -9 -33.5t-13 -23.5q-3 0 -8 -14q-4 -11 -10 -20q-13 -11 -13 -28q0 -9 -6 -19t-13 -11q-6 -2 -7 -3.5t0 -9.5t-2 -13t-15 -17
q-38 -39 -56 -34q-6 4 -11 0q-3 -2 10.5 -13.5t35.5 -27.5t45.5 -31.5t43 -26t25.5 -10.5q10 0 23 -8l35 -14q21 -6 21 -9q3 -3 9 -3q8 0 27 -7q53 -15 125 -17q64 -1 87 -6.5t23 -20.5q-1 -16 -14 -23t-48 -9q-27 -2 -41 -7q-11 -4 -53 -4.5t-65 3.5q-8 1 -64 6
q-42 4 -73 11q-32 8 -51 11q-22 4 -34 10q-14 7 -31 9q-12 2 -39.5 14.5t-27.5 16.5q0 3 -17.5 14.5t-25.5 12.5q-8 2 -26 15t-22 20l-7 7q-6 7 -11 12q-14 15 -26 15q-35 2 -82 16q-29 8 -51 7q-23 0 -36 7t-28 13q-16 6 -42 32.5t-30 41.5q-5 14 -16.5 31t-19.5 22
t-17.5 27t-7.5 32q2 6 -5 25q-11 22 -16 47v4l-1 2q-2 2 0 5q0 3 -4 15.5t-6 15.5q-2 2 2 18t8 20q3 3 3 20q0 19 3 28q4 13 6 29q3 19 18 50q38 76 38 84q0 4 7 15q6 10 15 10q7 0 18 9q9 10 9 24t6 18q2 1 8.5 5t9.5 6q13 6 26 8q16 2 16 9q-1 4 4 9q42 21 64 27
q2 1 11 4.5t13 5.5zM338 698q4 5 -2 5q-4 0 -5.5 -1.5t-0.5 -3.5l3 -4q1 0 5 4zM418 633q-28 9 -31 6q0 -1 -15 -5q-38 -7 -49 -11.5t-20 -14.5q-13 -14 -31.5 -41.5t-25.5 -43.5q-8 -16 -10 -30l-1 -10q-2 1 -3 -4q-3 -10 0 -16t-6 -27q-8 -20 -9 -44t4 -95q5 -69 11 -78
q17 -22 11 -33q-1 -4 1 -7q2 -1 8 -18q10 -27 11 -29q1 -3 2.5 -7t2.5 -7l1 -2q0 -4 15 -23.5t27 -32.5q15 -14 31 -20q21 -7 12 2l-2 2q-5 5 -5 7q0 5 -6 16q-6 13 -4 16q1 1 0 3t-2 2q-3 3 -1 7q2 3 -4 22q-4 17 0 33q9 27 27 30q10 2 49.5 -7t58.5 -17q7 -3 12 -14
q4 -11 7 -11q4 0 16.5 25.5t10.5 29.5q-1 4 4 4q6 0 2 4q-6 8 -4 46q2 70 14 87q5 7 5 8.5t-4 4.5q-6 4 -3 8q3 3 -1 9q-5 5 -3 10q2 6 -1 9q-1 1 -1 2.5t2.5 4t6.5 4.5q8 5 9 8.5t0 13.5q-2 15 -5 15q-6 2 -12.5 16t-6.5 24q0 12 -5 17q-8 8 -13 41q-2 11 -5 16q-5 6 -1 14
q3 8 -14 33q-15 23 -25 31.5t-32 16.5z" />
    <glyph glyph-name="R" unicode="R" horiz-adv-x="1248" 
d="M249 685q22 2 47 0q40 -1 142 0q68 2 120 -9q15 -3 48.5 -13.5t38.5 -13.5q16 -10 44 -16q8 -2 23 -15q14 -13 25 -12q10 0 20 -10q18 -21 28 -60q7 -30 3 -56q-3 -27 -12 -44q-7 -13 -21 -29t-19 -18q-6 -2 -11 -11q-6 -10 -10 -10q-5 0 -10 -6q-6 -6 -9 -6
q-4 0 -34.5 -21.5t-31.5 -24.5q-2 -3 4 -5q12 -4 17 -14t15 -48q9 -38 17 -57t28 -49q22 -32 84.5 -81.5t91.5 -57.5q21 -6 26 -10q7 -5 28 -13q11 -4 32 -11q75 -28 168 -28q91 -2 91 -10q0 -3 6 -5t4 -14q-1 -13 -7 -18t-23 -8q-18 -4 -89 -4.5t-110 3.5q-12 2 -36 4.5
t-30 3.5q-88 9 -123 20l-44 11q-17 4 -28 12q-14 10 -28 13q-33 12 -102 73q-6 5 -20 25q-11 17 -14 17t-25 28.5t-28 40.5q-8 16 -30 42.5t-27 26.5q-7 0 -18.5 11.5t-10.5 16.5q2 7 -23 33l-11 13l-24 -2q-23 0 -27 -2q-3 -2 -5 -21.5t1 -24.5q3 -6 1 -8q-4 -3 -4 -14.5
t4 -14.5q9 -8 -2 -21l-7 -8l8 -6q7 -5 4 -13q-3 -7 -0.5 -16.5t7.5 -11.5t3 -5t3 -3q4 0 10 -6q13 -12 36 -25.5t30 -12.5q15 1 27 -10q16 -14 6 -40q-5 -13 -13 -16q-6 -2 -25 -1t-28 5q-8 2 -10 -3q-6 -4 -30 -2t-36 -5q-11 -7 -24 -3t-23 11q-11 8 -36 8q-41 -3 -48 -4
q-9 -1 -56 -4q-32 0 -40 -4q-6 -4 -32 -3t-28 5q0 4 -5 4t-5 15q0 14 11 23q10 8 41 19q74 27 90 40q20 18 22 43q0 6 3 12q2 2 1.5 28t-2.5 35q-3 11 0 27q4 16 -1 31q-6 24 -1 59q3 11 5 66q1 52 7 65q10 21 0 21q-5 0 -10.5 7.5t-3.5 12.5q2 4 -4 14q-8 14 -8 42
q0 8 8 13q9 7 6.5 13.5t-13.5 7.5l-5 1q5 2 8.5 7.5t0.5 9.5q-2 3 -17 3q-17 0 -22 3q-6 4 -58 4q-46 2 -59 5t-14 15q0 10 9 22q7 10 11 11.5t19 3.5q12 1 40 1q5 0 15.5 1t26.5 2t26 2q52 6 70 6zM482 611q-15 3 -46.5 5t-38.5 1q-2 -1 -20 -3q-11 -2 -11 -5q3 -1 3 -6
q-2 -5 -9.5 -10.5t-13.5 -5.5q-4 0 -4.5 -0.5t3.5 -1.5t5.5 -9t-2.5 -12q-3 -3 -5 -13q-1 -7 0 -9t6 -2q7 0 10 -16q1 -9 1 -20v-4q-1 -3 -1 -5q2 -11 -10 -21q-6 -6 -2 -6q5 0 8.5 -5t1.5 -10q-2 -3 -2 -18q1 -7 1 -16q4 -5 6 -5l1 -1h-4q-6 -1 -7 -2.5t0 -6.5
q0 -2 0.5 -6.5t1.5 -10.5t1 -10q1 -11 5 -27q3 -8 0 -12q-2 -1 -2.5 -3t0.5 -3q2 -3 36 -1.5t44 5.5q22 6 38 8q67 10 93 21q4 3 6 10q0 7 14 28q22 33 26 59q0 4 2 12q4 7 0 11q-5 10 -7 18q-3 12 -14 25q-33 35 -33 49q0 8 -17 15q-19 8 -64 19z" />
    <glyph glyph-name="S" unicode="S" horiz-adv-x="928" 
d="M560 695q3 3 14 -1q8 -3 8 -14l2 -10l4 9l4 9l38 -2q39 -1 45 5t25 5q21 -2 37 -7l16 -5l-1 -46q0 -46 2 -46q3 -1 1 -23q-1 -20 5 -26l7 -5l-8 -8q-7 -9 -33 -15q-27 -5 -36 -5t-17 7q-9 8 -13 26t-2 25q3 7 -14 21q-25 24 -45 32t-47 6q-29 -4 -33 -7q-7 -3 -8.5 -6
t-2.5 -15q-1 -23 -5 -30q-3 -3 -1 -7q3 -6 3.5 -18t-3.5 -21q-4 -12 4 -22q5 -7 25 -23q19 -11 19 -13l22 -14q12 -6 33 -18q11 -8 61 -19q63 -16 78 -22q29 -11 39 -11q11 0 17.5 -7.5t4.5 -17.5q-2 -9 -5 -11q-2 -2 -6 -8q-3 -5 2 -5q2 -1 10 0q12 1 18 -5.5t32 -45.5
q30 -47 34 -67q1 -8 6 -15q4 -3 4 -32v-29l10 -2q19 -3 12 -23q-3 -6 -3 -20q0 -9 -4.5 -26t-7.5 -20q-7 -6 -16 -19t-9 -16q0 -5 -7.5 -7.5t-15.5 -0.5q-7 1 -12 -7q-4 -9 -31 -38t-40 -39q-16 -10 -25 -13q-7 -3 -19 -10q-11 -8 -45 -21t-52 -15q-24 -6 -36 -10
q-63 -20 -87 -20q-7 0 -10 -3q-4 -4 -43 -12t-54 -8q-19 0 -19 6q-1 7 -19 9q-35 4 -87 16q-25 5 -34 6q-16 2 -44 10t-36 13q-3 3 -37 22q-45 26 -75 57q-35 35 -49 55.5t-21 45.5q-5 17 0 26q8 16 -5 30q-19 20 23 109q15 30 43 58t38 36q28 21 67 34q49 15 100 11
q17 -1 42.5 -9t34.5 -14q12 -8 13 -17.5t-10 -14.5q-22 -10 -63 4q-34 12 -58 10q-24 -1 -34 -10q-9 -9 -9 -13t-8 -9q-7 -6 -5 -8q10 -10 -5 -34q-9 -15 -11 -23q-8 -43 -28 -48q-10 -2 -10 -10t9 -9q8 -2 16 -12t7 -17q-2 -4 3 -9q3 -4 10 -24q10 -31 -4 -47l-7 -8l24 -22
q24 -23 34 -21q8 1 21 -7t15 -15q2 -6 4 -6t21.5 -15t30.5 -25q8 -8 8 -18q0 -7 2 -10t5 0t7 10q7 13 19 14q15 0 45 -9q37 -11 68 -11.5t86 10.5q5 1 34.5 19.5t39.5 26.5q5 5 19 9q15 6 22 21q6 13 15 22q7 9 7 11q0 4 9 20q3 6 9 16.5t7 13.5q14 31 35 29q6 -1 15 -4
q3 -2 4 4t0 26q0 27 -4 36.5t-26 36.5q-25 31 4 51l13 8l-7 7l-7 7l-11 -10q-5 -5 -17 -13q-6 -2 -16.5 2t-10.5 8t-5 4q-9 0 -24.5 24t-12.5 34q1 7 -6 11q-12 8 -13 9q-4 4 -42 20q-35 14 -47 20q-25 10 -45 16q-35 13 -41 19q-8 8 -21 11q-16 6 -26 16q-12 11 -21.5 31
t-7.5 31q2 5 1 7.5t-2 3t-6 1.5q-9 2 -9 14q0 46 13 80q5 12 11 18q3 3 8 13q4 8 55 39q8 6 20 7t16 -4q4 -4 23 3q18 6 51 11q32 2 34 4z" />
    <glyph glyph-name="T" unicode="T" horiz-adv-x="754" 
d="M55 692q7 3 28 5q17 0 20 -6q5 -16 24 -16q11 0 36 5q43 7 73 -6q14 -6 34 -5q19 2 45 -2q24 -4 37 0q14 4 29 4q11 1 13.5 -0.5t2.5 -6.5q0 -6 1.5 -6.5t10.5 3.5q35 14 40 7q2 -3 9.5 -2.5t9.5 3.5t39.5 2.5t42.5 -3.5q3 -3 13 5t19 8.5t10 -7.5q2 -8 16 -7q14 0 14 6
q0 5 19 5t19 -3t6 0q9 3 11 3q6 0 12 8q12 11 29 1q22 -12 25 -58q0 -23 4 -31q4 -4 -2 -7q-8 -4 -11 -4q-6 0 -3 -10q2 -10 2 -52.5t-2 -61.5q-2 -20 1 -21q4 -3 2.5 -9t-6.5 -9q-5 -4 -25.5 -5.5t-28.5 1.5q-4 2 -9 11t-5 15q0 5 -8 11t-10 13q-2 9 -12 12q-8 4 -22 22
t-19 32q-7 12 -14 19q-25 23 -46.5 30.5t-53.5 5.5l-27 -1l-2 -33q-2 -45 0 -68q8 -150 4 -174q-2 -18 2 -28q5 -11 4 -32q-3 -36 -4 -52q-2 -30 -3 -32q-4 -4 7 -44q2 -11 29 -47q12 -15 23 -16q13 -2 19 -6q20 -11 62 -11q19 0 23 -4q2 -5 15 -9q10 -4 11.5 -6.5
t1.5 -14.5q0 -24 -12 -18q-3 3 -9 -5q-4 -5 -7 -5.5t-15 2.5q-34 6 -104 3q-29 0 -65 4q-32 3 -39 1q-5 -3 -72 -3q-66 0 -70 -4q-6 -4 -27 -4q-15 1 -47 -1q-26 -3 -30 1q-5 3 -11 2q-8 -2 -13 5.5t-5 19t5 22.5q5 9 15 9t10 2q0 6 66 23q68 17 86 28t14 32
q-3 12 -1.5 46.5t4.5 43.5q4 10 8 14q4 5 -1 22q-4 20 -6 44q0 8 -2 31t-2 30q-3 28 -5 93q-3 92 -6 114q0 3 -0.5 9.5t-0.5 7.5q-1 4 -4 5t-16 -1q-19 -2 -49 -13q-29 -11 -50 -29q-51 -45 -59 -60q-14 -32 -14 -37q-2 -9 -56 -9q-17 -1 -20 4q-2 6 0.5 30t5.5 29q5 9 3 17
q-2 17 -0.5 52.5t3.5 37.5t-3 11q-5 13 -5 32q-1 19 3 27t18 14z" />
    <glyph glyph-name="U" unicode="U" horiz-adv-x="867" 
d="M42 681q23 2 65 2t53 -2q22 -4 61 -5t58 3q23 4 27 2q3 -3 32 -3q21 1 25.5 0t8.5 -6l6 -8l14 7q16 7 25 8q11 2 20 -5q8 -8 9.5 -21.5t-4.5 -18.5q-5 -5 -22 -12t-23 -7t-6 -5t-12 -10q-13 -4 -13 -9t-7 -8q-7 -5 -3 -9q4 -5 -2.5 -11.5t-15.5 -6.5t-10 -10
q-8 -40 -12 -40q-3 0 -3 -7q0 -4 -6 -30q-10 -36 -4 -151q4 -52 2 -67q-2 -16 5 -25q6 -8 6 -20q0 -21 2 -34q2 -17 4.5 -22.5t16.5 -19.5q15 -15 24 -27q4 -5 12.5 -6.5t53.5 -4.5q71 -4 76 -15q1 -4 16 2q15 5 35 13q21 8 22 10q2 2 14 7.5t16 5.5t9 14q11 18 16 25
q8 10 12 39q1 9 5 40q3 9 3 90q0 80 1 81q1 2 -3 10t-4.5 26t3.5 25q4 6 2 13q-3 12 -3 40q-2 60 -18 74q-54 45 -75 45q-5 0 -10 7q-4 4 -4 6.5t4 11.5q4 8 7.5 9.5t15.5 2.5q16 2 50 -4q35 -5 48 -2q15 2 17 -3q1 -7 6 -4q12 3 18 3q7 1 14 1q1 0 3 1q3 0 5 3q7 5 12 -11
q2 -4 14 1q11 5 31.5 8.5t23.5 0.5q4 -2 16 0q21 5 29 1t6 -20q-1 -10 -3.5 -12.5t-18.5 -9.5q-21 -9 -25 -13q-2 -5 -8 -5q-5 0 -17.5 -16t-21.5 -34q-16 -31 -15 -162q0 -88 -2 -100q-2 -13 1 -20q2 -7 -7 -62q-11 -57 -14 -65q-4 -12 -4 -31q-1 -21 -14 -39
q-13 -19 -13 -24t-15.5 -23t-19.5 -18t-24 -9q-18 -10 -43 -14q-25 -6 -33 -9q-7 -4 -17 -5t-12 3q-3 7 -6 1q-1 -2 -1 -5q0 -16 -56 -19q-14 0 -20 8l-5 7l-3 -8q-3 -8 -11 -10q-11 -1 -53 6t-45 11q-2 3 -26 3q-55 0 -75 20q-9 9 -37 19q-51 18 -51 46q0 11 -7 16
q-8 4 -13 21q-6 18 -10 22q-4 6 -2 13q3 8 1 13q-3 5 -4 42.5t1 39.5q8 2 0 59q-2 23 1 29q8 20 0 26q-5 3 1 9q5 7 3 22q-8 49 4 78q7 16 10 32.5t0 18.5q-4 2 0 13q3 9 -10 34q-12 28 -12 33q0 9 -7 14q-6 8 -5 13q1 4 -3.5 6.5t-23.5 8.5q-27 9 -41 17q-12 9 -12 22t2 15
q5 2 22 4z" />
    <glyph glyph-name="V" unicode="V" horiz-adv-x="883" 
d="M636 684q9 2 16 1q7 0 35 -2q25 -2 31 -4q4 -3 78 -3q71 2 77 -2q6 -3 6 -20t-9 -20q-6 -3 -15 -3q-6 0 -16 -8q-9 -9 -15 -13q-6 -3 -1 -10q11 -15 -4 -20q-8 -3 -19.5 -16t-11.5 -18t-5 -10q-4 -6 -4 -12q0 -5 -10 -12q-9 -7 -9 -9t-8 -16q-7 -10 -9 -24q0 -12 -9 -21
q-8 -8 -8 -15q0 -8 -9 -19q-7 -12 -9 -27q0 -14 -8 -18q-7 -4 -12 -19q-2 -8 -8 -26q-6 -11 -3 -14q2 -4 -5 -6q-6 -2 -5 -11q2 -8 -6 -12t-15 -35q-2 -9 -5 -9t-1 -4q0 -7 -6 -14q-9 -11 -5 -17q3 -6 -3 -8q-9 -2 -13 -7t-9 -22q-11 -28 -13 -31q-4 -8 -4 -10q1 -3 -8 -16
q-16 -26 -15 -38q0 -6 -9 -11q-10 -6 -10 -7q-1 -4 -34 -29t-41 -29q-10 -6 -10 -8t-17 -10q-14 -6 -29 -19q-11 -11 -17 -11q-10 0 -18.5 13.5t-8.5 27.5q0 13 -5 16q-6 3 -2 8q5 5 -3 6q-7 2 -5 6q2 5 -5 5q-6 0 -6 7q0 5 -4 13q-6 6 -3 8q1 3 -1 3q-4 0 -2 9q1 10 -4 10
q-8 0 -3 5q2 2 5 3q6 5 3 9q-4 4 8 17l11 12l-11 -4q-13 -6 -14 -4q0 1 1 2q2 3 -3 3q-4 0 -13.5 9.5t-9.5 13.5q0 3 9 12l10 9l-11 -2q-12 -2 -15 7q-2 8 -6 8q-3 0 -1 4q1 3 0 3.5t-4 -0.5q-4 -1 0 4l4 4l10 10h-10q-11 0 -14 9t-1 9q1 0 3 -1q7 -2 10 3q4 5 -3 6
q-6 1 -6 5q0 3 -4 1q-2 -1 -2.5 -0.5t0.5 2.5q1 1 2 5t2 5q3 6 -3 7q-6 2 -3 5q1 3 -3 3q-8 0 0 12q3 6 2 6q-3 -2 -13 2.5t-10 7.5t-5 3t0 8q11 14 1 14q-5 0 -8 5q-4 4 -7 3q-1 1 -2 3q0 4 3 6q4 3 2.5 5.5t-7.5 2.5q-11 0 -11 16q0 5 -6 21q-11 27 -10 30q1 4 -3.5 15.5
t-6.5 11.5q-3 0 -1 4t-2 8q-4 2 -6 12q-2 9 -9 16q-7 12 -8 15q-2 7 -5 7q-2 0 -4 12q-4 23 -12 23q-4 0 -5 4.5t2 5.5q4 2 1 12.5t-8 16.5q-8 7 -7 17q2 9 -8 17q-9 7 -15 9q-14 8 -23 14q-3 5 -12 5q-8 0 -12 4q-3 4 -1 19t6 19t19 4.5t30 -3.5q14 -3 32 1q15 5 91 6
q71 0 77 3q5 3 12 -4t14 -7q15 0 15 -21q1 -11 -2.5 -14.5t-29.5 -14.5q-13 -5 -18 -8.5t-4 -5.5q2 -5 -3 -7q-6 -4 16 -53q7 -14 9 -31q0 -16 5 -16t5 -4q0 -1 0.5 -3.5t0.5 -3.5q1 -2 1 -21q1 -19 12 -31q10 -10 10 -18t4 -13q5 -9 7 -18q2 -11 3 -11q0 -1 9 -5q7 -4 7 -8
q-2 -5 5 -11q7 -7 5 -11q-1 -3 1 -7q3 -2 -1 -9q-7 -11 0 -11q6 0 13 -5.5t7 -10.5q0 -4 9 -15q10 -10 10 -16q0 -5 4 -9q9 -6 2 -22q-4 -7 -1 -11t10 -3q4 1 10 -0.5t10 -4t3 -4.5q0 -4 7 -11q8 -6 8 -15q1 -5 1 -13q0 -5 13 -18l14 -13l2 10q2 7 17 37.5t19 34.5q2 4 2 10
q0 7 5 12q3 4 5 19t1.5 28.5t-2.5 13.5t0 2q1 1 2 1q6 4 16 2q8 -2 10 0t1 12q0 3 6 10t6 13q0 5 10 21t14 18q6 3 4 9q-2 7 3 24.5t10 23.5q3 4 8 17q2 13 8 25q6 14 6 16q0 4 6 14q3 5 6 20.5t3 27t-2 13.5q-3 0 -14 15q-9 12 -25 22.5t-21 7.5q-3 -2 -3 0q0 1 1 3
q1 4 -9 11q-19 12 -4 36q6 11 18 11q8 0 17 3z" />
    <glyph glyph-name="W" unicode="W" horiz-adv-x="1275" 
d="M24 678q15 3 76 2.5t80 -2.5q7 -1 19 -3t14 -2q9 0 25 -4q25 -7 25 1q0 5 67 4q64 0 70 -3q4 -4 4 -23t-5.5 -25.5t-20.5 -7.5q-18 -1 -29 -7q-4 -4 -21 -13q-24 -15 -24 -55q0 -21 4 -24q5 -5 2 -14q-2 -8 0 -14.5t6 -6.5t2 -5q-2 -4 3 -15q5 -15 5 -19q0 -10 6 -14
q5 -4 10.5 -20.5t3.5 -20.5q-1 -1 0.5 -2t4.5 -1q7 0 3 -4q-2 -2 -3 -5t0.5 -5t3.5 -2q5 0 5 -3t9 -12q8 -8 8 -16q0 -7 8 -7l8 1l-8 -7q-9 -8 -3 -11t6 -8t8 -7q8 -1 8 -11q0 -11 5 -19q5 -10 5 -23q1 -14 7 -16t8 -11q2 -8 9.5 -8.5t11.5 6.5q11 23 6 38q-3 8 4 16
q8 8 10 8t6.5 5t5.5 8q0 3 -5 3q-6 0 -7 11t5 22q5 10 27 14q7 1 7 14q1 13 6 16q4 2 4 8q0 9 3 10q4 2 2 6t5 8q7 3 4 9q-1 4 3 12q5 5 5 23t5 21q2 2 3.5 5.5t0.5 5.5t-3 2q-3 0 -3 3t5 3t5 8t3 8t1 3t1 3q4 0 2 18q0 31 -20 49q-8 8 -11 17q-6 10 -9 10l-3 1h-6
q-5 2 -5 -1q0 -7 -17 4q-8 5 -9.5 8t-0.5 16q5 20 10 30t8 12t8 1q9 -2 29 0q20 3 25 -3q6 -5 6 -9q0 -6 8 1q3 3 4 6q2 5 11 6t59 2q71 0 95 -4q30 -4 40 -2q11 1 20 -5q9 -7 15 -7q11 0 16 -29q1 -10 -4 -15q-13 -12 -72 -17q-26 -2 -23 -6q0 -1 2 -2q3 -2 0 -15t-9 -15
q-7 -2 -4 -8q1 -4 5 -28q5 -30 13 -38q5 -5 5 -14q0 -12 13 -43q6 -11 6 -21q0 -8 3 -8t3 -12q0 -32 12 -32q14 0 1 -16t8 -46q9 -16 9 -31q2 -18 17 -51q17 -43 19 -50q4 -13 10 -18q4 -3 8 -16q0 -8 5 -23l5 -9q1 0 1 2q1 4 1 19q-2 12 5 24q6 11 2 13q-5 2 -1 4q3 0 7 4
q4 2 5.5 19t-2.5 19q-2 2 2 3q1 1 3 1q8 2 9 19q4 30 10 41q5 9 1 13q-3 4 2 8q5 2 10 13t5 19q0 9 3 16t3 12q0 4 4 9q11 18 4 23q-3 1 1 5q4 3 13.5 27t10.5 36q2 9 11 29q10 21 8 27q-2 9 1 17q3 9 -2 11q-5 1 -3 10q2 7 -17 26q-23 19 -26 20q-7 3 -20 20q-9 12 18 47
q22 27 31 15q8 -9 97 -1q60 3 100 3q66 2 68 4q4 2 18 0q14 -1 18 -11q7 -14 1 -29t-19 -15q-14 0 -64 -23.5t-50 -30.5q0 -6 -18 -22q-17 -17 -15 -23q2 -5 0.5 -6t-7.5 -1q-7 0 -15 -8q-5 -8 1 -12q9 -6 4 -24q-1 0 -1 -1t1 -2q0 -3 -11 -3h-1q-8 0 -9 -2.5t-2 -15.5v-5
q0 -12 -5 -15q-7 -4 -10 -18q-3 -11 -8 -19q-4 -6 -4 -9q0 -5 -4 -11q-5 -5 -3 -20q1 -15 -4 -19q-5 -3 -5 -11q0 -6 -6 -24q-7 -16 -1 -22q5 -5 1 -12t0 -10q3 -3 -1 -8q-3 -4 1 -11q4 -5 1.5 -7.5t-14.5 -3.5q-10 -2 -12.5 -4t-4.5 -14q-2 -7 -2 -11.5t1 -5.5q10 0 1 -21
q-4 -12 -12 -18q-8 -8 -7 -11q3 -3 3 -17q2 -14 -4 -18q-7 -2 -5 -8q2 -5 0 -12t-6 -7q-5 0 -5 -5q0 -9 -26 -36.5t-34 -27.5q-5 0 -23 -18q-24 -23 -36.5 -27.5t-28.5 5.5q-12 7 -30 32.5t-22 41.5q-5 24 -23 53q-8 13 -20.5 44.5t-12.5 38.5q0 5 -3 6t-3 10q0 8 -21 57
q-4 10 -4 12t-6 10q-6 11 -8 26q-2 16 -13 34q-11 19 -12 26q-2 8 -5 8t-7 -8q-4 -10 -8 -13q-4 -4 -4 -7q0 -5 -7 -14q-8 -10 -8 -14q0 -3 -10 -5l-9 -2l7 -5q6 -6 2 -12q-3 -4 -1 -4q2 2 9 -2q4 -3 3.5 -3.5t-6.5 -2.5q-11 -4 -12 -6q-5 -6 -12 -23.5t-6 -22.5q0 -2 -9 -6
q-15 -7 -8 -30q4 -13 2 -15t-2 -19q-1 -28 -18 -31l-9 -2l9 -5q8 -3 11 -8q1 -16 -8 -27q-6 -6 -3 -10q4 -3 2 -8q-2 -4 6 -6q9 -2 9 -6q0 -5 -7 -13t-12 -9q-6 -1 -7 -17q-4 -18 -6 -20q-7 -10 -38 -20t-53 -10q-26 0 -42 34q-8 19 -13 25q-4 7 -10 28q-2 17 -17 41
q-9 12 -24 45q-2 6 -5 13t-5 12t-2 6q-3 4 -3 10q0 3 -11 29q-11 24 -13 41q-2 18 -17 49q-15 33 -17 42t-8 18q-6 10 -6 14t-3 7q-4 2 -2 5q2 2 -4 14q-6 14 -16 39q-8 25 -13 32q-3 9 -3 12q0 6 -11 28q-2 5 -5 11.5t-4.5 10t-1.5 4.5q0 6 -5 9q-7 5 -9 18q-1 12 -21 32
q-16 17 -28.5 22t-45.5 8q-28 2 -36 10l-12 12q-10 8 7 26q10 12 24 15zM727 583q3 6 0.5 7t-6.5 -5q-6 -7 0 -7q4 0 6 5z" />
    <glyph glyph-name="X" unicode="X" horiz-adv-x="904" 
d="M546 683q54 4 125 2.5t95 -6.5q29 -5 56 -6q31 -1 44 -9q12 -8 11 -20q-1 -10 -7.5 -23.5t-12.5 -17.5q-9 -4 -27 -1q-20 2 -22 -2q-2 -5 -11.5 -10.5t-17.5 -5.5t-22 -6.5t-17 -11.5q-1 -2 -19 -22q-23 -27 -41 -29q-8 0 -9 -2.5t3 -9.5t1.5 -17.5t-9.5 -12.5
q-6 -1 -6 -8t-3 -7q-3 -2 -3 -9q0 -5 -5 -5q-7 0 0 -11q6 -9 1 -8q-3 0 -9 3q-6 4 -15 -4q-11 -8 -18 -6q-9 2 -18 -8q-8 -10 -8 -12q1 -4 -2 -13.5t-6 -9.5q-4 0 -6 -9t-10 -19l-7 -10l24 -27q25 -31 32 -44q9 -16 13 -16t11 -7t7 -11t5 -7q2 -1 19 -25q14 -21 35.5 -43.5
t27.5 -22.5q5 0 13.5 -9t8.5 -14t22 -14q6 -3 21.5 -10.5t17.5 -8.5q20 -10 28 -10q9 0 15.5 -5.5t4.5 -11.5q-1 -4 2 -5t13 -1q16 -1 22 -6t7 -20q2 -21 -14.5 -28t-69.5 -7q-199 0 -239 6q-23 4 -30 9t-5 16q2 13 9 22q5 7 9 8.5t17 1.5h19l-1 9q-2 9 1 9q4 0 13 7l11 6
l-16 12q-13 12 -36 40q-20 28 -35 40q-11 10 -32.5 34.5t-32.5 40.5q-7 11 -8 7q-1 -2 3 -9q2 -4 3.5 -11t1.5 -12t-2 -5q-3 0 0 -4q5 -5 0 -5q-3 0 -3 -5t-13 -8q-13 -4 -18 -15q-7 -13 -15 -19q-10 -8 -17 -25q-7 -13 -7.5 -15.5t4.5 -5.5q7 -5 7 -10q0 -6 3 -6t3 -4t-4 0
t-9 4q-6 0 -2 -9q3 -8 -3 -22l-7 -12l11 2q22 6 42 -7q8 -7 7 -23.5t-10 -24.5q-7 -6 -152 -5h-156q-61 -1 -75.5 2t-15.5 17q-1 9 5.5 20t14.5 13q7 4 7 7q0 4 5 4q3 0 21 8q16 8 21 8q6 0 6 3t6 3q7 0 9 7q4 8 46 38q38 28 66.5 58t66.5 82q39 52 45 58q13 15 14 23
q3 10 -4 15q-11 7 -25.5 23t-17.5 24q-3 9 -24 32q-20 24 -21 27q-2 7 -4 7q-1 0 -7 11q-4 11 -6 11t-4 7q-2 4 -13 21t-17 23q-4 4 -15.5 10.5t-13.5 6.5q-3 0 -16 9q-14 8 -21 8q-10 0 -14 8q-1 4 -18 15q-12 6 -16 10q-3 3 -11 3q-11 0 -33.5 5.5t-27.5 9.5q-10 9 5 34
l9 15l27 -2q67 -6 190 -10q57 -2 67 3t25 3t20 -9t5 -20t-6 -17q-1 -2 -20 -9q-14 -3 -16 -13q-3 -15 16 -37q12 -13 23.5 -30t11.5 -22t10 -11q9 -5 9 -7q-1 -3 9 -23.5t14 -23.5q4 -4 13 8q2 4 10 15t10 14q11 15 18 30q3 13 19 31q3 3 8.5 9.5t10 11t6.5 7.5l10 13l-7 6
q-7 7 -10 7t-12 9q-10 10 -32 10q-23 0 -30 6q-9 10 4 33q6 10 17.5 12t71.5 7z" />
    <glyph glyph-name="Y" unicode="Y" horiz-adv-x="878" 
d="M32 664l10 15l35 -2q225 -15 250 -7q16 6 30.5 5t14.5 -8q0 -5 4 -5q3 -3 3 -14q1 -13 -5 -19.5t-21 -10.5q-11 -3 -13 -5t-2 -12q0 -17 23 -41q22 -22 29 -45q2 -8 8 -10q6 0 16 -22q8 -20 15 -29q6 -6 6 -10q0 -3 12 9q13 13 13 19q0 16 23 21q10 1 17 6q6 6 -3 13
q-9 8 -8.5 14t10.5 17q10 9 19 22q4 6 13 18l7 7l-7 5q-14 13 -44 17q-31 4 -40 12q-16 13 6 33q8 8 12.5 9.5t19.5 1.5q20 0 24 4q3 3 40 0q38 -3 43 2q6 6 14 0q9 -4 109 -1q12 0 42 -3q57 -3 65 -3q28 0 38.5 -4.5t12.5 -17.5q5 -21 -16 -42q-7 -6 -27 -4q-19 2 -31 -8
q-11 -10 -24 -10q-23 0 -48 -28t-33.5 -34.5t-20.5 -6.5q-6 0 -8 -1t-1.5 -3t4.5 -6q11 -15 -4 -30q-9 -7 -11 -17q-5 -10 -8 -13q-5 -5 0 -14q5 -8 3.5 -9t-12.5 4q-10 4 -16 -3q-10 -15 -28 -3q-8 5 -15 -2q-5 -5 -5.5 -7t3.5 -9q4 -10 -1 -20q-6 -11 -8 -11q-3 0 -3 -5
t-8 -15q-8 -12 -8 -14q0 -3 -8.5 -6t-12.5 -2t-5.5 -3t-3.5 -25q-2 -36 2 -52q5 -35 1 -51q-4 -6 1 -11q4 -3 3 -15q-6 -34 -4 -54q2 -15 8 -21q7 -7 4 -13t1 -14t10 -8q7 0 5 -14q0 -1 1 -1.5t4 -1t7.5 0t10.5 0.5q24 1 22 -2q-2 -4 3 -7q4 -4 4 -8t4 -4q3 0 0 -8
q-7 -17 3 -17q6 0 6 -3t-6.5 -5t-24.5 -3t-51 -1h-87q-117 1 -139 2.5t-29 11.5q-3 6 0 9t1 9q-1 4 3 13q6 7 3 10q-1 1 2.5 3.5t10.5 4.5q18 8 49 0q4 -1 1 3q-2 1 -5 4q-9 9 -6 13q3 2 0 11q-3 8 0 10q4 2 2 8q-1 5 9 15t15 10q8 0 1 25q-4 12 -5 39t1 33q2 7 -1 26
q-2 20 3 43q6 22 1 27q-5 7 -1 8q3 2 -2 7q-4 6 -1 9q3 5 1 5q-3 0 3 4q7 5 3 5q-6 0 -25.5 20.5t-23.5 30.5q-9 15 -26 34q-19 21 -21 27q-2 7 -5 7q-2 0 -6 11t-7 11t-3 5q0 7 -12 21q-13 17 -13 19q0 4 -12 11q-12 5 -14 9q-2 3 -7 3q-6 0 -17 9q-14 8 -22 8q-9 0 -13 8
q-3 5 -18 15q-16 8 -17 10q-2 3 -12 3q-10 1 -34.5 6.5t-26.5 8.5q-11 11 3 34z" />
    <glyph glyph-name="Z" unicode="Z" horiz-adv-x="910" 
d="M296 694q121 3 187 -4q25 -3 46 -3q8 0 64 -4q49 -5 97 -4q78 3 82 3q36 1 44 -6q7 -7 6.5 -18.5t-7.5 -18.5q-8 -8 -12 -8q-5 0 -7 -9q-1 -10 -34 -33q-108 -74 -199 -180q-26 -29 -59 -69q-18 -20 -31 -42q-11 -20 -15 -24q-3 -1 -11.5 -12.5t-8.5 -13.5q0 -3 -6 -7
t-15.5 -18t-8.5 -17q2 -3 -6 -6q-6 -3 -21 -26q-15 -26 -18 -29q-15 -17 -22 -45q-2 -12 -5 -18q-1 -6 12 -12q14 -6 92 -6q80 0 84 1q6 3 47 5q81 5 96 20q68 64 68 68q0 3 12 15q22 26 18 39q-2 6 12 13q20 11 8 12q-13 0 -2 20q8 15 20 21q34 16 64 16q17 0 27 -9
q11 -9 12 -21q3 -23 -33 -48q-14 -10 -16.5 -13.5t-0.5 -11.5q2 -14 -4 -31q-5 -17 -5 -25q0 -10 -8 -37q-8 -29 -9 -62q0 -31 -8 -41q-9 -10 -22 -10q-16 0 -25 3q-13 2 -33 -2q-58 -13 -199 -11q-23 0 -61 -0.5t-44 -0.5q-43 -2 -119 -4q-146 -3 -159 -8q-6 -4 -26 0
q-38 6 -60 8q-12 2 -16 -2q-6 -4 -13.5 -0.5t-11.5 11.5q-12 30 15 35q9 2 9 4q0 3 -10 16q-9 13 -5 20q5 8 37 30.5t44 27.5q13 3 21 11q22 22 46 57q18 24 19 25q10 10 3 15q-2 2 -3.5 6.5t-1 7.5t2.5 3t6 9q5 18 22 24q7 2 8 16q0 6 8 7q9 1 20 5t12 6v8q0 6 6 4q6 0 1 5
l-2 2q-6 8 -6 9q0 2 23.5 25.5t25.5 23.5q4 0 4 3t18 12q17 7 19 14q1 5 5.5 6t11 -2.5t11.5 -9.5q10 -10 10 -7q0 4 14 16l13 12l-8 13q-8 12 -10 12q-3 0 -3 3t6 3q4 0 0 6q-9 9 1 21t17 28q7 18 13 24q2 2 6 10q0 4 15 19q14 13 12 22q-2 8 2 8q10 0 -6 7q-7 3 -17 7
q-22 7 -31 5q-12 -5 -39 -3q-62 0 -128 -2q-62 -2 -71 -9q-7 -6 -6 -12q2 -7 -3.5 -17t-10.5 -12q-7 -2 -7 -7t-4 -15q-5 -8 -5 -24q2 -13 -1 -18q-2 -2 3 -8q4 -5 3.5 -6.5t-8.5 -4.5q-9 -5 -47 -3q-37 1 -43 7t-8 15t1 10q3 4 -6 13q-14 16 -20 40t1 36q3 6 3 14
q0 7 7.5 17t14.5 12q6 2 -1 8l-2 2l-10 9l8 9q5 7 9.5 8t23.5 2q23 0 30 5q5 5 11 5q5 0 13 4q6 3 24.5 4t20.5 -2q1 -3 19 -1q9 1 87 5zM213 70q0 6 -8 0q-6 -4 1 -5q7 0 7 5z" />
    <glyph glyph-name="a" unicode="a" horiz-adv-x="678" 
d="M407 532q10 8 15 8q5 -2 12 -12.5t6 -14.5q-2 -4 2 -13q3 -6 3 -12q-1 -2 0 -3t2 1q1 1 2 0t1 -3q0 -5 3 -5t8 -11.5t5 -18.5t4 -9q3 -1 -1 -5q-5 -4 -4 -8q2 -4 -5 -13q-5 -5 -5 -5.5t3 0.5q6 3 15 -1.5t13 -12.5q4 -7 -4 -13q-4 -6 -1 -6q8 0 17 -10q2 -3 0 -3
q-1 0 2 -3q5 -3 -3 -10q-5 -4 -5 -4.5t4 0.5q5 2 10 -2q6 -6 3 -10q0 -2 -2 0q-1 1 -2.5 0t-2.5 -2q-1 -2 0.5 -5t4.5 -4.5t4 -0.5q2 1 0 -3l-1 -2q-4 -7 2 -13q6 -5 4 -10q-3 -6 0 -6q2 0 11 -7q7 -7 4 -12t3 -8q15 -5 10 -14q-4 -4 2 -6q4 -1 10.5 -17.5t8.5 -33.5
q2 -14 6 -16q5 -2 5 -7q0 -7 6 -16q17 -31 20 -45q2 -8 6 -8t3 -12q-2 -14 4 -18q4 -4 6 -13q0 -8 17 -20q11 -9 27 -15q9 -2 9 -14q-1 -14 -4 -17.5t-15 -3.5q-21 2 -25 3q-11 2 -23 -1q-14 -4 -73.5 -3.5t-64.5 3.5q-5 4 -11 5q-5 1 -8 10.5t0 13.5q1 3 20 10q18 5 20 12
q0 1 1.5 3l3 4t2.5 3q6 4 8 21q1 18 -5 29q-7 12 -9 12t-6 10q-4 9 -9 11q-10 2 0 12q7 8 4 15q-1 5 -3.5 6t-5 -1.5t-2.5 -7.5q0 -20 -73 -10q-20 3 -24 4.5t-5 8.5l-1 8l-6 -7q-6 -6 -43 -9q-32 -2 -56 -6q-4 -1 -10 -2t-10 -2t-6 -1q-8 -2 -19.5 -21.5t-13.5 -35.5
q-1 -10 1 -14t12 -16q13 -17 25 -20q9 -4 9 -7q-3 -3 6 -6q8 -4 10 -9q1 -6 -4 -15.5t-11 -11.5q-7 -2 -39.5 -1.5t-37.5 3.5q-9 3 -62 3q-48 1 -56.5 3.5t-5.5 16.5q1 9 6 11.5t25 5.5q14 2 16.5 5t-4.5 15q-5 8 -1 13q3 5 8 5q3 0 11 11t12 21l9 15q4 4 11.5 19t7.5 20
t6 17q23 44 19 50q-4 4 2 9q6 4 9 4q4 0 8 13q7 22 7 24t5 7t3 11q-3 5 4 10q6 4 6 10t5 19.5t8 15.5q4 2 4 10q0 9 7 10q8 1 14 22q5 16 9 21q3 3 3 7t10 20q9 13 7 20q-1 8 7 10q11 2 43 27q28 21 32 21t4 2q0 3 13 9q12 5 22 15zM350 372q-4 0 -8 6q-3 3 -4.5 3.5t-2 -1
l-2.5 -7.5q-3 -11 -15 -31q-10 -14 -13 -27q-2 -9 -5 -9t-7 -33q0 -17 -12 -12q-3 1 -4 -0.5t-1 -5.5q0 -8 -5 -11q-4 -4 -6 -11q0 -5 -3 -11q-1 -3 3 -4q6 -1 31 0q26 1 31.5 -0.5t4.5 -8.5q0 -2 13 -4q13 -3 16 3q3 5 24 3q20 -2 23 3q2 5 12 2q8 -1 9.5 0t0.5 5
q-2 7 -4 7q-4 0 -5 10t1 15q4 6 -2 6q-13 0 -13 13q0 6 -3 6q-4 0 -11 14q-8 15 -6 27q2 11 -1 11q-1 0 -2 -1q-6 -2 -13.5 0t-7.5 6t-5 9q-5 8 -5 16q-2 12 -3 12z" />
    <glyph glyph-name="b" unicode="b" horiz-adv-x="654" 
d="M119 532q29 1 107 -1t93 -4q18 -3 57 -3q67 -3 135 -29q27 -11 32 -11t19.5 -14t21.5 -25q23 -42 23 -78q1 -19 -8 -37q-6 -16 -16 -23q-7 -5 -17 -14q-7 -9 -12 -9q-4 0 -2 -3t7 -3t29.5 -13t33.5 -21q16 -13 23 -44.5t2 -65.5q-1 -8 -2.5 -25t-1.5 -18q0 -19 -3 -22
q-14 -4 -9 -11q5 -5 -5 -5t-10 -5q0 -4 -5 -4q-4 0 -4 -5t-9 -11t-17 -6q-9 0 -9 -7q0 -5 -9 -10.5t-13 -3.5q-2 2 -9 -1q-16 -9 -130 -7q-37 2 -45 -2q-11 -3 -25 0q-15 3 -24 -1q-6 -3 -23 0q-17 2 -26 -3q-17 -10 -39 7q-9 6 -48 2q-42 -4 -62 -4q-27 -2 -31 -4
q-7 -3 -21 -2t-22 5q-7 4 -7 15t6.5 16.5t32.5 16.5q23 9 48 20q13 7 16.5 10.5t6.5 12.5q4 14 4 56q2 40 4 49q5 7 2 7q-4 4 -1.5 34.5t6.5 35.5q9 10 -1 52q-4 22 -2 31q3 9 -2 18q-8 16 -12 51q-2 11 -6 22q-5 12 -5 20q0 9 -14 15q-16 6 -35 6q-25 2 -38 4t-20 6t-6 9.5
t7 15.5q4 7 9 9t28 5q32 4 53 4zM379 470q-16 3 -47 4t-41 -1q-6 -1 -4 -8q2 -5 -5 -7q-5 -2 -6 -4.5t1 -12.5q3 -12 3 -33q0 -20 3 -23q2 -3 0 -8q-4 -13 -5 -30t3 -21q8 -8 0 -16t107 -6q49 2 60 4q17 3 26 41q5 21 0 34q-6 13 -22 35q-17 21 -17 26q0 14 -56 26zM425 249
q-26 3 -85.5 5t-61.5 0q-1 -1 -0.5 -40.5t2.5 -41.5q1 -2 -1 -19q-7 -35 2 -40q5 -3 2 -9q-2 -6 -2 -10q2 -6 7 -12.5t9 -6.5q3 0 3 -2t14 -4q21 -1 26 -5q5 -2 10 0q7 1 7 -3q2 -3 3 -3q16 0 32 -2q56 -8 73 2q10 4 12 4t10 6q6 6 12 8q7 2 11 11q6 8 1 15q-4 7 -1 10
q2 5 0 10q-4 7 -1.5 21.5t7.5 19.5q7 5 5 9q-3 11 -5 36q0 4 -12 8q-13 4 -16 8q-4 4 -8 4t-10 8q-7 9 -45 13z" />
    <glyph glyph-name="c" unicode="c" horiz-adv-x="632" 
d="M362 557q3 2 8 0q6 -2 6 -6q0 -7 39 -7q15 0 38 -5t29 -9q9 -4 31 -6q16 -1 33 -7q22 -10 44 1q12 7 18 7q8 0 15.5 -17.5t2.5 -24.5q-4 -4 -2 -10q6 -16 2 -19q-4 0 -4 -9q0 -8 -5 -11q-10 -7 -23 -47q-9 -29 -13 -33q-3 -6 -3 -15q-2 -18 -15 -15q-7 2 -7 -2
q-5 -7 -31 0l-11 3l-3 38q-1 36 -8 43q-6 6 -6 12t-7 16q-8 8 -8 12t-3 4q-2 0 -4 7q-1 5 -6 6t-33 2q-29 1 -34.5 2t-7.5 7l-3 8l-29 -2q-29 -3 -33 -7q-8 -5 -21 -7q-22 -4 -44 -18q-8 -6 -28 -28t-20 -25q0 -2 -5 -7q-4 -4 -3 -29q0 -25 -2 -25t-2 -11q0 -8 -7 -24
q-7 -12 -8 -48q-2 -66 7 -82q5 -10 7 -20q0 -7 6 -17q4 -10 4 -18q0 -11 7 -12q4 -1 17 -12l16 -16q6 -6 20 -15t17 -9q5 0 18 -11q30 -25 73 -26q29 -1 45 4q63 19 76 55q6 11 14 18q18 12 14 23q0 2 6 6q5 4 7 17.5t-2 17.5q-3 4 1 14q5 10 19 11q33 6 43 -12
q5 -11 4.5 -60.5t-7.5 -68.5q-6 -20 -3 -23q2 -5 0.5 -15.5t-4.5 -12.5q-4 -3 -9 -3q-6 0 -9 -5q-6 -4 -16 -4q-14 0 -22 -5q-33 -11 -72 -16q-4 0 -37 -5q-20 -3 -59.5 -1.5t-54.5 5.5q-13 3 -19 -3l-7 -7l-14 6q-14 7 -20 7q-16 0 -56 20q-7 3 -20 16q-11 11 -17 11
q-5 0 -5 6t-3 6q-2 0 -28 14q-19 12 -37.5 29.5t-22.5 28.5q-11 27 -19 30q-6 2 -5.5 8.5t6.5 12.5l8 8l-8 23q-7 21 -11 73q0 12 3 41q1 35 -2 37q-7 4 5 22q7 10 7 16q5 14 7 18q6 14 6 20q0 7 5 9t3 4q-2 3 4 5q11 2 11 15q0 1 4 5q4 2 16 21q13 19 22 26q9 6 13 11
q11 7 27 14q23 11 24 14q6 10 41 21q14 4 32 6t21 0q3 -3 37.5 1.5t38.5 8.5z" />
    <glyph glyph-name="d" unicode="d" horiz-adv-x="753" 
d="M109 529q14 2 65 -1t61 -7q9 -3 31 3q21 5 77 5q118 -1 162 -10q8 -2 17.5 -3.5t15 -3t6.5 -1.5t4 -2l3 -2q3 -4 9 -4q5 0 50 -20q9 -5 17 -14q10 -10 14 -10q6 0 6 -6t3 -6q6 0 32 -18.5t28 -24.5q4 -7 7 -7q2 0 8 -12q13 -32 18 -32q10 0 1 -16q-1 -2 -3 -4
q-6 -8 -1 -25q6 -18 6 -37q0 -21 2 -23q2 -3 -2 -37q-6 -33 -2 -37q6 -6 -4 -22q-8 -11 -8 -17q0 -3 -3 -9l-7 -14q-4 -14 -14 -22q-10 -10 -9 -12q2 -3 -3 -5q-8 -8 -17 -21q-12 -17 -20 -21q-8 -6 -10 -8q-5 -5 -24 -12q-21 -9 -23 -12q-2 -2 -13 -2q-9 0 -49 -10
q-38 -9 -49 -9t-15 -8l-3 -7l-72 1q-39 1 -84 1q-13 0 -18 6q-5 5 -62 4q-52 -1 -78.5 -1.5t-40.5 0t-17 1.5t-3 4q-3 11 -4 13q-4 6 2 16q4 10 21 11q37 4 63 28q6 6 9 6q1 0 0 3q-2 4 2.5 17t8.5 15q4 3 0 9q-3 6 2 13q5 6 2 12q-5 7 -2 43q2 21 -2 32q-3 11 0 23
q3 10 -1 22q-4 8 -10 64q-2 19 -2 41.5t2 23.5q2 2 -1 4q-4 2 -1 15t-4 19q-7 7 -7 13t-4 6t2 6q5 6 3.5 15t-8.5 14q-6 5 -42 14q-27 6 -34.5 9.5t-7.5 11.5t8 18.5t16 12.5zM436 469q-30 5 -37 10t-9 3t-23 -4q-28 -4 -31.5 -6.5t-1.5 -22.5q0 -27 -2 -32q-3 -9 1 -15
q4 -5 -1 -8q-4 -4 -3 -20q0 -16 -2 -28t2 -12q7 -2 -4 -17q-7 -8 -4 -17q2 -12 2 -25q0 -15 3 -18q4 -6 1 -23q-4 -46 5 -55q5 -5 5.5 -7t-4.5 -8q-2 -4 -4 -14.5t-1.5 -19t2.5 -8.5t0 -6q-2 -7 3 -10t3 -7q-3 -5 12.5 -23t20.5 -15q3 2 5 -3q3 -4 23 -4q29 0 29 -6
q0 -8 50 -1q21 3 27.5 5.5t20.5 14.5q17 14 35.5 34t20.5 26q5 11 6 70q0 48 4 54q3 6 1 13q-3 9 -3 14q0 8 -11 34q-18 43 -11 56q3 6 -12 21q-16 18 -37 34q-22 19 -24 22q-5 12 -57 24zM669 239q0 8 -3 8t-3 -8t3 -8t3 8z" />
    <glyph glyph-name="e" unicode="e" horiz-adv-x="677" 
d="M427 534q61 5 61 -1q0 -5 36 -6q37 -2 40 -1q2 1 24 3q19 2 26.5 -3t7.5 -19q0 -11 13 -37q12 -24 12 -29q0 -4 3 -4t5 -9t10 -17q15 -17 -5 -36q-21 -21 -39 -10q-11 7 -11 10t-10 6q-9 5 -9 7t-14 16q-13 12 -21 25q-7 11 -10 11q-5 0 -12 7q-8 6 -38 6q-28 0 -43 5
q-15 4 -23 3q-4 -1 -35 -3q-51 0 -51 -19q0 -4 3 -10q6 -2 -5 -42q-4 -19 -6 -64l-2 -47l19 1q18 1 22 -3q4 -5 10 1t40 6q32 -2 38 2q25 15 39 42q8 16 13.5 19.5t15.5 -1.5t10.5 -12.5t-7.5 -29.5q-10 -28 -10 -66q0 -37 7 -48q15 -18 -4 -39q-6 -8 -14 -5q-12 5 -26.5 25
t-14.5 33q0 8 -11 10q-17 3 -40 1q-7 0 -28.5 -0.5t-29.5 -0.5h-30l1 -35q2 -79 13 -92q4 -5 18 -7q9 0 11 -1.5t3 -9.5t1.5 -9t4.5 3q5 4 22 2q18 -2 19 -1q3 2 9 -4q6 -5 13 -2q6 2 19.5 2t17.5 -3q4 -2 7 3q5 8 47 13q20 4 24 8q6 6 11 6q4 0 8 9q13 22 14 23q8 16 7 19
q-3 7 3 9t18 0q33 -8 31 -13q-1 -3 3 -3q13 0 4 -13q-5 -7 -3 -14t-6 -16q-10 -12 -20 -35t-10 -32q2 -21 -13 -21q-6 0 -11 -7q-6 -6 -28 -6q-43 0 -68 -1q-46 -2 -46 1q0 2 -9 4q-8 1 -12 -4q-5 -6 -21 -4q-14 2 -21 6q-5 5 -20 2q-22 -2 -55 -1q-39 2 -48 0q-12 -2 -33 1
q-24 3 -33 0q-12 -4 -49.5 0.5t-43.5 10.5q-4 4 -9 4q-13 0 -17 7.5t4 16.5q6 6 32 10q27 3 30 0t10 -3q6 0 9 10q2 9 4 9q4 0 12 8q9 7 11 7t2 25q0 45 18 69q8 13 7 14l-10 4q-10 4 -9 12q0 4 2 64q2 55 7 76q4 26 3 38q-1 4 -2 17t-1 17q-2 19 -7 24q-4 6 -2.5 6t-5.5 10
q-13 18 -53 25q-14 1 -21 8q-6 7 -17 11q-20 10 -5 29q8 10 32 5q2 -1 24 -1q21 1 23 7q1 6 9 5q47 -10 71 -4q44 9 44 0q0 -5 4 -1q5 3 8 2q12 -8 30 -2q26 7 27 0q1 -6 10 -6.5t13 4.5q3 5 28 8z" />
    <glyph glyph-name="f" unicode="f" horiz-adv-x="659" 
d="M427 534q61 5 61 -1q0 -9 90 -9q26 1 33.5 -3.5t5.5 -20.5q-1 -16 11 -44q13 -26 13 -33q0 -4 4 -8q14 -14 6 -31q-5 -8 -15 -16.5t-15 -8.5q-3 0 -17 14q-13 13 -29 25q-15 10 -15 16q0 2 -8 10t-6 11q0 4 -10 11t-40 7q-28 0 -43 5q-15 4 -23 3q-4 -1 -35 -3
q-51 0 -51 -19q0 -4 3 -10q6 -2 -5 -42q-4 -19 -6 -64l-2 -47l19 1q18 1 22 -3q4 -5 10 1t40 6q32 -2 38 2q25 15 39 42q8 16 13.5 19.5t15.5 -1.5t10.5 -12.5t-7.5 -29.5q-10 -28 -10 -66q0 -37 7 -48q15 -18 -4 -39q-6 -8 -14 -5q-12 5 -26.5 25t-14.5 33q0 8 -11 10
q-17 3 -40 1q-7 0 -28.5 -0.5t-29.5 -0.5h-30l1 -35q1 -89 18 -99q2 -2 4 -1q3 2 7 -4q3 -7 9 -7q7 0 7 -6q0 -7 8 -15q8 -10 35 -13q30 -4 36 -4q9 -1 11 -12q3 -9 3 -14q0 -11 -24 -11q-14 0 -15 -3q-1 -4 -20 -1q-18 2 -28 2h-105h-26q-48 0 -61 -2q-41 -3 -79 6
q-7 2 -7 7q0 6 -5 8q-10 3 0 21q6 9 33 10q27 3 27 0q3 -6 6 -2q1 1 1 3q0 5 7 5q6 0 6 4q0 5 9 10q7 5 8 9.5t1 23.5q0 45 18 71q8 13 7 14l-10 4q-10 4 -9 12q0 4 2 64q2 55 7 76q4 26 3 38q-1 4 -2 17t-1 17q-2 19 -7 24q-4 6 -2.5 6t-5.5 10q-13 18 -53 25q-14 1 -21 8
q-6 7 -17 11q-20 10 -5 29q8 10 32 5q2 -1 24 -1q21 1 23 7q1 6 9 5q47 -10 71 -4q44 9 44 0q0 -5 4 -1q5 3 8 2q12 -8 30 -2q26 7 27 0q1 -6 10 -6.5t13 4.5q3 5 28 8z" />
    <glyph glyph-name="g" unicode="g" horiz-adv-x="655" 
d="M362 557q3 2 8 0q6 -2 6 -6q0 -7 39 -7q15 0 38 -5t29 -9q9 -4 31 -6q16 -1 33 -7q22 -10 44 1q12 7 18 7q8 0 15.5 -17.5t2.5 -24.5q-4 -4 -2 -10q6 -16 2 -19q-4 0 -4 -9q0 -8 -5 -11q-10 -7 -23 -47q-9 -29 -13 -33q-3 -6 -3 -15q-2 -18 -15 -15q-7 2 -7 -2
q-5 -7 -31 0l-11 3l-3 38q-1 36 -8 43q-6 6 -6 12t-7 16q-8 8 -8 12t-3 4q-2 0 -4 7q-1 5 -6 6t-33 2q-29 1 -34.5 2t-7.5 7l-3 8l-29 -2q-29 -3 -33 -7q-8 -5 -21 -7q-22 -4 -44 -18q-8 -6 -28 -28t-20 -25q0 -2 -5 -7q-4 -4 -3 -29q0 -25 -2 -25t-2 -11q0 -8 -7 -24
q-7 -12 -8 -48q-2 -66 7 -82q5 -10 7 -20q0 -7 6 -17q4 -10 4 -18q0 -11 7 -12q4 -1 17 -12l16 -16q6 -6 20 -15t17 -9q5 0 18 -11q30 -25 73 -26q29 -1 45 4q62 20 78 57q6 13 10 13q3 1 -2 5t-3 6t1 13.5t-5 18.5q-5 12 -5 19t-2.5 10t-13.5 9q-15 8 -61 9q-40 0 -48 3.5
t-3 18.5q4 13 9 15q26 9 99 7q50 -1 120 3q43 4 46 2q5 -3 4 -18q-4 -21 -16 -25q-11 -2 -10 -10q0 -2 3 -3q4 -2 5 -4.5t-2 -4.5t-8 -2l-9 -1q0 -1 -2 -7q-2 -4 2 -4q2 0 7 1h7l-1 -1q-5 -4 -1 -10q3 -6 -3 -9q-14 -5 -14 -6t4 -2q6 -3 5 -8q-2 -6 -4 -6t-4 -24
q-1 -20 -8 -44q-6 -18 -3 -23q2 -4 1 -15t-5 -12q-3 -3 -3 -6q0 -4 -6.5 -15.5t-10.5 -14.5q-11 -7 -34 4q-32 17 -66 4q-43 -16 -108 -12q-40 2 -51 5q-13 3 -19 -3l-7 -7l-14 6q-14 7 -20 7q-16 0 -56 20q-7 3 -20 16q-11 11 -17 11q-5 0 -5 6t-3 6q-2 0 -28 14
q-19 12 -37.5 29.5t-22.5 28.5q-11 27 -19 30q-6 2 -5.5 8.5t6.5 12.5l8 8l-8 23q-7 21 -11 73q0 12 3 41q1 35 -2 37q-7 4 5 22q7 10 7 16q5 14 7 18q6 14 6 20q0 7 5 9t3 4q-2 3 4 5q11 2 11 15q0 1 4 5q4 2 16 21q13 19 22 26q9 6 13 11q11 7 27 14q23 11 24 14
q6 10 41 21q14 4 32 6t21 0q3 -3 37.5 1.5t38.5 8.5z" />
    <glyph glyph-name="h" unicode="h" horiz-adv-x="803" 
d="M271 521q6 7 13 6q12 -3 29 -4q24 -2 53 -7q36 -4 65 -4h32v-10q0 -6 -3.5 -9t-17.5 -9q-37 -17 -47 -24.5t-20 -27.5q-11 -22 -12 -55q0 -40 3 -64l4 -29l15 2q34 5 80 4.5t68 -6.5q15 -4 19 -3q4 0 30 -6l24 -7q1 4 1 8q0 8 -3 8q-4 0 -4 3t5 3t6.5 8.5t-2.5 14.5
q-5 8 -5 37q-2 62 -4 64q-3 2 -3 15q0 11 -4 16.5t-21 18.5q-12 7 -14 14q-1 6 -13 7q-12 0 -12 4q-2 4 5 10.5t14 6.5q8 0 13 5q3 6 13 1q9 -3 47 -2q33 3 72 -2q36 -5 41 -2q4 2 15 3.5t19.5 1.5t9.5 -1q0 -3 8 -5q6 -1 7.5 -3t1.5 -13v-16l-18 -9q-34 -16 -59 -70
q-10 -24 -2 -100q2 -41 1 -53q-2 -18 1 -21q3 -2 3 -62q0 -62 5 -67q5 -7 5 -19q-1 -13 7 -19q9 -7 7 -10q1 -2 4 -3q3 0 4.5 -1t0.5 -3q-1 -1 1 -3t6.5 -4.5t11.5 -4.5q20 -9 20 -16t-3.5 -12.5t-8.5 -5.5q-7 0 -8 -3q-1 -4 -24 -2q-79 8 -138 -4q-13 -2 -39 0q-22 3 -35 3
q-8 0 -14 4q-6 5 -2 13t8 8q5 0 5 5t16 10q17 8 26 16q9 9 14 31q3 19 3 49q0 28 2 44q1 3 2 10.5t1 9.5q0 4 0.5 9t0.5 6q0 4 8 4q9 0 9 2q1 1 -1 1.5t-7 0.5q-11 -2 -58 2.5t-78 10.5q-86 18 -101 -2q-4 -5 -3 -55.5t5 -57.5q7 -12 11 -31q3 -16 21 -35q17 -17 21 -16
q2 0 3 -5.5t0 -12t-3 -7.5q-3 -4 -81 0q-24 1 -69 -1q-1 0 -54 -5q-11 0 -35 -3q-21 -4 -26.5 6t10.5 23q16 12 27 18q20 9 38 31.5t17 38.5q-1 78 4 107q3 10 -2 21q-4 9 -3 32q2 26 2 39q0 12 3 18q4 2 -1 5q-4 2 -7.5 24.5t-2.5 41.5q2 12 -2 12q-8 0 -1 9q1 2 3 4
q12 10 -2 13q-9 1 -13 18q-6 14 -6 18q-5 3 -11 6q-7 5 -22.5 7t-19.5 -1q-1 -1 -7 3q-9 7 7 24q7 7 49 7q42 1 46 7z" />
    <glyph glyph-name="i" unicode="i" horiz-adv-x="498" 
d="M169 525q12 5 31.5 6t23.5 -3q2 -2 24.5 -3t25.5 1q4 3 79 -8q26 -4 29 0q3 6 52 9t57 -2q4 -3 2 -10q-4 -20 -45 -36q-25 -10 -30 -15q-4 -4 -15 -8q-24 -7 -40 -47q-7 -16 -7 -47q0 -88 5 -133q1 -3 3 -62q1 -57 7 -63t13 -20q6 -12 9 -12t10 -7q15 -20 49 -30
q17 -5 21 -5q2 1 2 -3q1 -11 -6 -23q-4 -7 -7.5 -8.5t-17.5 -1.5q-31 0 -31 11q0 7 -3 -1q-2 -5 -11 -6t-60 -1q-55 1 -82 -2q-12 -3 -41 -1q-22 2 -35 -1q-9 -4 -14 -1q-6 2 -21 2q-17 -2 -19 3q-2 2 4 15q5 11 13 11q6 0 6 4q0 2 13.5 9.5t16.5 6.5q5 -1 16.5 5.5
t17.5 13.5q8 10 15 24q5 14 11 16q3 2 2 6q-2 4 5 15q6 11 3 33q-2 18 -1 67t5 67q2 19 1 24q-2 7 5 10l1 4q-6 0 -7.5 5t-6.5 35q-1 18 -5 37q-1 10 4 13q7 1 0 4q-5 3 -5 9q0 9 -5 17q-9 20 -39 20q-7 0 -10 3q-2 3 -11 5q-7 1 -18 7q-2 1 -7.5 3t-6.5 2q-6 2 -6 11
q0 15 31 26z" />
    <glyph glyph-name="j" unicode="j" horiz-adv-x="498" 
d="M147 519q3 1 14 1q4 -1 119 -6q31 -1 73 -6q32 -4 33 0q2 5 52 7.5t54 -2.5q3 -3 1 -11q-6 -22 -59 -40q-21 -7 -21 -10t-6 -1q-18 5 -37 -33q-9 -21 -8 -25q2 -6 -1 -6t-7 -26t-2 -35q2 -11 -1 -34q-3 -22 -1 -31q2 -6 0 -23q-3 -19 -2.5 -46.5t3.5 -31.5q4 -4 2 -14
q-2 -13 1 -44q5 -40 -10 -87q-5 -17 -15 -27.5t-39 -27.5q-43 -27 -113 -27q-58 0 -98.5 17t-53.5 47q-15 32 -9 74t29 67q7 7 34 14t50 7q38 0 56 -36q12 -25 0 -45q-12 -19 -47 -19h-19v-21q0 -21 3 -24q4 -2 4 -8q0 -4 9.5 -12.5t18.5 -12.5q24 -7 59 28q19 17 19 25
q0 7 5 10q4 3 3 31q-3 26 -3 51t2 26q2 2 2 25q0 31 6 91q3 28 3 40q-1 5 8 8l10 2h-9q-10 0 -9 11q0 5 -3 15q-4 28 -4 29q-2 22 -3 24q-2 3 -1 5.5t3 3.5l8 4l11 4l-14 3q-12 2 -15 5.5t-3 15.5q0 10 -4.5 14t-18.5 6q-13 3 -31.5 12.5t-21.5 14.5q-2 5 -7 5q-3 0 -4.5 7
t0 14.5t5.5 7.5zM126 94q-3 4 -6.5 2.5t-3.5 -6.5q0 -6 3 -6q2 0 4.5 2t3 4.5t-0.5 3.5z" />
    <glyph glyph-name="k" unicode="k" horiz-adv-x="920" 
d="M119 525q86 3 138 -2q49 -5 79 0q11 2 14.5 -1.5t3.5 -16.5q0 -15 -4 -21t-17 -9q-39 -8 -48 -18t-8 -45l2 -33q1 -14 1 -31q0 -22 3 -43q1 -6 1 -8t-1.5 -2.5t-5.5 -0.5q-8 0 -8 -4q0 -3 25.5 -3t35.5 3q8 3 27 7q26 7 26 9q-2 3 8 11.5t18 9.5q10 2 10 4q0 3 4 3
q3 0 12 15q8 16 15 23q5 6 6 14t2 45q1 51 8 65q5 11 12 16q4 3 91 3q85 -1 89 3q5 4 19.5 1.5t17.5 -7.5q3 -4 1 -13q-1 -8 -23 -13q-46 -11 -61 -30q-5 -7 -13 -29t-9 -30q-2 -8 2 -10q4 -3 -1 -7q-11 -9 -2 -16q10 -7 -9 -17q-7 -4 -16 -21q-11 -19 -16 -22q-7 -3 -5 -9
q2 -4 -3 -6q-4 -1 -4 -5q1 -1 0 -2t-2 -1q-5 0 -9 -6l-7 -7q-8 -7 -13 -12q-24 -19 -11 -19q8 0 14 -9t16 -36q25 -71 92 -137q36 -36 54 -46q14 -5 16 -9q1 -1 12 -8q52 -27 68 -31q10 -3 28 -9q5 -2 42 -6q66 -3 70 -14q2 -4 6 -4t3 -7q-6 -20 -26 -23q-45 -6 -140 8
q-93 13 -118 27q-30 14 -37 16q-34 12 -84 45q-30 21 -35 21q-10 0 -31 25.5t-23 40.5q-2 14 -11 27q-9 11 -15 27q-7 15 -10 15q-4 0 -11.5 9t-7.5 13q0 6 -3 6t-8 14t-9 14q-5 0 -7 4q-6 11 -40 23q-19 5 -21.5 2.5t-0.5 -26.5t-1 -35q-3 -8 0 -11t0 -18q-8 -29 2 -40
q5 -5 2 -11q-6 -9 6 -21q16 -15 36.5 -27t30.5 -12q7 0 17 -6q17 -14 2 -37q-6 -10 -19 -10q-15 0 -23 3q-10 3 -13 0q-1 -4 -22 -2q-21 3 -27 -3q-16 -11 -38 4q-10 7 -25 7.5t-57 -4.5q-36 -4 -38 -2q-4 3 -16 -1q-10 -4 -27.5 -3.5t-24.5 4.5t-7 16q0 8 2 11.5t11 7.5
q3 2 43 19q7 3 15.5 6.5t14.5 6t8 3.5q16 6 20 41q4 39 0 61q-2 6 2 15q4 10 4 38q1 39 5 45q7 13 3 51q-3 29 0 39q3 12 -2 24q-5 20 -5 33q-1 11 -6 38l-4 19l-18 8q-19 8 -39 10q-26 4 -30 6q-7 2 -8 4.5t0 11.5q3 13 11 20q9 7 57 7z" />
    <glyph glyph-name="l" unicode="l" horiz-adv-x="654" 
d="M176 524q35 5 70 -2q15 -3 29 -3q10 0 20 -10q7 -8 11 -8.5t8 7.5q4 5 8 6t23 0q5 0 76 -3q48 0 54 -3q2 -2 1 -15t-3 -15q-6 -6 -58 -22q-46 -12 -72 -40q-7 -7 -8.5 -10.5t0.5 -13.5q2 -20 1 -46q-2 -45 -2 -99.5t2 -100.5t5 -46q4 0 6 -10q5 -12 17.5 -21.5t24.5 -9.5
q11 0 37 -6q36 -9 64 6q13 8 16 4q4 -5 21 1q32 10 48 41q7 12 13 18q8 7 9 18q4 12 13 21q13 16 32 -2q6 -5 6.5 -8.5t-2.5 -13.5q-6 -21 -8.5 -57.5t2.5 -39.5t5 -31q2 -27 4 -32q2 -4 -1 -6t-9 -17q-5 -11 -7.5 -13t-9.5 0q-6 1 -21 6q-10 5 -20 5q-9 0 -9 2t-19 2
q-9 -1 -68 -3q-47 0 -50 -3q-5 -5 -27 3q-13 5 -36 2q-27 -4 -28 -5q-6 -1 -9 6q-3 5 -8 6t-28 0q-33 -2 -37 2q-3 3 -72 0t-72 1q-3 5 -24 10q-18 3 -8 24q4 9 19 9q13 0 38 9q18 6 23.5 10t16.5 19q26 34 34 29q2 -1 1 6v4q-2 14 -2 45t-5 39q-4 7 1 19q7 12 4 25
q-1 7 -5 59q-2 48 -3 49q-3 5 -1 35t6 47q6 25 4 28q-2 5 -14 14q-13 8 -46 9q-32 0 -47 8q-16 7 -16 12q0 4 11 22q8 12 11.5 15t18.5 6q26 5 41 6z" />
    <glyph glyph-name="m" unicode="m" horiz-adv-x="833" 
d="M127 525q17 2 59 1t61 -4q3 -1 49 -6q26 -2 33.5 -5.5t6.5 -10.5q-2 -5 5 -8q8 -3 17 -23q8 -18 0 -21q-4 -2 -4 -6q0 -5 4 -5q5 0 5 -4q0 -5 5 -8q4 -4 4 -10t3 -6q1 0 2 -8t0 -17t-3 -12q-2 -4 -14 -4h-11l12 -5q11 -4 11 -9q0 -2 5 -5q4 -1 9.5 -12.5t5.5 -18.5
q-2 -5 3 -7q2 -3 1 -5q-2 -2 9 -10q11 -7 11 -16q0 -8 4 -8t-1 -5q-3 -5 -11 -5q-6 0 -14 -6l-8 -6h12q28 0 28 -19q0 -10 6 -22q6 -14 6 -17q0 -5 3 -5q2 0 4 -8q1 -6 5 4q1 4 5 15q7 22 22 63q14 33 14 39q0 2 15 40q32 85 32 104q0 13 8 27q8 19 9 26q2 7 8 15q7 8 34 9
q28 2 50 -3q23 -5 58 -9q33 -4 38 0q5 5 37 5q30 0 39.5 -2.5t9.5 -10.5q0 -7 -3.5 -15t-6.5 -8q-2 0 -16 -6q-12 -7 -16 -7q-5 0 -28 -14q-37 -22 -34 -30q0 -2 -4 -12q-5 -8 -5 -21q2 -11 -2 -20q-7 -13 -4 -171q0 -32 -2 -61l-2 -52l10 -9q10 -12 13 -21q3 -10 7 -10
l12 -10q10 -9 29 -18q19 -10 23.5 -15.5t-0.5 -12.5l-5 -9l-39 2q-45 2 -143 -1q-79 -2 -95 -5q-24 -4 -24 2q0 23 21 31q14 5 14 8q0 2 4 1q2 -1 9.5 8t14 19.5t6.5 13.5t11 16q11 12 11 25q0 37 3 37q1 21 2 47q0 48 2 50q3 4 7 57q0 14 8 16q1 0 2 1q3 1 0 2q-5 0 -7 4
q-3 3 -3 51q-1 25 -1 49q-2 2 -5 2q-4 0 -13 -27q-8 -28 -18 -51q-12 -31 -22 -64q-20 -55 -24 -67q-3 -7 -7 -18.5t-9 -27t-8 -23.5q-35 -102 -49 -131q-3 -4 -6 -16q-5 -22 -34 -15q-11 4 -15 8.5t-8 22.5q-4 20 -8 22t-8 19q-6 25 -12 47t-14 58q-3 15 -8 20q-5 3 -1 9
q2 4 1 5t-6 1q-6 0 -7 3.5t-1 24.5v31q0 4 -7 4q-7 2 -21.5 26t-17.5 39q-4 15 -2 44q1 30 -1.5 39t-13.5 15q-15 7 -17 0q-3 -9 -1 -109q5 -167 8 -170q3 -4 3 -8l1 -3q1 -3 1.5 -8t1.5 -8q4 -18 12 -33q9 -15 19 -15t10 -5t11.5 -18.5t15.5 -13.5q12 0 7 -18
q-4 -12 -13 -18q-9 -5 -34 -2q-36 6 -101.5 3.5t-107.5 -11.5q-8 -1 -20 8q-11 11 -11 14q0 8 21 16q6 2 8 7t15 10q11 4 35 26.5t30 34.5q10 16 12 19q6 11 8 17q1 2 3 7t3 7q2 5 0 144t-4 165q-3 24 -58 30q-30 2 -37 2q-14 0 -10 19q2 7 23 13q15 5 40 10z" />
    <glyph glyph-name="n" unicode="n" horiz-adv-x="851" 
d="M230 534q20 2 58 2h39l1 -8q1 -6 2 -7t5 0q3 1 6 -2t8 -12q11 -26 27 -44q3 -6 3 -7q0 -4 4 -7q1 -1 3 -3.5t4.5 -6t4.5 -5.5q15 -21 78 -80q4 -4 18 -17t19 -17q18 -16 23 -18t5 -7t7 -12q1 -1 41 -45l8 -9l2 -1l5 -5t7 -6q14 -14 17 -14t6 -7q6 -8 14 -13q9 -5 9 -9
q0 -6 5 -9q9 -8 11 6q0 6 -1 13q-3 14 -3.5 67t2.5 76q2 20 -1 28q-5 12 -7 33.5t1 26.5q2 3 -4 5q-7 2 -7 6q0 10 -40 36q-34 22 -34 34q0 7 -8 7q-17 0 -5 14q6 6 60 6q127 0 205 -6q17 -3 18 -7q2 -7 -4.5 -12.5t-22.5 -9.5q-36 -8 -57 -38q-11 -16 -14 -40t-2 -98
q2 -200 8 -212q5 -12 1 -28q-4 -18 -8 -19q-4 -2 -4 -38q0 -8 -0.5 -18t-1 -15t-0.5 -6q0 -14 -26 -14q-17 0 -22 2t-5 9q0 19 -14 5q-13 -11 -29 1q-26 20 -64 69q-6 11 -13 15q-5 2 -5 7t-5 5q-13 0 14 19l2 2l14 11l-8 9q-7 6 -8.5 6t-4.5 -4q-5 -6 -17 -6t-18 6t-6 10
q0 3 -6 3t-16 9.5t-10 14.5q0 17 -18 21q-11 2 -30.5 19.5t-19.5 25.5q0 5 -13.5 20t-17.5 15t-15 11.5t-11 16.5t4 9t-3 4q-12 0 -20.5 7.5t-8.5 17.5q0 6 -9 7q-8 2 -17 16t-12 14t-3 5q0 4 -4 6q-6 2 -6 8q-4 8 -18 14q-15 7 -16 3q-3 -5 9 -9q9 -4 10.5 -9.5t-2.5 -25.5
q-3 -12 -5 -58q-2 -43 3 -45q4 -1 0 -10t-4 -70t3 -64q2 -2 2 -8q0 -9 9 -21.5t16 -13.5q9 -1 12 -9q2 -7 17 -24q15 -15 27 -18q12 -1 14 -4t-3 -13l-5 -12l-72 2q-73 2 -76 5q-6 5 -38 5t-52 -4q-33 -6 -33 2q0 25 19 37q35 20 63 43q9 9 8 21q0 11 4 25t4 17q0 6 3 7
q2 2 2.5 26t-2.5 44q-2 28 0 39q2 19 -1 47q-1 6 -2.5 16.5t-2.5 18.5t-1 12q-2 19 1 40q4 38 -1 51t-28 28q-47 31 -47 41q0 6 5 14t16 10.5t48 2.5q51 3 54 3z" />
    <glyph glyph-name="o" unicode="o" horiz-adv-x="631" 
d="M305 531q12 6 16 2q5 -7 7 -5q0 1 -1 4l5 2q6 0 25 -1q43 -2 60 -8q7 -3 21 -3q11 0 16 -5q3 -5 34 -21q32 -16 61 -45q30 -32 30 -34q0 -5 2 -5q3 0 7 -9t8 -9q3 0 3 -15q0 -14 6 -18q7 -5 4 -5v-1q0 -1 1 -3.5t2 -5.5q5 -10 5 -30q0 -19 4 -35q10 -31 2 -36
q-5 -5 -6 -24q-2 -56 -17 -81q-28 -42 -28 -54q0 -5 -6.5 -14.5t-9.5 -9.5q-4 0 -25 -23q-18 -20 -47 -38.5t-54 -25.5q-22 -7 -27 -12q-8 -8 -43.5 -5t-66.5 13q-17 6 -34 4q-19 0 -29 5q-6 5 -21 10q-11 4 -33 26t-25 32q-7 23 -26 39q-8 7 -14.5 23.5t-4.5 23.5
q0 7 -5 19q-19 42 -15 46v2q0 2 -1 5.5t-2 7.5q-4 13 2 30q6 18 6 28q0 38 30 99q20 42 20 47t5.5 10.5t11.5 5.5q7 0 13 8.5t6 17.5t9 15q25 15 36 15q7 0 7 5q0 6 21 14q20 11 26 13q4 3 11 3q4 0 18 6zM389 478q-19 7 -35 2q-3 -1 -14 -3t-15 -3q-17 -3 -27 -16
q-53 -69 -50 -90q2 -6 -1 -6q-2 0 -3.5 -6t1.5 -8q2 -5 -4 -19q-7 -15 -6 -57q0 -98 13 -117q6 -12 6 -16q0 -14 20 -57q8 -18 26.5 -39t26.5 -21q7 0 17 -7l13 -6v8q0 8 7 11q8 5 21.5 17t12.5 15q-1 2 3 2q2 0 5 -1q10 -1 19 9q10 12 10 16t2 4q3 0 13 19.5t9 23.5
q-2 3 2 5t0 21q-3 20 1 22q4 4 1 11q-3 6 -1 15q0 2 3 17q0 11 7 18q6 6 3 11l-5 5q0 2 -2 8q-1 2 -1.5 4.5t0.5 3.5q2 2 -1 5q-3 4 7 10q9 6 7 17q-2 10 -6 14q-17 15 -13 28q2 6 -4 14q-12 16 -14 56q0 9 -3 12q-4 4 -8 11q-13 25 -43 37z" />
    <glyph glyph-name="p" unicode="p" horiz-adv-x="617" 
d="M190 524q43 5 203 0q55 -3 118 -29q27 -11 31 -11q3 0 15 -8q11 -10 16 -8q7 1 17.5 -14.5t16.5 -35.5q6 -25 4 -45q-5 -50 -38 -70q-10 -8 -10 -11q0 -5 -5 -7q-4 -1 -12 -9q-12 -10 -22 -14q-14 -7 -14 -11t-9 -8q-2 -1 -5.5 -3t-8.5 -5t-7 -4q-19 -9 -31 -1q-8 6 -8 2
q0 -14 -22 -14q-13 0 -19 -3q-9 -4 -81 -8l-40 -2l-1 -15q0 -16 2 -18q1 -1 -1 -19q-7 -35 2 -40q5 -3 2 -9q-2 -6 -2 -10q1 -4 6.5 -11.5t7.5 -7.5q1 0 11 -8q8 -8 23 -15.5t22 -7.5q10 0 19.5 -8t10.5 -16t-4 -17.5t-11 -11.5q-7 -4 -25 0q-15 3 -24 -1q-6 -3 -23 0
q-17 2 -26 -3q-17 -10 -39 7q-9 6 -48 2q-42 -4 -62 -4q-27 -2 -31 -4q-7 -3 -21 -2t-22 5q-7 4 -7 15t6.5 16.5t32.5 16.5q23 9 48 20q13 7 16.5 10.5t6.5 12.5q4 14 4 56q2 40 4 49q5 7 2 7q-3 4 -1 34.5t6 35.5q3 4 4 17.5t-1 21.5q-3 11 -2 55q0 11 -4 29q-4 20 -4 30
q-1 6 -6 29q-3 11 -5 13.5t-10 4.5q-6 1 -57 3q-40 1 -52.5 4t-12.5 13t9 18l8 9l47 2q19 1 66 5q22 4 47 6zM379 470q-16 3 -47 4t-41 -1q-6 -1 -4 -8q2 -5 -5 -7q-5 -2 -6 -4.5t1 -12.5q3 -12 3 -33q0 -20 3 -23q2 -3 0 -8q-4 -13 -5 -30t3 -21q9 -9 -1 -17q-5 -5 -3 -22
q2 -18 2 -26l1 -9l25 2q11 1 36 5q1 1 39 8q64 12 64 20q0 4 13 23q13 23 17 39q5 22 0 34q-6 13 -22 35q-17 21 -17 26q0 14 -56 26z" />
    <glyph glyph-name="q" unicode="q" horiz-adv-x="874" 
d="M300 526q7 4 47 3q52 -1 67 -7q10 -4 21 -4q12 0 15 -4q7 -7 35 -20q31 -17 52 -39q40 -40 45 -53q3 -8 7 -8t4 -15t3 -16q14 -9 14 -60q0 -6 5 -21q5 -16 3 -21t1 -7q4 0 -3 -7q-12 -12 -6 -30q1 -5 -2.5 -28t-6.5 -28q-2 -4 -2 -7l-1 -2q-2 -3 -4 -6.5t-4 -6.5
q-8 -12 -8 -15q0 -2 -8 -14t-8 -17q0 -19 -14 -23q-6 -2 -6 -10q1 -10 -12 -22q-22 -24 -41 -26l-13 -1l31 -24q76 -56 92 -56q4 0 18 -6q42 -21 94 -31q5 -1 38 -7q21 -4 38 -2q16 2 41.5 -0.5t26.5 -6.5q1 -3 6 -3q4 0 4 -6.5t-3 -12.5q-6 -11 -45 -16q-20 -1 -45 -6
q-22 -2 -40 -2q-66 5 -128 14q-71 15 -78 19l-7 2q-7 2 -11 3q-33 6 -58 29q-13 11 -22 14q-7 1 -22 11q-9 7 -23 21.5t-15 17.5q0 2 -8 2q-27 0 -71 14q-15 5 -35 5q-19 0 -28 6q-10 6 -21 9q-11 4 -31.5 24.5t-22.5 30.5q-2 9 -11.5 23t-16.5 18q-6 5 -12 20.5t-5 23.5
q0 7 -5 19q-11 27 -13 39q0 2 -5 22q-3 15 2 28q6 21 7 29q5 44 17 71q31 65 31 69t7 11t12 7q6 0 11.5 7.5t5.5 16.5q0 11 13 19q19 8 24 9q12 2 12 6q0 5 21 14q5 3 11 5.5t10 4.5t5 3q9 3 11 3q5 0 13 4zM389 475q-15 5 -22 5t-33 -6l-27 -7l-17 -22q-40 -50 -40 -73
q-2 -10 -4 -10t0 -10q2 -12 -5 -24q-6 -14 -6 -50q0 -98 13 -117q6 -10 6 -16q0 -7 13 -38.5t20 -40.5q23 -30 43 -37l9 -2q0 1 -2 3q-8 11 -17 48l-5 25l8 15l7 15l21 -1q19 0 36 -5l28 -8q13 -4 16 -14l5 -8q4 4 12 21.5t7 19.5q-2 6 1 6q4 0 2 16q-2 18 -1 21
q0 1 0.5 7.5t0.5 11.5q4 38 11 45q6 8 1 9q-5 2 -3 7q2 4 -1 6q-4 3 -2.5 12t6.5 14q7 5 6 15q0 10 -4 10q-3 0 -9.5 12.5t-5.5 17.5q1 6 -4 15q-11 18 -13 51q-2 18 -26 46q-7 7 -25 15z" />
    <glyph glyph-name="r" unicode="r" horiz-adv-x="967" 
d="M186 528q37 2 129.5 1t105.5 -4q62 -15 79 -25q8 -4 29 -11q20 -7 26 -15q7 -9 15 -7q9 2 19.5 -12t17.5 -37q6 -25 4 -45q-5 -50 -38 -70q-10 -8 -10 -11q0 -4 -7 -8q-41 -23 -46 -30q-4 -4 -8 -4q-3 0 -6.5 -3.5t-5.5 -7t0 -4.5q10 -3 14.5 -12.5t12.5 -38.5
q10 -42 25.5 -66.5t47.5 -52.5q64 -59 98 -68q10 -3 25 -10q12 -6 13 -6q2 0 16 -6q24 -10 74 -20t64 -7q10 3 39 0.5t33 -6.5q3 -5 8 -5q2 0 3 -3.5t-0.5 -8.5t-4.5 -9q-10 -14 -87 -13q-58 0 -64 1q-3 1 -50 5q-136 12 -175 36q-14 9 -24 12q-23 8 -43 26q-2 1 -10 8
t-13 11q-13 10 -25 27q-9 15 -11 15t-19.5 22t-21.5 31q-8 16 -23.5 34t-22.5 20q-7 1 -14.5 10.5t-5.5 13.5q2 3 -3 5t-5 6t-10 12q-10 10 -31 9l-21 -2l-1 -15q0 -16 1 -17q3 -3 1 -16q-3 -14 2 -17q5 -2 -1 -13q-5 -10 -1 -14q6 -3 3 -9q-2 -6 -2 -10q1 -4 6.5 -11.5
t7.5 -7.5q1 0 11 -8q8 -8 23 -15.5t22 -7.5q10 0 19.5 -8t10.5 -16t-4 -17.5t-11 -11.5q-7 -4 -25 0q-15 3 -24 -1q-6 -3 -23 0q-17 2 -26 -3q-17 -10 -39 7q-9 6 -48 2q-42 -4 -62 -4q-27 -2 -31 -4q-7 -3 -21 -2t-22 5q-7 4 -7 15t6.5 16.5t31.5 15.5q37 13 44 16
q30 12 39 29q8 14 8 52q-1 29 -1 56q0 16 -2 26q-4 18 0 33q2 8 4 54q0 38 4 44q12 13 -2 22q-7 5 -7 11q0 8 -5 16q-5 10 -5 23t7 17q6 5 4.5 10.5t-10.5 5.5l-3 2q6 2 6 4v6q0 6 -74 9q-38 2 -47.5 5t-9.5 12q0 8 5 16l7 10l60 5q15 1 33 2t34 2.5t21 1.5zM379 470
q-16 3 -47 4t-41 -1q-6 -1 -4 -8q1 -3 -1 -5t-9 -4q-10 -4 -7 -7q4 -1 0 -14q-6 -20 0 -20q8 0 10 -20t-6 -27q-3 -2 -4 -4t0 -3.5t4 -1.5q4 0 3 -19q-1 -18 2 -18q1 -1 -1 -4q-4 -4 -2 -26q3 -18 3 -31l1 -9l25 2q11 1 36 5q1 1 39 8q64 12 64 20q0 4 13 23q13 23 17 39
q5 22 0 34q-6 13 -22 35q-17 21 -17 26q0 14 -56 26z" />
    <glyph glyph-name="s" unicode="s" horiz-adv-x="849" 
d="M642 532q9 9 43 0l20 -6l1 -27q0 -39 1 -55q0 -29 5 -34q6 -3 1 -8q-11 -14 -47 -17q-21 -1 -27 5q-13 15 -11 40q1 6 -18 24q-32 29 -72 24q-21 -3 -26.5 -5.5t-3.5 -7.5q1 -5 -3 -21q-4 -15 -3 -16q8 -13 0 -34q-4 -9 6 -20q5 -6 32 -24q4 -2 32 -21q23 -14 58 -21
q32 -8 70 -21q25 -9 33 -9q7 0 12 -6.5t3 -12.5q-4 -8 -8 -13l-5 -8l11 2q10 3 19 -7q8 -9 25.5 -37.5t21.5 -37.5q4 -8 4 -14q0 -7 5 -10q5 -6 4 -7v-23q1 -15 2 -18t8 -5q9 -4 9 -9q0 -9 -3.5 -29.5t-5.5 -22.5q-3 -3 -3 -7t-11 -17t-11 -17t-6.5 -6t-11.5 0q-5 1 -11 -7
q-6 -10 -31 -35q-27 -28 -56 -42q-52 -26 -81 -31q-10 -1 -30 -8q-12 -5 -40 -11q-34 -7 -43 -10q-54 -14 -71.5 -16t-20.5 5t-17 8q-4 1 -14 2.5t-14 2.5t-10.5 2t-15.5 3t-15 3q-71 13 -93 25q-6 4 -38 21q-26 14 -58.5 47.5t-43.5 56.5q-13 28 -7 43q4 7 -3 20
q-7 10 -7 18q0 26 24 72q13 28 42 56t54 39q66 31 131 14q35 -8 46 -21q5 -5 0 -11.5t-16 -9.5q-11 -4 -38 4q-5 2 -13 4t-13.5 4t-7.5 2q-8 1 -23.5 -1.5t-20.5 -6.5q-16 -18 -16 -34q-2 -13 -7 -21q-7 -9 -7 -14q0 -11 -12 -33q-5 -7 -12 -7t-7 -8t5 -8q6 0 12.5 -8
t6.5 -15q0 -6 3 -9q3 -4 8 -20t5 -22q0 -7 -6 -13q-5 -5 -5.5 -7t4.5 -7q10 -10 15 -14q2 -2 6.5 -6t5.5 -5q4 -4 14 -4q7 0 16 -5.5t11 -11.5t4 -6q4 0 23 -15.5t23 -21.5q6 -8 4 -13q-2 -6 1 -6q5 0 11 10q7 10 19 10q15 -2 40 -9q42 -12 98 -2q26 5 58 27q34 21 40 22
q9 3 14 15q6 14 11 17q5 4 7 12q1 7 8 16q1 2 3 5.5t5 8.5t4 7q14 29 32 25l12 -1v16q1 33 -8 45q-22 27 -25 38t10 22q12 10 7 15t-17 -5q-17 -16 -29 -3q-8 6 -9 6q-6 0 -19 19.5t-11 26.5q2 6 -12 15.5t-34 16.5q-11 4 -32 13q-6 4 -42 17q-30 11 -38 16q-6 4 -19 11
q-18 8 -30 26t-11 35q1 10 -6 10t-8 7t2 30q5 36 16 53.5t37 33.5q36 22 44 12q3 -4 19 2q13 5 44.5 9t37.5 2q5 -2 5 -10v-9l6 7q4 5 9 6t26 0q30 0 35 5z" />
    <glyph glyph-name="t" unicode="t" horiz-adv-x="579" 
d="M32 537q6 4 15.5 6t17 1t7.5 -5q0 -5 9 -10q8 -6 27 -1q43 8 68 -3q14 -5 62 -5q44 0 56 3q7 2 9 -5q1 -5 7 -4q16 7 70 7q49 0 52 4q2 3 11 5q10 1 12 -5q1 -6 11 -6.5t11 4.5q3 5 24 4q21 0 28 7q13 13 30 -5q8 -8 10 -16t5 -37q1 -17 -5 -18q-6 -2 -5 -40
q0 -46 -1 -56q0 -20 1 -23q2 -16 -32 -13q-25 1 -25 20q0 7 -5 9q-4 1 -10 11q-4 9 -8 9q-3 0 -14.5 14t-16.5 25q-5 8 -21 24q-26 23 -68 22l-22 -2l-2 -21q0 -44 1 -70q3 -39 3 -94q0 -47 3 -55q4 -8 2 -10q-5 -2 -5 -85q2 -27 21 -54q11 -14 17.5 -17.5t36.5 -11.5
q18 -3 29 -3q18 0 21 -4q3 -5 13 -7q6 -2 7.5 -4t1.5 -12q0 -13 -6 -13q-4 0 -9 -5q-1 -5 -16 -3q-11 2 -70.5 4t-82.5 1h-67q-50 0 -53 -3q-3 -2 -23.5 -3.5t-40 -1.5t-19.5 2q0 3 -6 1q-7 -2 -11.5 3.5t-4.5 15.5t4.5 18t10.5 8q7 0 17 5q4 2 52 15q63 18 67 28v36
q-3 50 9 60q4 3 0 20q-5 20 -6 41q0 23 -2 51q-2 12 -4 68q-3 63 -3 65q-2 28 -2 30q-2 3 -10 3t-22 -3.5t-26 -8.5q-26 -12 -35 -21q-44 -40 -49 -54q-2 -9 -7 -14t0 -5q4 0 1 -3q-4 -4 -31 -4l-28 -1l-1 18q-1 16 3 30q5 12 2 19q-2 11 -1 16q4 49 -1 73q-5 27 12 39z" />
    <glyph glyph-name="u" unicode="u" horiz-adv-x="730" 
d="M72 520q35 0 68 -1q107 -2 143 -1q56 0 57 -5q4 -10 18 1q6 5 17 4.5t16 -5.5q11 -11 5.5 -23.5t-24.5 -18.5q-14 -4 -19 -9q-4 -4 -12 -8q-6 0 -6 -6q0 -3 -5 -6q-5 -2 -3 -6t-3.5 -9t-10.5 -5q-6 0 -9 -15q-7 -21 -8 -23q-10 -20 -12 -81q-1 -36 1.5 -85.5t4.5 -53.5
q4 -4 5.5 -11t-1.5 -8q-3 -2 0 -8q4 -6 4 -19q0 -14 20 -35l20 -21l33 -3q45 -2 48 -2q14 0 19 -6l5 -7l17 6q10 4 28 10q11 4 13 7q3 3 5 3q21 3 27 21q6 15 11 18q16 12 12 225v41q0 29 -1 36t-1 18q-1 14 -26 32q-20 16 -47 26q-15 6 -4 21q8 11 50 4q14 -1 27 -4
q12 0 17 1q10 3 12 -2t7 -3q2 1 15 4q11 0 15 3q5 1 9 -7q3 -8 6 -5q2 4 15 8t23 4.5t12 -2.5q0 -2 10 0q23 7 28 -5q8 -17 -19 -27q-16 -5 -18 -10t-7 -5q-8 0 -33 -43q-9 -18 -9 -152q-1 -98 -6 -117q-16 -67 -13 -72q4 -9 -14 -34q-7 -7 -7 -12q0 -18 -41 -38
q-26 -13 -32 -13q-10 0 -27 -7q-21 -6 -27 -4q-7 1 -7 -3q0 -9 -32 -13q-20 -2 -27 5t-7 2q0 -15 -48 -7q-34 8 -35 9q-2 2 -21 2q-42 0 -61 17q-8 8 -17 10q-20 5 -36 17.5t-16 23.5q0 6 -6 12q-5 4 -12 21.5t-7 25.5q-1 26 -4 26q-4 0 0 4q2 4 2 23q-2 19 1 22q3 1 1 22
q-4 24 1 56q0 5 -2 9q-3 2 1 6q3 7 1 33q-3 27 4 45q8 18 8 39q1 21 -7 38q-9 16 -9 23q0 9 -5 12q-4 4 -4 10t-26 16q-40 12 -40 25q0 16 12 19z" />
    <glyph glyph-name="v" unicode="v" horiz-adv-x="705" 
d="M495 516q12 2 43 1t34 -3t62 -2q47 1 56.5 -1.5t9.5 -15.5q0 -10 -2.5 -13.5t-12.5 -5.5q-12 -2 -21 -11q-10 -8 -8 -15q8 -12 -4 -16q-16 -6 -28 -34q-6 -15 -14 -21q-7 -7 -13 -21.5t-5 -19.5q2 -3 -6 -11q-7 -9 -7 -13q0 -6 -7 -15q-5 -8 -7 -20q-1 -8 -5.5 -14
t-8.5 -5l-3 -9q0 -11 -5 -21q-6 -12 -3 -14q0 -4 -4 -4q-6 0 -3 -8q1 -7 -6 -10q-8 -3 -9 -16q-4 -16 -10 -28q-8 -14 -6 -19q3 -7 -6 -8q-8 -2 -11 -12l-10 -25l-6 -18q0 -5 -8 -13q-6 -9 -10 -23q-3 -12 -11 -16t-8 -7q0 -2 -24 -21t-32 -23q-7 -3 -10 -6q-2 -2 -18 -11
q-17 -9 -20 -14q-4 -7 -11.5 -5.5t-14.5 11.5q-8 12 -6 16t-3 13q-6 9 -3 12q1 1 -0.5 2t-3.5 1t-3 1t0 2q1 3 -1 3q-3 0 -9.5 14.5t-5.5 19.5q2 4 -3 9t0 6q5 2 3 6q-2 5 7 14l9 10l-9 -4q-9 -4 -10 0q-2 3 -5 3t-11 8l-8 8l9 8l7 8h-8q-9 0 -12 7q-2 8 -1 9q0 2 -6 2
q-5 0 3 7q5 6 1 6q-11 0 -13 12q0 3 2 3q6 -1 7.5 1t-1.5 6q-4 6 -7 4v5q1 7 -5 12q-6 6 -1 13q4 5 2 5q-3 -2 -15 6q-6 3 -7.5 5t-1.5 3.5t3 5.5q6 6 2 6q-3 0 -10 7q-7 6 -3 10q4 5 -4 6q-7 1 -10 14q-4 14 -5 15q-3 3 -3 9q0 7 -2 9q-3 6 -3 11q-2 7 -6 12q-5 3 -3 7
q1 2 -6 17q-11 19 -12 22q-3 8 -6 8t-3 8q0 17 -8 17q-4 0 -3 13q1 11 -4 18q-7 7 -7 15q-1 9 -18 21q-16 10 -27 14q-9 2 -10 14q-2 17 7.5 22t33.5 -1q14 -3 28 1q11 3 69 5q53 0 61 2q9 1 13 -3q3 -5 9 -5q13 0 13 -19q0 -11 -10 -15q-30 -11 -34.5 -19.5t8.5 -36.5
q11 -26 11 -36q0 -11 4 -13q5 -2 5 -5q-4 -26 10 -42q9 -10 7 -14t3 -9q6 -6 6 -14q2 -10 8 -13q7 -7 7 -9q0 -4 4 -8t3 -18q-1 -13 4 -13t9.5 -5t4.5 -9q0 -5 5 -8q7 -6 11.5 -19t3.5 -21q-2 -5 -1.5 -7t2 -2.5t6.5 -0.5q19 -1 18 -7q-2 -2 5 -9q7 -8 7 -24q0 -4 4 -4t4 -3
t6 -9q7 -7 7 -2q0 2 17 40q18 34 20.5 42t1.5 27v21h12q7 0 9 1t2 6q0 8 5 11q5 8 5 9q0 5 6 17t10 14q4 1 6 19q2 14 8 25q7 12 10 24t7 16q3 3 3 8q0 8 4 13q2 4 4.5 16t3 20.5t-1.5 9.5q-3 0 -12 13q-7 9 -20 17t-17 6q-1 -2 -1.5 -1t0.5 3q2 5 -8 9q-13 9 -3 27
q7 10 17 11z" />
    <glyph glyph-name="w" unicode="w" horiz-adv-x="1049" 
d="M69 522q14 2 67.5 0.5t63.5 -4.5q12 -2 13 -1t20 -3q17 -5 17 0t55 4l53 -1l3 -11q9 -34 -26 -35q-13 0 -13 -3q0 -2 -9 -6q-10 -4 -17 -13q-10 -10 -11 -31q-2 -23 1 -23q3 -3 1 -14q0 -13 3 -15t7 -21q6 -20 10 -24t8 -18q2 -13 5 -13q2 0 1 -6q-3 -6 3 -6q4 0 3 -3
q-2 -2 6 -10q8 -6 8 -13q0 -5 6 -5q5 -1 -2 -7q-9 -6 -3 -6q5 0 7 -6q2 -5 8 -7q7 -2 5 -6q-1 -2 3 -15q5 -10 5 -21q0 -9 6 -13t6 -8t6 -6q13 -3 14 28q0 17 11 26t6 13q-10 6 -4 19t20 16q9 3 9 10v10q-2 0 2 3q1 1 2 1q6 3 4 10q-2 6 2 6q3 0 2 2q-2 2 2 7q4 4 6 12
q0 1 1 3q1 5 2 6q2 2 2 15q0 14 4 16q3 1 1 9t2 8q5 0 5 5q4 33 5 34q2 2 -4 11q-6 8 -6 11q0 1 -8 11q-8 6 -8 11q0 3 -7.5 5.5t-11.5 0.5q-2 -2 -12 4q-9 7 -8 17q1 9 8 22l5 13l26 1q25 0 28 -6l2 -7l7 8q5 5 12.5 6t47.5 1q107 -1 121 -9q5 -5 11 -5q4 0 8 -10t3 -19
q-1 -12 -51 -19l-25 -3v-10q0 -9 -6 -17q-5 -5 -1 -29q4 -23 12 -31q7 -7 5 -13q-2 -5 6 -25q11 -30 12 -41q0 -9 2 -13v-5q0 -3 6 -4q3 -1 4 -2t1.5 -2.5t-0.5 -3t-4 -5.5q-5 -8 -3 -15q10 -27 15 -30q3 -3 3 -17q2 -16 11 -36q9 -16 14 -34q3 -14 9 -21q7 -8 10 -27
q2 -8 4 -7q4 1 3 14q-2 12 3 17q6 6 2 9q-3 4 2 7q6 1 6 14q0 12 3 12q2 0 0 2q-1 1 -2 1q-4 2 3 5q6 2 6 13q0 9 6 25q4 16 3 18q-2 3 4 9t8 17q1 6 8 30q7 18 5 22t2 8q9 9 17 44q0 3 7 22q6 12 8 27q0 2 0.5 5t0.5 5t1 4v2q2 3 -2 5q-6 1 -3 10q2 8 -1 8t-15 12
q-10 10 -16 13q-4 0 -12 9.5t-8 13.5q0 10 18 32q15 18 25 10q5 -6 199 5q27 1 33 -5q4 -4 5.5 -14.5t-1.5 -15.5t-26 -12q-22 -7 -50 -21.5t-30 -20.5q-2 -7 -14 -16q-12 -11 -10 -16q2 -6 -6 -6q-7 0 -11.5 -6t0.5 -10q6 -4 3 -22q0 -2 -8 -2q-7 0 -9 -2q-1 -23 -6 -29
q-4 -4 -8 -14q-2 -10 -9 -22q-6 -14 -5 -24q1 -11 -4 -15q-5 -5 -5 -13q0 -11 -3 -17q-4 -8 0 -13q4 -4 0 -9t-1 -8q4 -4 1 -10q-3 -5 0 -7q8 -4 -3 -7q-4 -1 -8 -1q-7 0 -8.5 -1.5t-3.5 -10.5q-3 -12 1 -18q3 -5 -1 -15t-11 -15q-6 -3 -2 -15q3 -13 -3 -18q-5 -8 -5 -14
q0 -8 -3 -8t-3 -5q0 -4 -20.5 -26.5t-24.5 -22.5q-5 0 -25 -18t-28 -20q-15 -2 -35 19.5t-27 47.5q-5 17 -16 37q-11 15 -21 44q-7 24 -10 27q-2 2 -2 9q0 14 -22 58q-6 10 -8 25q-4 17 -11 28q-9 14 -9 20t-5 3q-3 -2 -4 -7q-2 -7 -3 -7q-3 0 -7 -9q-4 -10 -12 -18
q-18 -20 -2 -25q8 -1 -2 -4q-9 -3 -23 -35q-3 -12 -9 -12q-4 0 -6 -7.5t1 -11.5q2 -3 1 -20.5t-3 -26.5q-2 -6 -12 -9t-2 -3q7 0 10 -7.5t0 -15.5t-7 -8q-5 0 0 -5q4 -4 1 -6q-1 -1 3 -3q1 -1 2 -1q15 -5 -3 -20q-2 -2 -4 -4.5t-4 -4.5l-1 -2q0 -8 -4 -17t-9 -11
q-5 -1 -12 -6q-4 -4 -28 -9t-32 -3t-14 8q-7 7 -18 29.5t-13 33.5q-2 13 -12 28q-27 43 -27 56q0 5 -3 7q-3 3 -3 7q0 7 -7 23q-8 14 -10 32q-2 11 -9.5 30t-13.5 26q-4 8 -5 15q-2 11 -6 15q-3 4 -8 17q-8 32 -26 68q-2 6 -2 11q0 6 -10 28t-14 24q-5 2 -5 12q0 9 -15 23
q-15 15 -25 19.5t-31 6.5q-24 1 -34 10q-10 8 -10 14q0 8 10.5 16.5t23.5 10.5z" />
    <glyph glyph-name="x" unicode="x" horiz-adv-x="806" 
d="M530 523q108 6 175 -5q41 -6 46 -4q4 1 17 -3.5t14 -7.5q3 -12 -2 -25.5t-14 -18.5q-4 -3 -19 -1q-12 1 -23 -6q-10 -8 -18 -8q-19 0 -46 -30q-17 -20 -25 -22q-15 -4 -15 -6q0 -1 2 -2q11 -11 -4 -27q-8 -8 -10 -15t-5 -8q-4 -2 0 -9t-2 -7q-3 1 -7 3q-4 4 -8 -3
q-5 -7 -14 -5q-15 1 -22 -20q-2 -12 -8 -14q-4 -2 -4 -7t-5 -12q-4 -6 -4 -10t20 -29q22 -28 24 -32q4 -7 11 -11t9 -9q5 -12 32.5 -44.5t36.5 -36.5q10 -3 16 -13q5 -9 21 -16l20 -10q22 -12 32 -12q15 0 15 -13q0 -6 12 -6q14 0 19 -4.5t5 -16.5q-1 -13 -6.5 -18t-23.5 -7
q-19 -3 -112 -2t-114 5q-22 3 -27.5 10.5t4.5 22.5q4 7 7.5 8.5t14.5 1.5q10 0 12.5 1.5t2.5 6.5q0 7 10 13q9 5 4 11q-6 6 -10 4l-12 -3l3 3q7 4 1 9q-6 6 -16 21q-12 17 -33 38q-41 39 -41 46q-3 5 -6 9q-6 9 -6 3t3 -7q2 -1 2 -14.5t-2 -17.5q-1 -2 -11 -6q-9 -2 -13 -10
q-2 -3 -13 -17q-11 -11 -14 -20q-5 -9 1 -21q7 -11 5 -13t-2 1q0 4 -4 4t-3 -7q2 -7 -4 -17l-4 -10l12 2q11 2 21.5 -2t12.5 -11q3 -7 -1 -19t-10 -14t-153 -2q-161 0 -161 15q0 5 5.5 14.5t7.5 9.5t8 6q4 5 12 8q33 9 51 27q18 15 37 29q23 16 44 38q15 16 53 66t45 62
l6 10l-12 10q-24 21 -29 32q-3 9 -17 25q-30 32 -30 39q0 2 -13 24q-14 22 -27 28q-14 7 -22 13q-9 5 -17 7q-10 0 -12 7q-4 7 -6 7q-4 0 -14 7q-13 7 -36 11q-34 6 -34 19q0 5 7 15.5t11 11.5q3 1 43 -1q171 -14 181 -4q3 3 14 3t15 -2q10 -6 10 -23q0 -15 -21 -20
q-11 -3 -12 -13t9 -22q31 -35 31 -45q0 -6 4 -6q5 0 16 -23q11 -24 16 -24q4 0 4 3t14 21q12 15 19 31q8 16 17 25q6 8 18 23q5 7 5.5 8.5t-4.5 5.5q-5 5 -8 5t-9 6q-4 5 -23 8q-21 2 -23 4q-7 2 -6 11t9 17q7 7 17 9t60 6zM279 37l-1 10l-18 -10l-17 -9h18q13 0 15.5 1
t2.5 8z" />
    <glyph glyph-name="y" unicode="y" horiz-adv-x="785" 
d="M105 509l8 13l45 -2q32 -1 72 -4q73 -6 126 1q16 2 23 -4q5 -7 5.5 -17.5t-4.5 -15.5q-12 -6 -18 -7q-8 -1 -10 -3t-2 -9q0 -14 18 -32q16 -14 23 -35q4 -9 9 -11q5 0 11 -16q4 -11 12 -25l7 -10l8 9q9 11 12 19q6 10 17 13q25 8 12 14q-8 5 -6 11.5t17 26.5
q11 15 14 21.5t1 10t-12 7.5q-2 1 -28 6q-25 3 -31 11t7 23q7 7 12 8.5t29 3.5q33 2 48 0q15 -3 23 2q7 5 14 1q5 -4 55 -4q134 2 150 -7q7 -4 8 -6.5t0 -11.5q-2 -27 -18 -33q-7 -2 -20 1q-13 1 -22 -6q-8 -8 -18 -8q-21 -1 -45 -30q-23 -26 -37 -27q-5 0 -6.5 -2.5
t2.5 -5.5q4 -2 2.5 -10.5t-6.5 -13.5q-8 -6 -10 -16q-2 -8 -5 -8q-4 0 -2 -4q5 -12 4.5 -13t-8.5 2q-9 3 -14 -2q-9 -9 -23 -2q-7 3 -12 -2q-6 -4 -2 -13q5 -7 4.5 -9.5t-5.5 -9.5q-7 -9 -7 -12l-8 -14q-10 -12 -17 -12q-6 0 -8 -2t-3 -12q-2 -13 -0.5 -55t3.5 -48
q2 -5 0 -19q-7 -42 4 -50q4 -4 3 -11q-2 -6 1 -12t8 -6q4 0 4 -7q0 -5 2.5 -6t15.5 0q14 1 17 -0.5t7 -8.5q5 -12 2 -16q-6 -10 6 -13q4 -1 -3 -6q-8 -4 -166 -3q-74 0 -86 4t-15 12q-2 3 2 3t1 5q-2 4 2 13t9 13q5 3 24 3q16 -1 17 1l-2 3q-4 6 -3 22q1 18 9 23q8 8 12 8
q4 1 0 19q-4 17 -4.5 61t3.5 57t0 17q-3 5 -3 7v6q-3 9 1 15q1 1 -3 6t-11 12q-16 15 -23 28q-3 9 -14 20q-18 18 -35 50q-2 4 -15 24q-9 11 -9 14t-18 12q-14 7 -23 13q-3 3 -14 6q-10 0 -12 7q-4 7 -7 7t-14 7q-12 8 -19 8q-27 3 -44 10q-15 8 -1 28z" />
    <glyph glyph-name="z" unicode="z" horiz-adv-x="782" 
d="M289 540q10 0 21 0.5t19 1t14.5 1t10.5 0.5h4q12 0 50 -3q52 -4 79 -4q29 -2 43 -4q13 -5 144 0q28 0 29 -3q2 -4 6 -4t3 -13q-3 -22 -17 -22q-4 0 -4 -6q0 -4 -7 -10t-48 -37q-58 -46 -65 -53q-24 -23 -71 -76.5t-60 -74.5q-18 -27 -43 -59q-12 -12 -12 -19q0 -5 -5 -5
t-24.5 -33.5t-25.5 -52.5q-3 -8 -1.5 -9.5t10.5 -5.5q11 -3 69.5 -3.5t90.5 2.5q59 5 70.5 7t18.5 9q56 52 56 57q0 2 8 10q16 14 14 30q0 7 13 13q10 4 10 5t-4 2q-13 3 -3 18q12 22 58 25q21 1 28 -5q13 -12 9 -26.5t-24 -27.5q-11 -8 -13 -11.5t-2 -13.5q0 -9 -3 -24
q-4 -5 -4 -16t-6 -32q-7 -28 -7 -46q0 -23 -4 -31q-8 -14 -35 -8q-15 3 -33 -1q-19 -4 -116 -6q-100 -2 -103 -3q-1 0 -14.5 -0.5t-37.5 -1.5t-46 -1q-97 -2 -126 -5q-33 -3 -43 0q-10 4 -29 5t-24 -1q-6 -3 -12 1q-7 5 -6 18q1 14 11 17l10 3l-8 10q-8 10 -7.5 14.5
t8.5 11.5q46 37 61 39q8 1 17.5 11.5t35.5 46.5q18 23 13 28t1 16q7 15 21 23q7 3 5 10q-1 4 1 5.5t7 1.5q8 0 17.5 5t7.5 9q-2 5 1 5t0 6q-3 5 -1 9q2 5 40 40q2 2 16 8q12 6 13 10q1 5 8.5 4t14.5 -8q9 -8 9 -3t5 5q4 0 8 7q5 7 -2 19q-2 3 -3.5 6t-1.5 5v1q3 0 0 6
q-4 7 3 15q4 6 14 27q8 17 12 17t2 3q-1 1 1.5 4.5t8.5 10.5q24 25 -5 36q-12 6 -23 4q-1 0 -14.5 -0.5t-36 -1.5t-43.5 -1q-85 0 -91 -3q-6 -2 -8 -11q-1 -2 -2 -7.5t-1 -7.5q-2 -7 -7 -9t-9 -13q-4 -12 -5 -29.5t3 -17.5q2 0 -3 -5q-7 -5 -37 -5q-27 0 -35.5 4.5
t-8.5 18.5q0 12 -6 16q-10 20 -11 23q-6 17 -1 38q6 20 15 28q9 6 3 8q-13 5 -2 17q6 7 26 7q21 0 21 3q2 5 28.5 9t29.5 0q1 -3 5 -1q2 2 69 4z" />
    <glyph glyph-name="agrave" unicode="&#xe0;" horiz-adv-x="678" 
d="M538 644q26 10 33.5 11t9.5 -4q2 -6 9 -15t7 -13q0 -5 4 -5t2 -7q-1 -7 1 -10q3 -1 1 -5q3 -1 5 -2q7 0 5 -5q-1 -5 3 -3q3 2 3.5 0.5t-0.5 -5.5q-3 -10 -5 -10q-1 1 -2 3q-3 3 -7 1q-4 -3 0 -3q5 0 5 -6q0 -13 8 -13h6l-6 -7q-5 -6 -4.5 -12t5.5 -6q6 0 1 -5t-8 -5
q-4 0 0 -5q5 -5 5 -9q0 -3 4 -5q9 -3 -15 -16l-8 -4q-20 -9 -26 -7.5t-13 15.5q-5 13 -11 13q-16 0 -12 13l3 10h-13q-9 0 -11 1.5t-2 7.5q0 8 -7 8q-8 0 -5 7q2 6 -2 6q-2 0 -6 9.5t-3 11.5q3 0 -5 8q-5 6 -4 10q1 3 -1 8q-3 4 2.5 13t13.5 14q16 8 40 17zM407 532
q10 8 15 8q5 -2 12 -12.5t6 -14.5q-2 -4 2 -13q3 -6 3 -12q-1 -2 0 -3t2 1q1 1 2 0t1 -3q0 -5 3 -5t8 -11.5t5 -18.5t4 -9q3 -1 -1 -5q-5 -4 -4 -8q2 -4 -5 -13q-5 -5 -5 -5.5t3 0.5q6 3 15 -1.5t13 -12.5q4 -7 -4 -13q-4 -6 -1 -6q8 0 17 -10q2 -3 0 -3q-1 0 2 -3
q5 -3 -3 -10q-5 -4 -5 -4.5t4 0.5q5 2 10 -2q6 -6 3 -10q0 -2 -2 0q-1 1 -2.5 0t-2.5 -2q-1 -2 0.5 -5t4.5 -4.5t4 -0.5q2 1 0 -3l-1 -2q-4 -7 2 -13q6 -5 4 -10q-3 -6 0 -6q2 0 11 -7q7 -7 4 -12t3 -8q15 -5 10 -14q-4 -4 2 -6q4 -1 10.5 -17.5t8.5 -33.5q2 -14 6 -16
q5 -2 5 -7q0 -7 6 -16q17 -31 20 -45q2 -8 6 -8t3 -12q-2 -14 4 -18q4 -4 6 -13q0 -8 17 -20q11 -9 27 -15q9 -2 9 -14q-1 -14 -4 -17.5t-15 -3.5q-21 2 -25 3q-11 2 -23 -1q-14 -4 -73.5 -3.5t-64.5 3.5q-5 4 -11 5q-5 1 -8 10.5t0 13.5q1 3 20 10q18 5 20 12q0 1 1.5 3
l3 4t2.5 3q6 4 8 21q1 18 -5 29q-7 12 -9 12t-6 10q-4 9 -9 11q-10 2 0 12q7 8 4 15q-1 5 -3.5 6t-5 -1.5t-2.5 -7.5q0 -20 -73 -10q-20 3 -24 4.5t-5 8.5l-1 8l-6 -7q-6 -6 -43 -9q-32 -2 -56 -6q-4 -1 -10 -2t-10 -2t-6 -1q-8 -2 -19.5 -21.5t-13.5 -35.5q-1 -10 1 -14
t12 -16q13 -17 25 -20q9 -4 9 -7q-3 -3 6 -6q8 -4 10 -9q1 -6 -4 -15.5t-11 -11.5q-7 -2 -39.5 -1.5t-37.5 3.5q-9 3 -62 3q-48 1 -56.5 3.5t-5.5 16.5q1 9 6 11.5t25 5.5q14 2 16.5 5t-4.5 15q-5 8 -1 13q3 5 8 5q3 0 11 11t12 21l9 15q4 4 11.5 19t7.5 20t6 17
q23 44 19 50q-4 4 2 9q6 4 9 4q4 0 8 13q7 22 7 24t5 7t3 11q-3 5 4 10q6 4 6 10t5 19.5t8 15.5q4 2 4 10q0 9 7 10q8 1 14 22q5 16 9 21q3 3 3 7t10 20q9 13 7 20q-1 8 7 10q11 2 43 27q28 21 32 21t4 2q0 3 13 9q12 5 22 15zM350 372q-4 0 -8 6q-3 3 -4.5 3.5t-2 -1
l-2.5 -7.5q-3 -11 -15 -31q-10 -14 -13 -27q-2 -9 -5 -9t-7 -33q0 -17 -12 -12q-3 1 -4 -0.5t-1 -5.5q0 -8 -5 -11q-4 -4 -6 -11q0 -5 -3 -11q-1 -3 3 -4q6 -1 31 0q26 1 31.5 -0.5t4.5 -8.5q0 -2 13 -4q13 -3 16 3q3 5 24 3q20 -2 23 3q2 5 12 2q8 -1 9.5 0t0.5 5
q-2 7 -4 7q-4 0 -5 10t1 15q4 6 -2 6q-13 0 -13 13q0 6 -3 6q-4 0 -11 14q-8 15 -6 27q2 11 -1 11q-1 0 -2 -1q-6 -2 -13.5 0t-7.5 6t-5 9q-5 8 -5 16q-2 12 -3 12z" />
    <glyph glyph-name="egrave" unicode="&#xe8;" horiz-adv-x="817" 
d="M729 636q40 15 40 6q0 -4 7 -13q17 -21 14 -31q-2 -3 1 -6q1 -1 2 -2.5t0 -2.5q-3 -3 3 -3t10 -5t2 -10q-4 -9 -8 -4q-2 3 -6 0q-6 -3 2 -3q5 0 4 -6q-2 -6 1 -6q1 0 1.5 -1t-0.5 -2t0.5 -2t4.5 -1q8 -1 1 -6q-5 -4 -5 -11.5t6 -8.5t-4 -7q-8 -5 -5 -5q2 0 6 -7
q2 -7 5 -9q3 -3 1 -6q-3 -4 -22 -13t-25 -9q-14 0 -19 23q-1 4 -2.5 6t-3.5 1q-2 -2 -10 0q-8 1 -4 12l2 10l-14 -1l-14 -2l2 10q1 10 -6 11q-6 0 -6 5q2 5 -7 14q-8 11 -4 13q3 1 -2 6q-6 4 -6 12q-3 10 -3 11q-2 4 5.5 13.5t16.5 13.5q14 6 39 16zM427 534q61 5 61 -1
q0 -5 36 -6q37 -2 40 -1q2 1 24 3q19 2 26.5 -3t7.5 -19q0 -11 13 -37q12 -24 12 -29q0 -4 3 -4t5 -9t10 -17q15 -17 -5 -36q-21 -21 -39 -10q-11 7 -11 10t-10 6q-9 5 -9 7t-14 16q-13 12 -21 25q-7 11 -10 11q-5 0 -12 7q-8 6 -38 6q-28 0 -43 5q-15 4 -23 3q-4 -1 -35 -3
q-51 0 -51 -19q0 -4 3 -10q6 -2 -5 -42q-4 -19 -6 -64l-2 -47l19 1q18 1 22 -3q4 -5 10 1t40 6q32 -2 38 2q25 15 39 42q8 16 13.5 19.5t15.5 -1.5t10.5 -12.5t-7.5 -29.5q-10 -28 -10 -66q0 -37 7 -48q15 -18 -4 -39q-6 -8 -14 -5q-12 5 -26.5 25t-14.5 33q0 8 -11 10
q-17 3 -40 1q-7 0 -28.5 -0.5t-29.5 -0.5h-30l1 -35q2 -79 13 -92q4 -5 18 -7q9 0 11 -1.5t3 -9.5t1.5 -9t4.5 3q5 4 22 2q18 -2 19 -1q3 2 9 -4q6 -5 13 -2q6 2 19.5 2t17.5 -3q4 -2 7 3q5 8 47 13q20 4 24 8q6 6 11 6q4 0 8 9q13 22 14 23q8 16 7 19q-3 7 3 9t18 0
q33 -8 31 -13q-1 -3 3 -3q13 0 4 -13q-5 -7 -3 -14t-6 -16q-10 -12 -20 -35t-10 -32q2 -21 -13 -21q-6 0 -11 -7q-6 -6 -28 -6q-43 0 -68 -1q-46 -2 -46 1q0 2 -9 4q-8 1 -12 -4q-5 -6 -21 -4q-14 2 -21 6q-5 5 -20 2q-22 -2 -55 -1q-39 2 -48 0q-12 -2 -33 1q-24 3 -33 0
q-12 -4 -49.5 0.5t-43.5 10.5q-4 4 -9 4q-13 0 -17 7.5t4 16.5q6 6 32 10q27 3 30 0t10 -3q6 0 9 10q2 9 4 9q4 0 12 8q9 7 11 7t2 25q0 45 18 69q8 13 7 14l-10 4q-10 4 -9 12q0 4 2 64q2 55 7 76q4 26 3 38q-1 4 -2 17t-1 17q-2 19 -7 24q-4 6 -2.5 6t-5.5 10
q-13 18 -53 25q-14 1 -21 8q-6 7 -17 11q-20 10 -5 29q8 10 32 5q2 -1 24 -1q21 1 23 7q1 6 9 5q47 -10 71 -4q44 9 44 0q0 -5 4 -1q5 3 8 2q12 -8 30 -2q26 7 27 0q1 -6 10 -6.5t13 4.5q3 5 28 8z" />
    <glyph glyph-name="eacute" unicode="&#xe9;" horiz-adv-x="864" 
d="M759 626l12 5q14 0 60 -27q23 -14 27 -20.5t-4 -14.5q-7 -7 -17 -29q-12 -25 -17 -27q-6 -4 -1 -10q4 -7 3 -8.5t-8 0.5q-8 2 -12.5 -2.5t-2.5 -11.5q2 -6 -3 -6q-2 0 -11 1l-16 2v-10q0 -16 -6 -17t-36 9q-36 13 -36 15q0 4 5.5 15t7.5 13q4 2 4 15q2 15 3 16q3 10 6 23
q6 18 12 19q6 4 6 9q0 8 8 18q7 11 7 15t9 8zM427 534q61 5 61 -1q0 -5 36 -6q37 -2 40 -1q2 1 24 3q19 2 26.5 -3t7.5 -19q0 -11 13 -37q12 -24 12 -29q0 -4 3 -4t5 -9t10 -17q15 -17 -5 -36q-21 -21 -39 -10q-11 7 -11 10t-10 6q-9 5 -9 7t-14 16q-13 12 -21 25
q-7 11 -10 11q-5 0 -12 7q-8 6 -38 6q-28 0 -43 5q-15 4 -23 3q-4 -1 -35 -3q-51 0 -51 -19q0 -4 3 -10q6 -2 -5 -42q-4 -19 -6 -64l-2 -47l19 1q18 1 22 -3q4 -5 10 1t40 6q32 -2 38 2q25 15 39 42q8 16 13.5 19.5t15.5 -1.5t10.5 -12.5t-7.5 -29.5q-10 -28 -10 -66
q0 -37 7 -48q15 -18 -4 -39q-6 -8 -14 -5q-12 5 -26.5 25t-14.5 33q0 8 -11 10q-17 3 -40 1q-7 0 -28.5 -0.5t-29.5 -0.5h-30l1 -35q2 -79 13 -92q4 -5 18 -7q9 0 11 -1.5t3 -9.5t1.5 -9t4.5 3q5 4 22 2q18 -2 19 -1q3 2 9 -4q6 -5 13 -2q6 2 19.5 2t17.5 -3q4 -2 7 3
q5 8 47 13q20 4 24 8q6 6 11 6q4 0 8 9q13 22 14 23q8 16 7 19q-3 7 3 9t18 0q33 -8 31 -13q-1 -3 3 -3q13 0 4 -13q-5 -7 -3 -14t-6 -16q-10 -12 -20 -35t-10 -32q2 -21 -13 -21q-6 0 -11 -7q-6 -6 -28 -6q-43 0 -68 -1q-46 -2 -46 1q0 2 -9 4q-8 1 -12 -4q-5 -6 -21 -4
q-14 2 -21 6q-5 5 -20 2q-22 -2 -55 -1q-39 2 -48 0q-12 -2 -33 1q-24 3 -33 0q-12 -4 -49.5 0.5t-43.5 10.5q-4 4 -9 4q-13 0 -17 7.5t4 16.5q6 6 32 10q27 3 30 0t10 -3q6 0 9 10q2 9 4 9q4 0 12 8q9 7 11 7t2 25q0 45 18 69q8 13 7 14l-10 4q-10 4 -9 12q0 4 2 64
q2 55 7 76q4 26 3 38q-1 4 -2 17t-1 17q-2 19 -7 24q-4 6 -2.5 6t-5.5 10q-13 18 -53 25q-14 1 -21 8q-6 7 -17 11q-20 10 -5 29q8 10 32 5q2 -1 24 -1q21 1 23 7q1 6 9 5q47 -10 71 -4q44 9 44 0q0 -5 4 -1q5 3 8 2q12 -8 30 -2q26 7 27 0q1 -6 10 -6.5t13 4.5q3 5 28 8z
" />
    <glyph glyph-name="igrave" unicode="&#xec;" horiz-adv-x="701" 
d="M606 624q43 17 45 9q1 -2 0 -5q0 -3 7 -10q8 -6 8 -13q0 -5 3 -5t3 -9q0 -13 11 -17q5 -2 3 -6l2 -1q1 0 2 1q3 1 3.5 0t-1.5 -5q-4 -6 -2 -8l-2 -1q-2 -1 -5 0h-5q4 -2 4 -10t6 -9q13 -3 -1 -11q-6 -6 -3 -6q4 0 4 -6q1 -4 3 -4q3 0 3 -2q0 -1 -6 -5q-6 -1 -2 -12
q5 -9 8 -9q1 1 2 0t1 -3q-2 -3 -20 -13.5t-27 -12.5q-8 -2 -15 10q-7 11 -7 16q0 4 -9 4q-16 0 -9 16l3 8l-13 -3q-7 -1 -9.5 -1.5t-4.5 0.5q-2 2 -2 11q0 10 -6 10q-2 0 -4 1.5t-1 2.5q1 2 -6 13t-6 14t-2 8q-5 5 -5 11q0 5 -4 7q-3 2 2.5 11.5t12.5 14.5q14 9 41 19z
M169 525q12 5 31.5 6t23.5 -3q2 -2 24.5 -3t25.5 1q4 3 79 -8q26 -4 29 0q3 6 52 9t57 -2q4 -3 2 -10q-4 -20 -45 -36q-25 -10 -30 -15q-4 -4 -15 -8q-24 -7 -40 -47q-7 -16 -7 -47q0 -88 5 -133q1 -3 3 -62q1 -57 7 -63t13 -20q6 -12 9 -12t10 -7q15 -20 49 -30
q17 -5 21 -5q2 1 2 -3q1 -11 -6 -23q-4 -7 -7.5 -8.5t-17.5 -1.5q-31 0 -31 11q0 7 -3 -1q-2 -5 -11 -6t-60 -1q-55 1 -82 -2q-12 -3 -41 -1q-22 2 -35 -1q-9 -4 -14 -1q-6 2 -21 2q-17 -2 -19 3q-2 2 4 15q5 11 13 11q6 0 6 4q0 2 13.5 9.5t16.5 6.5q5 -1 16.5 5.5
t17.5 13.5q8 10 15 24q5 14 11 16q3 2 2 6q-2 4 5 15q6 11 3 33q-2 18 -1 67t5 67q2 19 1 24q-2 7 5 10l1 4q-6 0 -7.5 5t-6.5 35q-1 18 -5 37q-1 10 4 13q7 1 0 4q-5 3 -5 9q0 9 -5 17q-9 20 -39 20q-7 0 -10 3q-2 3 -11 5q-7 1 -18 7q-2 1 -7.5 3t-6.5 2q-6 2 -6 11
q0 15 31 26z" />
    <glyph glyph-name="ograve" unicode="&#xf2;" horiz-adv-x="701" 
d="M606 624q43 17 45 9q1 -2 0 -5q0 -3 7 -10q8 -6 8 -13q0 -5 3 -5t3 -9q0 -13 11 -17q5 -2 3 -6l2 -1q1 0 2 1q3 1 3.5 0t-1.5 -5q-4 -6 -2 -8l-2 -1q-2 -1 -5 0h-5q4 -2 4 -10t6 -9q13 -3 -1 -11q-6 -6 -3 -6q4 0 4 -6q1 -4 3 -4q3 0 3 -2q0 -1 -6 -5q-6 -1 -2 -12
q5 -9 8 -9q1 1 2 0t1 -3q-2 -3 -20 -13.5t-27 -12.5q-8 -2 -15 10q-7 11 -7 16q0 4 -9 4q-16 0 -9 16l3 8l-13 -3q-7 -1 -9.5 -1.5t-4.5 0.5q-2 2 -2 11q0 10 -6 10q-2 0 -4 1.5t-1 2.5q1 2 -6 13t-6 14t-2 8q-5 5 -5 11q0 5 -4 7q-3 2 2.5 11.5t12.5 14.5q14 9 41 19z
M305 531q12 6 16 2q5 -7 7 -5q0 1 -1 4l5 2q6 0 25 -1q43 -2 60 -8q7 -3 21 -3q11 0 16 -5q3 -5 34 -21q32 -16 61 -45q30 -32 30 -34q0 -5 2 -5q3 0 7 -9t8 -9q3 0 3 -15q0 -14 6 -18q7 -5 4 -5v-1q0 -1 1 -3.5t2 -5.5q5 -10 5 -30q0 -19 4 -35q10 -31 2 -36q-5 -5 -6 -24
q-2 -56 -17 -81q-28 -42 -28 -54q0 -5 -6.5 -14.5t-9.5 -9.5q-4 0 -25 -23q-18 -20 -47 -38.5t-54 -25.5q-22 -7 -27 -12q-8 -8 -43.5 -5t-66.5 13q-17 6 -34 4q-19 0 -29 5q-6 5 -21 10q-11 4 -33 26t-25 32q-7 23 -26 39q-8 7 -14.5 23.5t-4.5 23.5q0 7 -5 19
q-19 42 -15 46v2q0 2 -1 5.5t-2 7.5q-4 13 2 30q6 18 6 28q0 38 30 99q20 42 20 47t5.5 10.5t11.5 5.5q7 0 13 8.5t6 17.5t9 15q25 15 36 15q7 0 7 5q0 6 21 14q20 11 26 13q4 3 11 3q4 0 18 6zM389 478q-19 7 -35 2q-3 -1 -14 -3t-15 -3q-17 -3 -27 -16q-53 -69 -50 -90
q2 -6 -1 -6q-2 0 -3.5 -6t1.5 -8q2 -5 -4 -19q-7 -15 -6 -57q0 -98 13 -117q6 -12 6 -16q0 -14 20 -57q8 -18 26.5 -39t26.5 -21q7 0 17 -7l13 -6v8q0 8 7 11q8 5 21.5 17t12.5 15q-1 2 3 2q2 0 5 -1q10 -1 19 9q10 12 10 16t2 4q3 0 13 19.5t9 23.5q-2 3 2 5t0 21
q-3 20 1 22q4 4 1 11q-3 6 -1 15q0 2 3 17q0 11 7 18q6 6 3 11l-5 5q0 2 -2 8q-1 2 -1.5 4.5t0.5 3.5q2 2 -1 5q-3 4 7 10q9 6 7 17q-2 10 -6 14q-17 15 -13 28q2 6 -4 14q-12 16 -14 56q0 9 -3 12q-4 4 -8 11q-13 25 -43 37z" />
    <glyph glyph-name="ugrave" unicode="&#xf9;" horiz-adv-x="899" 
d="M810 628q27 12 34 12q4 0 6 -6q3 -8 10 -15q6 -8 6 -12t3 -4t3 -11q0 -12 7 -13q6 -2 6 -6q0 -5 3 -5q2 0 2 -6q0 -7 -8 -4h-5l1 -1q4 -4 4 -6q-2 -14 7 -14q8 0 4 -6q-2 -2 -6 -4q-5 -5 -3 -5q3 0 3 -6q1 -4 3 -4q4 0 4 -3t-2 -3q-3 0 -6 -3q-5 -2 2 -14q6 -12 6 -13
q0 -3 -23 -12q-23 -11 -30 -10q-5 3 -5 4q2 2 -4 10q-6 6 -6 12q0 3 -9 5q-6 1 -7.5 2.5t-0.5 8.5v11l-13 -2l-13 -2l1 11q1 7 -0.5 9t-7.5 2q-5 0 -5.5 0.5t1.5 3.5q5 5 1 5q-3 0 -8 10t-3 13q2 1 -3 6q-6 4 -6 11q-2 8 -3 9q-2 2 2 11q3 8 14 14.5t44 19.5zM72 520
q35 0 68 -1q107 -2 143 -1q56 0 57 -5q4 -10 18 1q6 5 17 4.5t16 -5.5q11 -11 5.5 -23.5t-24.5 -18.5q-14 -4 -19 -9q-4 -4 -12 -8q-6 0 -6 -6q0 -3 -5 -6q-5 -2 -3 -6t-3.5 -9t-10.5 -5q-6 0 -9 -15q-7 -21 -8 -23q-10 -20 -12 -81q-1 -36 1.5 -85.5t4.5 -53.5
q4 -4 5.5 -11t-1.5 -8q-3 -2 0 -8q4 -6 4 -19q0 -14 20 -35l20 -21l33 -3q45 -2 48 -2q14 0 19 -6l5 -7l17 6q10 4 28 10q11 4 13 7q3 3 5 3q21 3 27 21q6 15 11 18q16 12 12 225v41q0 29 -1 36t-1 18q-1 14 -26 32q-20 16 -47 26q-15 6 -4 21q8 11 50 4q14 -1 27 -4
q12 0 17 1q10 3 12 -2t7 -3q2 1 15 4q11 0 15 3q5 1 9 -7q3 -8 6 -5q2 4 15 8t23 4.5t12 -2.5q0 -2 10 0q23 7 28 -5q8 -17 -19 -27q-16 -5 -18 -10t-7 -5q-8 0 -33 -43q-9 -18 -9 -152q-1 -98 -6 -117q-16 -67 -13 -72q4 -9 -14 -34q-7 -7 -7 -12q0 -18 -41 -38
q-26 -13 -32 -13q-10 0 -27 -7q-21 -6 -27 -4q-7 1 -7 -3q0 -9 -32 -13q-20 -2 -27 5t-7 2q0 -15 -48 -7q-34 8 -35 9q-2 2 -21 2q-42 0 -61 17q-8 8 -17 10q-20 5 -36 17.5t-16 23.5q0 6 -6 12q-5 4 -12 21.5t-7 25.5q-1 26 -4 26q-4 0 0 4q2 4 2 23q-2 19 1 22q3 1 1 22
q-4 24 1 56q0 5 -2 9q-3 2 1 6q3 7 1 33q-3 27 4 45q8 18 8 39q1 21 -7 38q-9 16 -9 23q0 9 -5 12q-4 4 -4 10t-26 16q-40 12 -40 25q0 16 12 19z" />
    <glyph glyph-name="quoteleft" unicode="&#x2018;" horiz-adv-x="214" 
d="M202 454q-1 -2 -6 -3t-6 -2l-3 1v-1h-4v-1q-2 1 -3 1q-32 -3 -73 15h-2q-1 0 -8 5q-1 1 -3.5 2t-3.5 1q-1 1 -2.5 4t-2.5 4q-8 12 -11 18q0 2 -1 5t-1 5q-1 3 -4 11.5t-4 12.5q-2 18 -1 26q2 7 11 26v2.5t1 2.5l3 3l2 1q3 5 3 7h2t1 1q3 4 9 10l-1 1l4 2q6 4 17.5 12.5
t15.5 10.5q2 1 4.5 2t4.5 2l2 1l1 1q1 1 2 1h2q13 4 23 5q2 0 6 0.5t6 0.5h16h2v-1h3q0 -1 1 -1l3 -2q1 -1 2 -1v-11q-1 0 -2 -2q0 -3 -2 -3v-2q-1 0 -2 -1t-2.5 -3.5t-3 -4.5t-2.5 -2q-12 -5 -14 -6q-10 -6 -13 -9q-1 -1 -2.5 -4t-2.5 -4q-5 -15 -5 -18q0 -1 -0.5 -1
t-0.5 -1t1 -3q1 -3 2.5 -11t2.5 -11q0 -1 -2 -6q1 0 6 -1l2 -2l-2 -1q-2 0 -2 -1h1q0 -1 -1 -2q0 -1 -2 -2l-3 -1q4 1 3 -1l-1 -1q-4 -6 -2 -11q0 -2 1 -3q1 0 1 -1v-4q1 -2 5 -6q2 -2 3 -2h4q3 -1 8.5 -5.5t6.5 -5.5l10 -6l4 -2q1 0 1 -6l2 -2l3 -2q-5 -17 -7 -20z" />
    <glyph glyph-name="quoteright" unicode="&#x2019;" horiz-adv-x="285" 
d="M130 635q1 1 12 5h3v1h3v1h4q29 4 72 -9l2 1q2 0 4 -2t4 -2q1 -1 8 -3q4 -4 6 -7q9 -9 12 -16q2 -3 4 -9q1 -2 5.5 -10t6.5 -13q5 -21 4 -26q0 -6 -7 -27q-1 -1 0 -2.5t0 -2.5l-2.5 -2.5t-1.5 -2.5q-2 -2 -3 -5v-2q0 -1 -2 -1l-1 -1q-1 -1 -8 -11q2 0 2 -1l-4 -2
q-7 -5 -17 -14.5t-14 -12.5l-12 -6v-2h-4q-8 -3 -23 -7q-8 -2 -12 -2q-2 0 -6 -0.5t-6 -0.5h-4h-3v1l-2 -1l-2 2q-3 1 -3 2h-1q-1 1 -2 5t0 5t1 3q2 2 2 3v1l1 1l1 1q1 1 2 3t1.5 3.5t1.5 3t2 1.5q2 1 6 3.5t6 4.5q9 7 12 12q0 1 3 8q4 13 3 18v2v1l-1 2q-5 19 -6 20
q0 1 3 6l-6 1l-1 1l2 1q2 1 2 2h-2q1 1 2 3l2 2q2 1 3 2q-3 -1 -3 0q2 1 2 2q2 6 0 12q-1 1 -1 3q-1 0 -2 1q0 3 -1 4q-3 5 -6 5q-2 2 -3 2t-2 -1h-2q-5 2 -16 9q-10 3 -11 4l-4 2q-2 0 -2 5q0 1 -1 1l-2 1l-3 1q0 2 1.5 9t3.5 11z" />
    <glyph glyph-name="quotedblleft" unicode="&#x201c;" horiz-adv-x="415" 
d="M202 454q-1 -2 -6 -3t-6 -2l-3 1v-1h-4v-1q-2 1 -3 1q-32 -3 -73 15h-2q-1 0 -8 5q-1 1 -3.5 2t-3.5 1q-1 1 -2.5 4t-2.5 4q-8 12 -11 18q0 2 -1 5t-1 5q-1 3 -4 11.5t-4 12.5q-2 18 -1 26q2 7 11 26v2.5t1 2.5l3 3l2 1q3 5 3 7h2t1 1q3 4 9 10l-1 1l4 2q6 4 17.5 12.5
t15.5 10.5q2 1 4.5 2t4.5 2l2 1l1 1q1 1 2 1h2q13 4 23 5q2 0 6 0.5t6 0.5h16h2v-1h3q0 -1 1 -1l3 -2q1 -1 2 -1v-11q-1 0 -2 -2q0 -3 -2 -3v-2q-1 0 -2 -1t-2.5 -3.5t-3 -4.5t-2.5 -2q-12 -5 -14 -6q-10 -6 -13 -9q-1 -1 -2.5 -4t-2.5 -4q-5 -15 -5 -18q0 -1 -0.5 -1
t-0.5 -1t1 -3q1 -3 2.5 -11t2.5 -11q0 -1 -2 -6q1 0 6 -1l2 -2l-2 -1q-2 0 -2 -1h1q0 -1 -1 -2q0 -1 -2 -2l-3 -1q4 1 3 -1l-1 -1q-4 -6 -2 -11q0 -2 1 -3q1 0 1 -1v-4q1 -2 5 -6q2 -2 3 -2h4q3 -1 8.5 -5.5t6.5 -5.5l10 -6l4 -2q1 0 1 -6l2 -2l3 -2q-5 -17 -7 -20zM406 445
q-1 -2 -4.5 -3.5t-4.5 -2.5h-3v-1q-2 1 -3 1v-1h-2q-27 -4 -65 14h-2q-1 0 -2 1t-2.5 2t-2.5 2q-4 2 -6 4q-2 1 -4 7q-5 6 -10 16l-3 9q-1 2 -4 6t-5 7.5t-3 7.5q-7 11 -8 23q-2 9 0 26q0 1 -0.5 3t-0.5 3q0 2 3 5v8l1 1l1 1q1 2 2.5 6t2.5 6l-2 1l4 3q24 32 25 33
q2 1 4.5 2.5t4.5 2.5t2 2l1 1q0 1 2 1h2q2 1 23 6q1 0 5 0.5t6 0.5h15q1 0 3 1q-1 -1 0 -1h2l1 -1l3 -3h1q1 -1 1.5 -5.5t-0.5 -5.5q-1 0 -1 -2l-2 -3v-2q-1 -1 -2 -1q-1 -1 -2.5 -5.5t-2.5 -5.5q-7 -5 -8 -7q-3 -6 -3 -11q0 -1 0.5 -3.5t0.5 -3.5q1 -2 2 -6.5t2 -6.5v-2
l2 -1q2 -4 4 -12t2 -9q1 -2 -1 -5.5t-2 -5.5q3 0 6 -2q2 -3 2 -4t-2 -2t-1 -2h2v-6q1 -2 -1 -2l-3 -2q4 1 5 0.5t-2 -3.5q-1 -9 2 -12v-3q2 0 2 -1v-4q0 -5 3 -5l2 -2l2 1q2 -1 5 -6l3 -5l6 -6q0 -2 2 -2q1 0 1 -6l1 -1v-1l2 -2z" />
    <glyph glyph-name="quotedblright" unicode="&#x201d;" horiz-adv-x="425" 
d="M97 626q3 -1 9 1q4 1 7.5 6t1.5 7q-3 6 -10 2q-1 0 -1 -1v-1q-1 0 -1 -1v-1l-1 -1q-1 -1 -1 -2q-1 -2 -1 -3t-1 -3l-1 -1v-1q0 -1 -1 -1zM320 622q1 0 4 0.5t5 0.5q4 1 7 6.5t1 7.5q-3 6 -10 1v-1l-1 -1v-1q0 -1 -1 -1l-1 -2l-3 -6v-2q-1 -1 -1 -2zM79 507q1 1 4.5 1
t4.5 1q1 -2 2 -2v1l1 -1q0 1 1 1l1 -1q6 -1 8 2t-1 10l-1 2q-1 1 -1 3l-3 3q0 1 0.5 1t0.5 1q0 5 1 8q2 4 2 5q0 2 -1.5 7.5t-1.5 6.5q0 2 -2 7t-2 8q-1 5 -1 14q-1 1 -2 1l-1 1l2 3l-2 2l1 1l1 1q0 4 1 6l-2 -1q0 1 2 3q3 8 1 17q-4 -6 -6 -6t-3 -1t-2 -1q-3 -2 -7 -2
l-1 -1l-1 -1h-5q-30 -3 -34 2q-9 9 -7 27.5t15 26.5q9 5 18 6t18.5 0.5t12.5 -0.5q2 0 8 1.5t9 2.5q25 0 53 -17q2 -1 6 -5q1 -1 3 -2.5t3 -2.5q19 -25 24 -59q1 -6 -4 -29l1 -2l2.5 -2.5t1.5 -2.5q2 -5 -1 -14q0 -2 -2 -2.5t-3 -3.5l1 -2q-2 -8 -5 -16q-1 -2 -2 -3.5
t-2 -0.5l-3 1q4 -5 -4 -13q-15 -13 -25 -21l-6 -3l-4 -2q-3 -1 -9 -1l-15 -3q-1 -1 -2.5 -1t-2.5 -1l-6 -3q-14 -4 -27 -1q-11 1 -15 4l-4 4q-1 1 2 7q1 1 0 2l-1 2l-2 2t0 1q2 2 8 10.5t12 13.5zM301 503q2 2 10 2l1 -1q0 1 1 1l1 -1v1l1 -1q6 -1 8.5 2t-0.5 10l-1 1
q-1 2 -2 3l-2 3q0 2 1 3q0 5 1 8q0 1 1 2.5t1 2.5q0 2 -1.5 7.5t-1.5 6.5q-4 10 -5 15q0 10 -1 14l-1 1l-1 1l1 1q1 1 1 2l-2 2l2 2v6l-1 -1q-1 1 2 3q2 12 1 17q-5 -7 -7 -7q-1 1 -4 -2q-3 -1 -7 -1q-1 0 -1 -1l-2 -1h-5q-30 -3 -33 1q-9 10 -7.5 28.5t15.5 26.5
q8 5 17.5 6t18 0t12.5 0l7 2q7 1 11 1q27 0 53 -16l5 -5q6 -4 7 -5q19 -27 24 -59q1 -6 -4 -29l1 -1q1 -2 2.5 -3.5t1.5 -2.5q1 -7 -1 -14q-1 -3 -3 -3q-2 -1 -2 -3l1 -2q0 -1 -2 -6.5t-4 -9.5q-1 -3 -3 -4l-3 1q3 -3 -4 -13q-5 -4 -13 -11t-12 -10l-6 -3l-4 -2q-2 0 -5 -1
t-4 -1q-4 0 -9 -1t-6 -1t-3 -1t-3 -1q-4 -2 -5 -3q-7 -2 -28 -2q-13 4 -14 5q-1 0 -2 1l-2 2q-1 0 2 8l-2 4l-2 3q3 3 9 11t11 12z" />
    <glyph glyph-name="uni3000" unicode="&#x3000;" horiz-adv-x="1000" 
 />
    <glyph glyph-name="uniF8FE" unicode="&#xf8fe;" horiz-adv-x="300" 
 />
    </font>
</defs>
</svg>
